<svg width="36" height="36" viewBox="0 0 36 36" fill="none" xmlns="http://www.w3.org/2000/svg">
<circle cx="18" cy="18" r="18" fill="#FAEDDD"/>
<path fill-rule="evenodd" clip-rule="evenodd" d="M24.3128 12.9741H24.5495H24.5537C27.5391 12.9741 29.9354 15.388 29.9951 18.3317C29.9897 19.4912 29.6059 20.6176 28.9017 21.5413C28.1974 22.4651 27.2107 23.1363 26.09 23.4539C26.014 23.48 25.9334 23.49 25.8533 23.4833C25.6509 23.4846 25.4538 23.419 25.2929 23.2969C25.1321 23.1747 25.0164 23.0029 24.9642 22.8084C24.8458 22.3079 25.1121 21.8075 25.615 21.6603C27.1233 21.2482 28.1593 19.8646 28.1593 18.3044C28.1565 17.3684 27.7816 16.4715 27.1164 15.8096C26.4512 15.1477 25.5498 14.7747 24.6092 14.7719C24.4007 14.7757 24.1928 14.7955 23.9873 14.8313C23.514 14.9196 23.0702 14.6836 22.9223 14.2425C22.5606 13.2346 21.8945 12.3627 21.0153 11.7462C20.1361 11.1297 19.0869 10.7987 18.0113 10.7987C16.9357 10.7987 15.8865 11.1297 15.0073 11.7462C14.1281 12.3627 13.462 13.2346 13.1003 14.2425C13.0211 14.45 12.8708 14.6229 12.6759 14.7306C12.481 14.8384 12.254 14.874 12.0352 14.8313C11.83 14.7953 11.6223 14.7754 11.414 14.7719C10.4733 14.7747 9.57189 15.1477 8.90671 15.8096C8.24153 16.4715 7.86661 17.3684 7.86382 18.3044C7.86382 19.8625 8.89928 21.2482 10.4081 21.6582C10.911 21.8075 11.209 22.3058 11.0589 22.8063C10.9089 23.3067 10.4081 23.6011 9.90515 23.4539C7.59756 22.8357 6 20.7162 6 18.3317C6 15.388 8.42593 12.9741 11.3844 12.9741H11.621C12.2004 11.7851 13.1039 10.782 14.2286 10.0793C15.3532 9.37662 16.6537 9.00264 17.9817 9C19.3066 8.99922 20.6046 9.37215 21.7251 10.0755C22.8457 10.7789 23.7429 11.7839 24.3128 12.9741ZM12.7157 22.2763L13.1594 21.3343V21.3364C13.2537 21.1445 13.3104 20.9527 13.3765 20.7292C13.3915 20.6784 13.407 20.626 13.4236 20.5715C13.4783 20.33 13.4883 20.0807 13.4532 19.8356C13.448 19.706 13.4282 19.5775 13.394 19.4524C13.3734 19.3709 13.3386 19.2749 13.3093 19.1943L13.3093 19.1942L13.3092 19.1941C13.2964 19.1588 13.2847 19.1265 13.2757 19.0996L13.2165 18.8641C13.1897 18.7046 13.2235 18.5409 13.3114 18.4048C13.3993 18.2688 13.535 18.1701 13.692 18.1282C13.7974 18.1023 13.9079 18.105 14.0119 18.1359C14.116 18.1669 14.2098 18.225 14.2837 18.3043C14.4419 18.4755 14.5821 18.6624 14.7021 18.862C14.7208 18.9002 14.7411 18.9397 14.7619 18.9803L14.7619 18.9804C14.8372 19.1274 14.9199 19.2888 14.9662 19.4503C15.0845 19.8624 15.1733 20.3045 15.1437 20.7461C15.1081 21.18 15.0082 21.6064 14.8473 22.0113C14.7908 22.145 14.7347 22.2744 14.6804 22.3996C14.5912 22.6054 14.5069 22.7998 14.4337 22.9828C14.1658 23.6031 13.9873 24.1014 13.9582 24.6019C13.9292 25.1023 14.0766 25.6616 14.2837 26.2504V26.2798C14.3386 26.4403 14.3291 26.6157 14.257 26.7694C14.1849 26.923 14.0559 27.0429 13.8969 27.1041C13.6307 27.2218 13.3644 27.1335 13.1869 26.9274C12.6861 26.3687 12.2698 25.5738 12.2106 24.6902C12.1899 24.2551 12.2297 23.8192 12.329 23.3949C12.4308 23.0133 12.56 22.6395 12.7157 22.2763ZM17.0054 22.2763L17.4492 21.3343H17.4508C17.5865 21.1107 17.6677 20.8587 17.688 20.5983C17.7427 20.3568 17.7527 20.1075 17.7176 19.8624C17.7124 19.733 17.6925 19.6046 17.6584 19.4797C17.6279 19.3592 17.5884 19.2411 17.5401 19.1264L17.4809 18.8909C17.4238 18.5671 17.6309 18.2139 17.9564 18.155C18.0619 18.1293 18.1723 18.1322 18.2763 18.1632C18.3804 18.1943 18.4742 18.2524 18.548 18.3316C18.7048 18.5036 18.8436 18.691 18.9622 18.8909C18.9812 18.9296 19.0017 18.9697 19.0228 19.0109L19.0229 19.0112L19.0229 19.0112C19.098 19.1581 19.1802 19.3189 19.2264 19.4797C19.3447 19.8918 19.4335 20.3339 19.4039 20.775C19.3685 21.2091 19.2688 21.6356 19.108 22.0408C19.0338 22.2403 18.9498 22.4398 18.8686 22.6324L18.8686 22.6324L18.8686 22.6324L18.8686 22.6325C18.8181 22.7525 18.7687 22.8698 18.7234 22.9828C18.4556 23.6036 18.277 24.1025 18.248 24.6024C18.2189 25.1023 18.3663 25.6621 18.5734 26.2504V26.2798C18.6285 26.44 18.6192 26.6152 18.5476 26.7688C18.4759 26.9224 18.3474 27.0425 18.1888 27.1041C18.0635 27.1458 17.9283 27.1485 17.8014 27.1117C17.6744 27.0748 17.5619 27.0003 17.4788 26.898C16.978 26.3387 16.5617 25.5733 16.5025 24.6607C16.4817 24.2256 16.5215 23.7897 16.6208 23.3655C16.7131 22.9908 16.8419 22.626 17.0054 22.2763ZM21.7685 21.3343L21.3248 22.2763C21.1698 22.6395 21.0413 23.0134 20.9402 23.3949C20.8409 23.8192 20.8011 24.2551 20.8218 24.6902C20.881 25.5738 21.2973 26.3687 21.7981 26.9274C21.9756 27.1335 22.2419 27.2218 22.5081 27.1041C22.6671 27.0429 22.7961 26.923 22.8682 26.7694C22.9403 26.6157 22.9498 26.4403 22.8948 26.2798V26.2504C22.6878 25.6616 22.5404 25.1023 22.5694 24.6019C22.5985 24.1014 22.777 23.6031 23.0449 22.9828C23.1181 22.7998 23.2024 22.6054 23.2916 22.3997L23.2916 22.3995L23.2918 22.3991C23.346 22.2741 23.4021 22.1448 23.4585 22.0113C23.6194 21.6064 23.7193 21.18 23.7549 20.7461C23.7845 20.3045 23.6957 19.8624 23.5774 19.4503C23.531 19.2888 23.4484 19.1274 23.3731 18.9804L23.3731 18.9803C23.3523 18.9397 23.332 18.9002 23.3133 18.862C23.1933 18.6624 23.0531 18.4755 22.8948 18.3043C22.821 18.225 22.7272 18.1669 22.6231 18.1359C22.5191 18.105 22.4086 18.1023 22.3032 18.1282C22.1462 18.1701 22.0105 18.2688 21.9226 18.4048C21.8347 18.5409 21.8009 18.7046 21.8277 18.8641L21.8869 19.0996C21.8959 19.1266 21.9076 19.1589 21.9205 19.1943L21.9205 19.1943L21.9205 19.1943C21.9498 19.2749 21.9846 19.3709 22.0052 19.4524C22.0394 19.5775 22.0592 19.706 22.0644 19.8356C22.0995 20.0807 22.0895 20.33 22.0348 20.5715C21.9816 20.8375 21.8918 21.0948 21.768 21.3364L21.7685 21.3343Z" fill="#143109"/>
</svg>
