<svg width="105" height="80" viewBox="0 0 105 80" fill="none" xmlns="http://www.w3.org/2000/svg">
<mask id="mask0_1715_14040" style="mask-type:alpha" maskUnits="userSpaceOnUse" x="34" y="0" width="35" height="41">
<path fill-rule="evenodd" clip-rule="evenodd" d="M49.8545 0C41.6975 0 34.7563 5.87714 34.7563 14.2369C34.7563 20.722 39.0122 25.8898 42.4574 31.0576L48.7399 40.5826H57.0489L46.612 24.7752C44.5347 21.6339 41.6975 18.2394 41.6975 14.2875C41.6975 9.72768 45.4973 6.9411 49.8545 6.9411H61.5581C61.5581 18.1381 61.5581 29.3857 61.5581 40.5826H68.4992V0C61.4061 0 56.9476 0 49.8545 0Z" fill="white"/>
</mask>
<g mask="url(#mask0_1715_14040)">
<path d="M68.4486 0H34.7563V40.5826H68.4486V0Z" fill="url(#paint0_linear_1715_14040)"/>
</g>
<path d="M69.4616 59.6327H63.7871V62.0139H69.4616V59.6327Z" fill="#2D5328"/>
<mask id="mask1_1715_14040" style="mask-type:alpha" maskUnits="userSpaceOnUse" x="33" y="14" width="36" height="27">
<path fill-rule="evenodd" clip-rule="evenodd" d="M33.5908 40.5826H41.8999C44.9398 35.9721 47.9797 31.3616 51.0196 26.7511L60.1393 40.5826H68.4483L51.0196 14.1355C45.2438 22.9512 39.4173 31.7669 33.5908 40.5826Z" fill="white"/>
</mask>
<g mask="url(#mask1_1715_14040)">
<path d="M68.4483 14.1355H33.5908V40.5826H68.4483V14.1355Z" fill="url(#paint1_linear_1715_14040)"/>
</g>
<path d="M101.938 65.1045C102.799 64.6485 103.407 63.9898 103.914 63.1285C104.37 62.2672 104.623 61.2033 104.623 59.9873V56.2888V55.5795V52.6916H101.786V55.5795C101.786 55.9341 101.786 56.2381 101.786 56.5928C101.786 57.4034 101.634 58.2647 101.026 58.9234C100.519 59.43 99.8607 59.6833 98.9994 59.6833C98.1381 59.6833 97.4288 59.43 96.9728 58.9234C96.4662 58.4167 96.2128 57.6567 96.2128 56.6434V52.7422H93.4263V56.3394C93.4263 57.5554 93.6796 58.6194 94.1356 59.4807C94.5916 60.342 95.2502 61.0006 96.1115 61.4566C96.9728 61.9126 97.9355 62.1152 99.0501 62.1152C100.013 62.1152 100.874 61.9632 101.634 61.6086C101.533 62.0139 101.33 62.3686 101.077 62.6219C100.57 63.1285 99.9114 63.3819 99.1008 63.3819H94.4396H94.3889V65.7631C94.4902 65.7631 94.5916 65.7631 94.6929 65.7631H99.0501C100.013 65.8138 101.026 65.6111 101.938 65.1045Z" fill="#2D5328"/>
<path d="M44.9907 59.6327V58.0621C44.9907 57.0488 44.7374 56.2888 44.2307 55.7821C43.7241 55.2755 43.0654 55.0222 42.2041 55.0222C41.3428 55.0222 40.6335 55.2755 40.1775 55.7821C39.6709 56.2888 39.4176 57.0488 39.4176 58.0621V59.6327H44.9907ZM42.2548 52.5902C43.3694 52.5902 44.3827 52.7929 45.1934 53.2489C46.0547 53.7049 46.6626 54.3635 47.1693 55.2248C47.6253 56.0861 47.8786 57.1501 47.8786 58.366V65.0538H45.0414V62.1153H39.4682V65.0538H36.6816V58.366C36.6816 57.1501 36.935 56.0861 37.391 55.2248C37.8469 54.3635 38.5056 53.7049 39.3669 53.2489C40.1269 52.7929 41.0895 52.5902 42.2548 52.5902Z" fill="#2D5328"/>
<path d="M30.0952 55.1742L30.1458 65.0032H27.3086V52.7929H35.9216V55.1742H30.0952Z" fill="#2D5328"/>
<path d="M25.0285 52.7929V65.0032H22.2419V62.0139H16.6688V65.0032H13.8315V52.7929H16.6688V59.6327H22.2419V52.7929H25.0285Z" fill="#2D5328"/>
<path d="M1.72261 54.0089C2.53325 53.2489 3.64788 52.7929 4.86384 52.7929H11.501V65.0032C10.589 65.0032 9.57568 65.0032 8.66371 65.0032C8.66371 61.8619 8.66371 58.7714 8.66371 55.6301H4.96517C4.10386 55.6301 3.34389 56.0861 3.34389 56.9981C3.34389 57.6567 3.74921 58.3154 4.15453 58.9234L5.72514 61.3553L3.29322 65.0538H0L2.38125 61.406L1.51995 60.038C0.861305 59.0754 0.455985 58.1127 0.455985 56.9474C0.455985 55.7315 0.962635 54.7182 1.72261 54.0089Z" fill="#2D5328"/>
<path d="M61.3552 52.7929V65.0032H58.5179V62.0139H52.9954V65.0032H50.1582V52.7929H52.9954V59.6327H58.5179V52.7929H61.3552Z" fill="#2D5328"/>
<path d="M78.3786 56.1875C77.3147 55.5795 76.2001 55.1742 75.0348 55.0222V65.0032H72.1975V55.0222C70.9816 55.1742 69.8669 55.5795 68.803 56.1875L67.8403 54.0596C68.7016 53.5529 69.5629 53.1983 70.5762 52.9449C71.5389 52.6916 72.5522 52.5396 73.6161 52.5396C74.6801 52.5396 75.6934 52.6916 76.656 52.9449C77.6187 53.1983 78.5306 53.6036 79.3919 54.0596L78.3786 56.1875Z" fill="#2D5328"/>
<path d="M88.765 59.6327V58.0621C88.765 57.0488 88.5117 56.2888 88.005 55.7821C87.4984 55.2755 86.8397 55.0222 85.9784 55.0222C85.1171 55.0222 84.4078 55.2755 83.9518 55.7821C83.4452 56.2888 83.1918 57.0488 83.1918 58.0621V59.6327H88.765ZM85.9784 52.5902C87.0931 52.5902 88.1064 52.7929 88.917 53.2489C89.7783 53.7049 90.3863 54.3635 90.8929 55.2248C91.3489 56.0861 91.6022 57.1501 91.6022 58.366V65.0538H88.765V62.1153H83.1918V65.0538H80.4053V58.366C80.4053 57.1501 80.6586 56.0861 81.1146 55.2248C81.5706 54.3635 82.2292 53.7049 83.0905 53.2489C83.8505 52.7929 84.8638 52.5902 85.9784 52.5902Z" fill="#2D5328"/>
<path d="M73.7682 74.5788C74.7308 74.5788 75.2375 74.9842 75.2375 75.8455C75.2375 76.6561 74.7308 77.1121 73.9202 77.1121H73.3122V74.5788H73.7682ZM73.3122 77.8214H73.9709C74.5788 77.8214 75.1362 77.6187 75.4908 77.2641C75.8455 76.9094 76.0988 76.4028 76.0988 75.8455C76.0988 75.2375 75.8961 74.7815 75.4908 74.4268C75.0855 74.0722 74.5282 73.8695 73.8189 73.8695H72.5522V79.8987H73.3122V77.8214Z" fill="#113D23"/>
<path d="M66.422 79.2907C65.0034 79.2907 64.1421 78.2267 64.1421 76.8588C64.1421 75.3895 65.1047 74.4269 66.422 74.4269C67.7393 74.4269 68.7526 75.4402 68.7526 76.8588C68.7526 78.2267 67.8406 79.2907 66.422 79.2907ZM66.422 80C68.2459 80 69.5632 78.6827 69.5632 76.8588C69.5632 75.0348 68.2459 73.7176 66.422 73.7176C64.5981 73.7176 63.2808 75.0348 63.2808 76.8588C63.3314 78.6827 64.6487 80 66.422 80Z" fill="#113D23"/>
<path d="M58.9234 74.5788C60.95 74.5788 60.8486 77.1121 59.0247 77.1121H58.4167V74.5788H58.9234ZM58.4167 77.8214H59.0754C59.6833 77.8214 60.2406 77.6187 60.5953 77.2641C61.3553 76.5548 61.4059 75.1362 60.5953 74.4268C60.19 74.0722 59.6327 73.8695 58.9234 73.8695H57.6567V79.8987H58.4167V77.8214Z" fill="#113D23"/>
<path d="M37.087 79.2907C35.6684 79.2907 34.8071 78.2267 34.8071 76.8588C34.8071 75.3895 35.7697 74.4269 37.087 74.4269C38.4043 74.4269 39.4176 75.4402 39.4176 76.8588C39.367 78.2267 38.455 79.2907 37.087 79.2907ZM37.087 80C38.911 80 40.2283 78.6827 40.2283 76.8588C40.2283 75.0348 38.911 73.7176 37.087 73.7176C35.2631 73.7176 33.9458 75.0348 33.9458 76.8588C33.9458 78.6827 35.2631 80 37.087 80Z" fill="#113D23"/>
<path d="M80.8614 74.5788H82.3813V73.8695H78.5308V74.5788H80.0507V79.8987H80.8614V74.5788Z" fill="#113D23"/>
<path d="M31.3614 79.1894H28.9802V77.1628H31.3614V76.4534H28.9802V74.5788H31.3614V73.8695H28.2202V79.8987H31.3614V79.1894Z" fill="#113D23"/>
<path d="M52.2357 77.4161C52.6916 76.2508 53.2996 74.9842 53.8569 73.8695H54.7182L51.8303 79.8987H51.0197L51.7797 78.2267L49.6011 73.8695H50.513C51.0704 75.0348 51.6783 76.2508 52.2357 77.4161Z" fill="#113D23"/>
<path d="M44.4334 76.8588L47.22 79.848H46.1054C45.2947 78.9361 44.4841 78.0748 43.6734 77.1628C43.6734 78.0748 43.6734 78.9361 43.6734 79.848H42.8628V73.8189H43.6734C43.6734 74.7309 43.6734 75.6935 43.6734 76.6055L46.1054 73.8189H47.1187L44.4334 76.8588Z" fill="#113D23"/>
<path d="M23.002 74.5788H25.0286V73.8695H22.1914V79.8987H23.002V74.5788Z" fill="#113D23"/>
<defs>
<linearGradient id="paint0_linear_1715_14040" x1="51.6179" y1="0" x2="51.6179" y2="35.3084" gradientUnits="userSpaceOnUse">
<stop stop-color="#8A74B2"/>
<stop offset="1" stop-color="#605294"/>
</linearGradient>
<linearGradient id="paint1_linear_1715_14040" x1="51.0601" y1="40.5958" x2="50.9993" y2="0.0283667" gradientUnits="userSpaceOnUse">
<stop stop-color="#E31F25"/>
<stop offset="1" stop-color="#F39425"/>
</linearGradient>
</defs>
</svg>
