<svg width="36" height="36" viewBox="0 0 36 36" fill="none" xmlns="http://www.w3.org/2000/svg">
<circle cx="18" cy="18" r="18" fill="#FAEDDD"/>
<path d="M19.6 15.2253H16.4C16.3475 15.2253 16.2955 15.2354 16.247 15.2552C16.1984 15.275 16.1543 15.304 16.1172 15.3406C16.08 15.3771 16.0506 15.4206 16.0305 15.4684C16.0103 15.5162 16 15.5675 16 15.6192V18.3791C15.9999 18.4309 16.0103 18.4822 16.0303 18.53C16.0504 18.5779 16.0799 18.6214 16.117 18.658C16.1542 18.6946 16.1983 18.7236 16.2469 18.7434C16.2954 18.7632 16.3475 18.7734 16.4 18.7733H19.6C19.7061 18.7732 19.8077 18.7317 19.8827 18.6577C19.9577 18.5838 19.9999 18.4836 20 18.3791V15.6192C19.9999 15.5147 19.9577 15.4145 19.8827 15.3407C19.8077 15.2668 19.706 15.2253 19.6 15.2253ZM19.2004 17.9848H16.8V16.0139H19.2004V17.9848Z" fill="#143109"/>
<path d="M24.7992 15.2253H21.5992C21.4932 15.2253 21.3915 15.2668 21.3165 15.3407C21.2415 15.4145 21.1993 15.5147 21.1992 15.6192V18.3791C21.1992 18.4836 21.2414 18.5839 21.3164 18.6579C21.3914 18.7318 21.4931 18.7733 21.5992 18.7733H24.7992C24.9052 18.7731 25.0069 18.7315 25.0818 18.6576C25.1568 18.5837 25.199 18.4836 25.1992 18.3791V15.6192C25.199 15.5148 25.1568 15.4146 25.0818 15.3408C25.0068 15.267 24.9052 15.2254 24.7992 15.2253ZM24.3996 17.9848H21.9988V16.0139H24.3992V17.9848H24.3996Z" fill="#143109"/>
<path d="M14.6 15.2253H11.3996C11.2936 15.2253 11.192 15.2668 11.117 15.3407C11.0421 15.4146 11 15.5148 11 15.6192V18.3791C10.9999 18.4308 11.0102 18.4821 11.0303 18.5299C11.0504 18.5778 11.0798 18.6212 11.1169 18.6578C11.154 18.6945 11.1981 18.7235 11.2466 18.7433C11.2951 18.7631 11.3471 18.7733 11.3996 18.7733H14.6C14.706 18.7732 14.8077 18.7317 14.8826 18.6577C14.9575 18.5838 14.9996 18.4836 14.9996 18.3791V15.6192C14.9996 15.5148 14.9576 15.4147 14.8827 15.3408C14.8078 15.267 14.7063 15.2254 14.6004 15.2253H14.6ZM14.1996 17.9848H11.7996V16.0139H14.1996V17.9848Z" fill="#143109"/>
<path d="M24.7992 21.1392H21.5992C21.4931 21.1392 21.3914 21.1807 21.3164 21.2546C21.2414 21.3286 21.1992 21.4289 21.1992 21.5334V24.2929C21.1992 24.3975 21.2414 24.4977 21.3164 24.5717C21.3914 24.6456 21.4931 24.6872 21.5992 24.6872H24.7992C24.9053 24.6871 25.007 24.6455 25.0819 24.5716C25.1569 24.4976 25.1991 24.3974 25.1992 24.2929V21.5334C25.1991 21.4289 25.1569 21.3287 25.0819 21.2548C25.007 21.1808 24.9053 21.1393 24.7992 21.1392ZM24.3996 23.8994H21.9988V21.9277H24.3992V23.8994H24.3996Z" fill="#143109"/>
<path d="M14.6 21.1392H11.3996C11.3471 21.1392 11.2951 21.1494 11.2466 21.1692C11.1981 21.189 11.154 21.218 11.1169 21.2547C11.0798 21.2913 11.0504 21.3347 11.0303 21.3826C11.0102 21.4304 10.9999 21.4817 11 21.5334V24.2929C10.9999 24.3446 11.0102 24.3959 11.0303 24.4437C11.0504 24.4916 11.0798 24.535 11.1169 24.5717C11.154 24.6083 11.1981 24.6373 11.2466 24.6571C11.2951 24.677 11.3471 24.6872 11.3996 24.6872H14.6C14.6525 24.6872 14.7045 24.677 14.753 24.6571C14.8015 24.6373 14.8456 24.6083 14.8827 24.5717C14.9198 24.535 14.9492 24.4916 14.9693 24.4437C14.9894 24.3959 14.9997 24.3446 14.9996 24.2929V21.5334C14.9997 21.4817 14.9894 21.4305 14.9693 21.3827C14.9493 21.3349 14.9199 21.2914 14.8828 21.2548C14.8458 21.2182 14.8018 21.1891 14.7533 21.1693C14.7048 21.1495 14.6529 21.1392 14.6004 21.1392H14.6ZM14.1996 23.8994H11.7996V21.9277H14.1996V23.8994Z" fill="#143109"/>
<path d="M27.6 24.6874H26.8004V14.8307H27.6C27.7061 14.8306 27.8079 14.789 27.8829 14.715C27.9579 14.641 28 14.5407 28 14.4361V12.6627C28 12.6109 27.9897 12.5596 27.9696 12.5118C27.9495 12.4639 27.92 12.4205 27.8828 12.3839C27.8457 12.3473 27.8016 12.3182 27.7531 12.2984C27.7046 12.2786 27.6525 12.2684 27.6 12.2684H26.846L25.2929 9.13735C25.2601 9.07146 25.2093 9.0159 25.1462 8.97692C25.0831 8.93795 25.0102 8.91711 24.9357 8.91675H10.9032C10.8283 8.91681 10.755 8.9375 10.6915 8.97648C10.6279 9.01546 10.5767 9.07119 10.5437 9.13735L8.99207 12.2664H8.4004C8.3477 12.2664 8.29552 12.2766 8.24684 12.2965C8.19816 12.3164 8.15394 12.3455 8.11674 12.3823C8.07953 12.4191 8.05007 12.4628 8.03003 12.5108C8.01 12.5589 7.99979 12.6103 8 12.6623V14.4361C8.00011 14.5407 8.04234 14.641 8.11742 14.7149C8.19249 14.7888 8.29428 14.8303 8.4004 14.8303H9.2004V24.687H8.4004C8.34784 24.6869 8.29578 24.6971 8.2472 24.7169C8.19863 24.7367 8.15449 24.7657 8.1173 24.8023C8.08012 24.8389 8.05062 24.8824 8.03049 24.9303C8.01036 24.9781 8 25.0294 8 25.0812V26.8554C8 26.9072 8.01036 26.9585 8.03049 27.0064C8.05062 27.0543 8.08012 27.0977 8.1173 27.1344C8.15449 27.171 8.19863 27.2 8.2472 27.2198C8.29578 27.2396 8.34784 27.2497 8.4004 27.2497H27.6C27.706 27.2497 27.8077 27.2082 27.8827 27.1344C27.9577 27.0605 27.9999 26.9603 28 26.8558V25.0816C28 25.0299 27.9897 24.9786 27.9696 24.9307C27.9495 24.8829 27.92 24.8394 27.8828 24.8028C27.8457 24.7662 27.8016 24.7372 27.7531 24.7174C27.7046 24.6976 27.6525 24.6874 27.6 24.6874ZM11.1528 9.70528H24.6845L25.9544 12.268H9.88294L11.1528 9.70528ZM8.8004 14.0418V13.0561H27.2V14.0418H8.8004ZM19.2 24.9936V26.4616H16.8V25.2056V21.3396H19.2V24.9936ZM27.1996 26.4616H20V25.2056V20.9422C20.0001 20.8904 19.9897 20.839 19.9696 20.7911C19.9495 20.7432 19.92 20.6997 19.8828 20.6631C19.8457 20.6264 19.8015 20.5973 19.7529 20.5775C19.7043 20.5577 19.6522 20.5475 19.5996 20.5476H16.3996C16.2936 20.5476 16.192 20.5891 16.117 20.6629C16.0421 20.7368 16 20.837 16 20.9414V25.3934V26.0708V26.4619H8.8V25.4759H9.59961C9.70566 25.4758 9.80734 25.4342 9.88233 25.3603C9.95733 25.2864 9.9995 25.1862 9.99961 25.0816V14.8303H25.9992V25.0808C25.9992 25.1855 26.0414 25.286 26.1165 25.36C26.1915 25.4341 26.2934 25.4758 26.3996 25.4759H27.1996V26.4616Z" fill="#143109"/>
</svg>
