<svg width="36" height="36" viewBox="0 0 36 36" fill="none" xmlns="http://www.w3.org/2000/svg">
<circle cx="18" cy="18" r="18" fill="#FAEDDD"/>
<path d="M18.1904 7.00274C18.1555 7.00892 18.1223 7.02209 18.0928 7.04144C18.0633 7.06079 18.0381 7.08589 18.0189 7.1152L16.314 9.66465H9.1977C9.15016 9.66539 9.10373 9.6789 9.06343 9.70373C9.02313 9.72855 8.9905 9.76374 8.96907 9.80549L6.02522 15.886C6.00623 15.9252 5.99773 15.9685 6.00052 16.0119C6.00331 16.0553 6.01731 16.0972 6.04118 16.1338C6.06505 16.1703 6.09801 16.2003 6.13693 16.2209C6.17586 16.2414 6.21947 16.2518 6.26364 16.2512H7.1591V26.7467C7.15953 26.8137 7.18672 26.8778 7.23479 26.9252C7.28287 26.9726 7.34797 26.9994 7.41603 27H29.5836C29.6518 26.9994 29.7169 26.9726 29.7651 26.9252C29.8132 26.8778 29.8406 26.8137 29.8411 26.7467V16.2512H30.7366C30.7808 16.2519 30.8244 16.2415 30.8633 16.2209C30.9023 16.2004 30.9352 16.1704 30.9591 16.1338C30.9829 16.0972 30.9968 16.0552 30.9995 16.0119C31.0022 15.9685 30.9936 15.9251 30.9745 15.886L27.9174 9.80442C27.896 9.76267 27.8633 9.72748 27.823 9.70266C27.7827 9.67783 27.7363 9.66432 27.6888 9.66358H20.3057L18.4386 7.10556C18.4107 7.06773 18.3729 7.03814 18.3291 7.02002C18.2853 7.00189 18.2374 6.99592 18.1904 7.00274ZM18.2377 7.7053L24.4107 16.1483C24.4349 16.1805 24.4665 16.2067 24.5029 16.2246C24.5393 16.2426 24.5795 16.2518 24.6202 16.2517H29.3262V26.494H20.7439L20.6868 21.2553C20.6737 20.0686 19.7069 19.0999 18.4958 19.0999C18.2072 19.0997 17.9214 19.1556 17.6549 19.2644C17.3884 19.3733 17.1463 19.5328 16.9427 19.734C16.7391 19.9351 16.5779 20.1739 16.4684 20.4365C16.3589 20.6992 16.3033 20.9805 16.3047 21.2644L16.3619 26.494H7.67406V16.2512H12.38C12.4434 16.2506 12.5044 16.2272 12.5514 16.1853L12.5705 16.1762C12.571 16.1732 12.571 16.1701 12.5705 16.1671L12.5803 16.1574C12.5837 16.1545 12.5867 16.1513 12.5895 16.1478L12.5993 16.1387L12.6091 16.1296C12.6251 16.1096 12.6379 16.0874 12.6472 16.0637L18.2388 7.7053H18.2377ZM9.35937 10.1685H15.9705L12.2651 15.7082H7.38827C7.35423 15.7141 7.32179 15.7268 7.29301 15.7457H6.67354L9.35991 10.1702L9.35937 10.1685ZM20.6764 10.1685H27.5167L30.3267 15.744H29.7078C29.6705 15.7213 29.628 15.7084 29.5842 15.7066H24.7253L20.6775 10.1696L20.6764 10.1685ZM18.4952 12.7833C18.0847 12.7909 17.6936 12.9566 17.406 13.2448C17.1184 13.5331 16.9572 13.9208 16.9572 14.3247C16.9572 14.7286 17.1184 15.1164 17.406 15.4047C17.6936 15.6929 18.0847 15.8586 18.4952 15.8661C18.7034 15.87 18.9104 15.8329 19.1039 15.7572C19.2974 15.6814 19.4736 15.5685 19.6222 15.425C19.7708 15.2815 19.8889 15.1102 19.9695 14.9213C20.0501 14.7324 20.0916 14.5296 20.0916 14.3247C20.0916 14.1199 20.0501 13.917 19.9695 13.7281C19.8889 13.5392 19.7708 13.368 19.6222 13.2245C19.4736 13.081 19.2974 12.9681 19.1039 12.8923C18.9104 12.8166 18.7034 12.7795 18.4952 12.7833ZM18.4952 13.2894C18.7023 13.2894 18.9048 13.3497 19.077 13.4629C19.2493 13.576 19.3836 13.7368 19.463 13.925C19.5424 14.1131 19.5634 14.3202 19.5232 14.5201C19.483 14.72 19.3835 14.9037 19.2373 15.0479C19.0911 15.1922 18.9047 15.2907 18.7016 15.3308C18.4986 15.3709 18.288 15.351 18.0965 15.2735C17.9049 15.1959 17.7411 15.0643 17.6255 14.8952C17.51 14.7261 17.448 14.5271 17.4473 14.3234C17.4475 14.0499 17.5579 13.7875 17.7543 13.5939C17.9507 13.4003 18.2171 13.2912 18.4952 13.2904V13.2894ZM18.4952 19.6146C18.7155 19.6142 18.9337 19.6566 19.1372 19.7394C19.3408 19.8221 19.5258 19.9436 19.6815 20.0968C19.8373 20.2501 19.9608 20.432 20.0449 20.6323C20.129 20.8325 20.1722 21.0472 20.1718 21.2639L20.229 26.4929H16.8856L16.8311 21.2542C16.8289 21.0386 16.8704 20.8246 16.9532 20.6249C17.036 20.4252 17.1585 20.2438 17.3134 20.0912C17.4684 19.9386 17.6527 19.818 17.8556 19.7363C18.0585 19.6546 18.276 19.6136 18.4952 19.6156V19.6146ZM9.28316 20.1206C9.22522 20.1339 9.17369 20.1663 9.13722 20.2125C9.10074 20.2588 9.08154 20.3159 9.08284 20.3744V23.3731C9.08182 23.4071 9.08772 23.4409 9.10018 23.4726C9.11264 23.5043 9.13142 23.5332 9.15541 23.5577C9.1794 23.5821 9.20812 23.6016 9.23987 23.615C9.27162 23.6283 9.30577 23.6353 9.34032 23.6355H13.6951C13.7296 23.6352 13.7637 23.6281 13.7954 23.6147C13.8271 23.6013 13.8557 23.5818 13.8797 23.5574C13.9037 23.5329 13.9224 23.5041 13.935 23.4724C13.9475 23.4408 13.9535 23.4071 13.9526 23.3731V20.3744C13.952 20.3074 13.9247 20.2433 13.8766 20.1959C13.8284 20.1485 13.7632 20.1217 13.6951 20.1211H9.28588L9.28316 20.1206ZM22.7052 20.1206C22.6457 20.1322 22.5921 20.1639 22.5539 20.2103C22.5156 20.2566 22.495 20.3147 22.4956 20.3744V23.3731C22.4962 23.4401 22.5235 23.5041 22.5717 23.5514C22.6199 23.5987 22.6851 23.6255 22.7531 23.6259H27.1079C27.176 23.6255 27.2412 23.5987 27.2893 23.5514C27.3375 23.5041 27.3648 23.4401 27.3654 23.3731V20.3744C27.3648 20.3074 27.3375 20.2433 27.2894 20.1959C27.2412 20.1485 27.176 20.1217 27.1079 20.1211H22.7531C22.7372 20.1201 22.7212 20.1201 22.7052 20.1211V20.1206ZM23.0101 20.6261H26.8494V23.1193H23.0101V20.6261ZM9.59725 20.6357H13.4376V23.1188H9.59725V20.6357Z" fill="#113D23" stroke="#113D23" stroke-width="0.5"/>
</svg>
