<svg width="20" height="12" viewBox="0 0 20 12" fill="none" xmlns="http://www.w3.org/2000/svg">
<path d="M18.6897 5.27083C17.2414 3.8125 13.931 1 10 1C6.06897 1 2.75862 3.8125 1.31034 5.27083C0.896552 5.6875 0.896552 6.3125 1.31034 6.72917C2.75862 8.08333 6.06897 11 10 11C13.931 11 17.2414 8.1875 18.6897 6.72917C19.1035 6.3125 19.1035 5.6875 18.6897 5.27083ZM10 9.64583C8.03448 9.64583 6.37931 7.97917 6.37931 6C6.37931 4.02083 8.03448 2.35417 10 2.35417C11.9655 2.35417 13.6207 4.02083 13.6207 6C13.6207 7.97917 11.9655 9.64583 10 9.64583Z" stroke="#E31F25"/>
</svg>
