<svg width="186" height="80" viewBox="0 0 186 80" fill="none" xmlns="http://www.w3.org/2000/svg">
<mask id="mask0_198_2565" style="mask-type:alpha" maskUnits="userSpaceOnUse" x="75" y="0" width="35" height="41">
<path fill-rule="evenodd" clip-rule="evenodd" d="M90.8544 0C82.6973 0 75.7562 5.87714 75.7562 14.2369C75.7562 20.722 80.0121 25.8898 83.4573 31.0576L89.7398 40.5826H98.0488L87.6118 24.7752C85.5346 21.6339 82.6973 18.2394 82.6973 14.2875C82.6973 9.72768 86.4972 6.9411 90.8544 6.9411H102.558C102.558 18.1381 102.558 29.3857 102.558 40.5826H109.499V0C102.406 0 97.9475 0 90.8544 0Z" fill="white"/>
</mask>
<g mask="url(#mask0_198_2565)">
<path d="M109.448 0H75.7562V40.5826H109.448V0Z" fill="url(#paint0_linear_198_2565)"/>
</g>
<path d="M110.462 59.6327H104.787V62.0139H110.462V59.6327Z" fill="#2D5328"/>
<mask id="mask1_198_2565" style="mask-type:alpha" maskUnits="userSpaceOnUse" x="74" y="14" width="36" height="27">
<path fill-rule="evenodd" clip-rule="evenodd" d="M74.5909 40.5826H82.9C85.9399 35.9721 88.9798 31.3616 92.0197 26.7511L101.139 40.5826H109.448L92.0197 14.1355C86.2439 22.9512 80.4174 31.7669 74.5909 40.5826Z" fill="white"/>
</mask>
<g mask="url(#mask1_198_2565)">
<path d="M109.448 14.1355H74.5909V40.5826H109.448V14.1355Z" fill="url(#paint1_linear_198_2565)"/>
</g>
<path d="M142.938 65.1045C143.799 64.6485 144.407 63.9899 144.914 63.1286C145.37 62.2673 145.623 61.2033 145.623 59.9873V56.2888V55.5795V52.6916H142.786V55.5795C142.786 55.9341 142.786 56.2381 142.786 56.5928C142.786 57.4034 142.634 58.2647 142.026 58.9234C141.519 59.43 140.861 59.6833 139.999 59.6833C139.138 59.6833 138.429 59.43 137.973 58.9234C137.466 58.4167 137.213 57.6567 137.213 56.6434V52.7422H134.426V56.3395C134.426 57.5554 134.68 58.6194 135.136 59.4807C135.592 60.342 136.25 61.0006 137.112 61.4566C137.973 61.9126 138.935 62.1153 140.05 62.1153C141.013 62.1153 141.874 61.9633 142.634 61.6086C142.533 62.0139 142.33 62.3686 142.077 62.6219C141.57 63.1286 140.911 63.3819 140.101 63.3819H135.44H135.389V65.7631C135.49 65.7631 135.592 65.7631 135.693 65.7631H140.05C141.013 65.8138 142.026 65.6111 142.938 65.1045Z" fill="#2D5328"/>
<path d="M85.9906 59.6327V58.0621C85.9906 57.0488 85.7373 56.2888 85.2306 55.7821C84.724 55.2755 84.0653 55.0222 83.204 55.0222C82.3427 55.0222 81.6334 55.2755 81.1774 55.7821C80.6708 56.2888 80.4174 57.0488 80.4174 58.0621V59.6327H85.9906ZM83.2547 52.5902C84.3693 52.5902 85.3826 52.7929 86.1932 53.2489C87.0545 53.7049 87.6625 54.3635 88.1692 55.2248C88.6252 56.0861 88.8785 57.1501 88.8785 58.366V65.0538H86.0412V62.1153H80.4681V65.0538H77.6815V58.366C77.6815 57.1501 77.9348 56.0861 78.3908 55.2248C78.8468 54.3635 79.5055 53.7049 80.3668 53.2489C81.1267 52.7929 82.0894 52.5902 83.2547 52.5902Z" fill="#2D5328"/>
<path d="M71.095 55.1742L71.1457 65.0032H68.3085V52.7929H76.9215V55.1742H71.095Z" fill="#2D5328"/>
<path d="M66.0285 52.7929V65.0032H63.2419V62.0139H57.6688V65.0032H54.8315V52.7929H57.6688V59.6327H63.2419V52.7929H66.0285Z" fill="#2D5328"/>
<path d="M42.7226 54.0089C43.5332 53.2489 44.6479 52.7929 45.8638 52.7929H52.501V65.0032C51.589 65.0032 50.5757 65.0032 49.6637 65.0032C49.6637 61.8619 49.6637 58.7714 49.6637 55.6301H45.9652C45.1039 55.6301 44.3439 56.0861 44.3439 56.9981C44.3439 57.6567 44.7492 58.3154 45.1545 58.9234L46.7251 61.3553L44.2932 65.0538H41L43.3813 61.406L42.5199 60.038C41.8613 59.0754 41.456 58.1127 41.456 56.9474C41.456 55.7315 41.9626 54.7182 42.7226 54.0089Z" fill="#2D5328"/>
<path d="M102.355 52.7929V65.0032H99.518V62.0139H93.9956V65.0032H91.1583V52.7929H93.9956V59.6327H99.518V52.7929H102.355Z" fill="#2D5328"/>
<path d="M119.379 56.1875C118.315 55.5795 117.2 55.1742 116.035 55.0222V65.0032H113.198V55.0222C111.982 55.1742 110.867 55.5795 109.803 56.1875L108.84 54.0595C109.702 53.5529 110.563 53.1982 111.576 52.9449C112.539 52.6916 113.552 52.5396 114.616 52.5396C115.68 52.5396 116.694 52.6916 117.656 52.9449C118.619 53.1982 119.531 53.6036 120.392 54.0595L119.379 56.1875Z" fill="#2D5328"/>
<path d="M129.765 59.6327V58.0621C129.765 57.0488 129.512 56.2888 129.005 55.7821C128.498 55.2755 127.84 55.0222 126.979 55.0222C126.117 55.0222 125.408 55.2755 124.952 55.7821C124.445 56.2888 124.192 57.0488 124.192 58.0621V59.6327H129.765ZM126.979 52.5902C128.093 52.5902 129.106 52.7929 129.917 53.2489C130.778 53.7049 131.386 54.3635 131.893 55.2248C132.349 56.0861 132.602 57.1501 132.602 58.366V65.0538H129.765V62.1153H124.192V65.0538H121.405V58.366C121.405 57.1501 121.659 56.0861 122.115 55.2248C122.571 54.3635 123.229 53.7049 124.091 53.2489C124.851 52.7929 125.864 52.5902 126.979 52.5902Z" fill="#2D5328"/>
<path d="M114.768 74.5788C115.731 74.5788 116.237 74.9842 116.237 75.8455C116.237 76.6561 115.731 77.1121 114.92 77.1121H114.312V74.5788H114.768ZM114.312 77.8214H114.971C115.579 77.8214 116.136 77.6187 116.491 77.2641C116.845 76.9094 117.099 76.4028 117.099 75.8455C117.099 75.2375 116.896 74.7815 116.491 74.4268C116.085 74.0722 115.528 73.8695 114.819 73.8695H113.552V79.8987H114.312V77.8214Z" fill="#113D23"/>
<path d="M107.422 79.2907C106.003 79.2907 105.142 78.2267 105.142 76.8588C105.142 75.3895 106.105 74.4269 107.422 74.4269C108.739 74.4269 109.752 75.4402 109.752 76.8588C109.752 78.2267 108.84 79.2907 107.422 79.2907ZM107.422 80C109.246 80 110.563 78.6827 110.563 76.8588C110.563 75.0348 109.246 73.7176 107.422 73.7176C105.598 73.7176 104.281 75.0348 104.281 76.8588C104.331 78.6827 105.649 80 107.422 80Z" fill="#113D23"/>
<path d="M99.9234 74.5788C101.95 74.5788 101.849 77.1121 100.025 77.1121H99.4167V74.5788H99.9234ZM99.4167 77.8214H100.075C100.683 77.8214 101.241 77.6187 101.595 77.2641C102.355 76.5548 102.406 75.1362 101.595 74.4268C101.19 74.0722 100.633 73.8695 99.9234 73.8695H98.6567V79.8987H99.4167V77.8214Z" fill="#113D23"/>
<path d="M78.0868 79.2907C76.6682 79.2907 75.8069 78.2267 75.8069 76.8588C75.8069 75.3895 76.7695 74.4269 78.0868 74.4269C79.4041 74.4269 80.4174 75.4402 80.4174 76.8588C80.3667 78.2267 79.4547 79.2907 78.0868 79.2907ZM78.0868 80C79.9107 80 81.228 78.6827 81.228 76.8588C81.228 75.0348 79.9107 73.7176 78.0868 73.7176C76.2628 73.7176 74.9456 75.0348 74.9456 76.8588C74.9456 78.6827 76.2628 80 78.0868 80Z" fill="#113D23"/>
<path d="M121.861 74.5788H123.381V73.8695H119.531V74.5788H121.051V79.8987H121.861V74.5788Z" fill="#113D23"/>
<path d="M72.3617 79.1894H69.9804V77.1628H72.3617V76.4534H69.9804V74.5788H72.3617V73.8695H69.2205V79.8987H72.3617V79.1894Z" fill="#113D23"/>
<path d="M93.2357 77.4161C93.6916 76.2508 94.2996 74.9842 94.8569 73.8695H95.7182L92.8303 79.8987H92.0197L92.7797 78.2267L90.6011 73.8695H91.513C92.0704 75.0348 92.6783 76.2508 93.2357 77.4161Z" fill="#113D23"/>
<path d="M85.4332 76.8588L88.2197 79.848H87.1051C86.2945 78.9361 85.4838 78.0748 84.6732 77.1628C84.6732 78.0748 84.6732 78.9361 84.6732 79.848H83.8625V73.8189H84.6732C84.6732 74.7309 84.6732 75.6935 84.6732 76.6055L87.1051 73.8189H88.1184L85.4332 76.8588Z" fill="#113D23"/>
<path d="M64.0019 74.5788H66.0285V73.8695H63.1913V79.8987H64.0019V74.5788Z" fill="#113D23"/>
<defs>
<linearGradient id="paint0_linear_198_2565" x1="92.6178" y1="0" x2="92.6178" y2="35.3084" gradientUnits="userSpaceOnUse">
<stop stop-color="#8A74B2"/>
<stop offset="1" stop-color="#605294"/>
</linearGradient>
<linearGradient id="paint1_linear_198_2565" x1="92.0602" y1="40.5958" x2="91.9994" y2="0.0283667" gradientUnits="userSpaceOnUse">
<stop stop-color="#E31F25"/>
<stop offset="1" stop-color="#F39425"/>
</linearGradient>
</defs>
</svg>
