<svg width="1921" height="363" viewBox="0 0 1921 363" fill="none" xmlns="http://www.w3.org/2000/svg">
<path d="M1917.05 311.664C1914.96 310.466 1912.62 309.763 1910.22 309.607C1891.75 308.961 1873.33 307.163 1855.09 304.226C1851.42 303.675 1847.75 303.142 1844.26 302.389C1839.34 301.195 1834.46 299.836 1829.58 298.348C1823.96 296.604 1818.44 294.51 1812.8 292.839C1806.36 290.892 1799.96 289.018 1793.37 287.457C1787.4 286.025 1781.2 285.455 1775.29 283.784C1765.92 281.215 1756.78 277.854 1747.98 273.737C1736.11 267.878 1724.67 261.163 1713.77 253.645C1706.24 248.897 1698.1 245.19 1689.58 242.625C1683.08 240.662 1676.9 237.76 1671.23 234.011C1667.83 231.48 1664.17 229.301 1660.33 227.509C1652.05 223.983 1643.08 223.414 1634.23 222.385C1625.39 221.357 1616.06 220.181 1607.05 218.712C1597.47 217.077 1588 214.8 1578.42 213.073C1567.78 211.145 1557.09 209.547 1546.43 207.765C1537.9 206.333 1529.33 205.102 1520.89 203.229C1515.03 202.012 1509.33 200.165 1503.87 197.719C1496.05 194.046 1488.66 189.509 1481.06 185.358C1468.28 178.599 1455.05 172.72 1441.47 167.763C1436.9 165.927 1432.3 164.09 1427.84 162.253C1419.54 158.801 1412.86 153.07 1406.25 147.138C1404.98 146.126 1403.94 144.847 1403.21 143.391C1402.48 141.934 1402.08 140.336 1402.03 138.708C1402.06 138.162 1401.98 137.617 1401.78 137.107C1401.59 136.597 1401.29 136.133 1400.9 135.747C1400.51 135.361 1400.05 135.06 1399.54 134.865C1399.03 134.669 1398.49 134.583 1397.94 134.612C1396.36 134.582 1394.78 134.718 1393.22 135.016C1389.79 135.622 1386.38 136.265 1382.96 137.018C1377.46 138.212 1371.95 139.479 1366.45 140.691C1361.84 141.775 1357.27 143.501 1352.63 143.887C1344.09 144.603 1335.49 144.622 1326.93 144.732C1325.6 144.784 1324.27 144.548 1323.03 144.041C1321.79 143.534 1320.68 142.768 1319.76 141.793C1318.51 140.558 1316.94 139.709 1315.23 139.351C1311.55 138.634 1307.88 138.414 1304.09 137.9C1299.83 137.33 1295.51 136.89 1291.33 135.916C1288.59 135.199 1285.97 134.112 1283.53 132.684C1279.62 130.535 1275.2 128.717 1272.19 125.594C1265.54 118.725 1258.88 112.15 1250.29 107.613C1243.91 104.234 1238.13 99.7159 1231.74 96.3548C1225.35 92.9938 1218.32 90.1654 1211.55 87.4104C1206.87 85.4849 1202.07 83.8654 1197.18 82.5618C1191.33 81.0374 1185.36 79.8987 1179.38 78.8885C1172.04 77.6763 1164.7 77.0518 1157.36 75.7478C1152.71 74.9581 1147.85 74.554 1143.76 71.8909C1134.89 66.3075 1125.36 61.8703 1115.38 58.6855C1109.7 56.8738 1104.17 54.5883 1098.87 51.8531C1093.39 48.7062 1088.1 45.2414 1083.03 41.4762C1073.88 34.9524 1064.03 29.4756 1053.66 25.1485C1047.72 22.7241 1042.32 19.4916 1038.65 14C1035.38 9.13295 1030.61 7.29625 1025.05 6.81872C1023.22 6.67179 1021.38 6.46981 1019.55 6.17594C1010.75 4.79847 1001.98 3.21897 993.173 2.06189C986.804 1.21704 980.326 1.1436 973.994 0.372216C963.351 -0.863338 952.578 0.99197 942.96 5.71678C934.83 9.50026 926.534 13.0633 918.331 16.5897C912.311 19.2344 906.089 21.4751 900.363 24.6341C889.957 30.3828 879.753 36.554 869.641 42.8169C860.648 48.3268 851.876 54.2408 843.048 60.063C836.092 64.6362 829.302 69.4665 822.31 73.9846C812.748 80.1924 802.984 86.0881 793.459 92.351C788.339 95.7488 783.714 99.8812 778.612 103.371C772.561 107.346 766.03 110.537 759.176 112.866C753.274 114.849 747.023 115.574 740.824 114.997C740.155 114.943 739.517 114.694 738.988 114.28C734.18 110.295 728.179 108.936 722.471 107.724C714.029 105.887 705.348 105.299 696.777 104.05C692.997 103.499 689.216 102.893 685.509 101.975C680.443 100.726 675.415 99.2752 670.441 97.6773C666.771 96.5018 663.1 94.9958 659.54 93.5265C656.769 92.4061 654.034 91.1388 651.336 89.8532C646.124 87.5207 640.82 85.3535 635.718 82.7822C630.212 80.0089 624.706 78.1354 618.448 79.7517C616.807 80.0186 615.127 79.9183 613.53 79.4579C609.143 78.5395 604.941 78.411 601.16 81.3863C600.687 81.7241 600.159 81.9787 599.6 82.1393C589.41 85.1536 580.259 90.9472 573.172 98.8711C571.484 100.419 569.541 101.662 567.428 102.544C565.747 103.244 564.032 103.857 562.289 104.381C554.824 107.301 546.728 108.225 538.798 107.062C533.044 106.213 527.208 106.059 521.418 106.603C515.466 107.652 509.61 109.187 503.909 111.195C501.182 112.131 498.277 112.433 495.416 112.08C492.554 111.727 489.81 110.727 487.392 109.156C483.831 106.934 479.537 105.924 476.766 102.379C476.307 101.791 475.151 101.644 474.27 101.516C470.801 100.983 468.434 103.353 466.103 105.189C461.676 108.587 456.811 111.373 451.641 113.472C445.621 116.062 439.565 118.652 433.82 121.792C425.433 126.347 417.468 131.729 408.989 136.118C404.328 138.506 399.006 139.626 393.94 141.187C389.444 142.583 384.672 143.299 380.414 145.191C376.363 147.313 372.474 149.732 368.779 152.427C356.207 160.398 343.58 168.296 331.027 176.304C327.962 178.269 325.375 181.024 322.218 182.824C313.996 187.526 305.591 192.007 297.258 196.415C290.298 200.289 283.109 203.736 275.731 206.737C267.325 209.988 259.47 214.671 251.413 218.822C244.641 222.312 238.218 226.609 230.179 226.903C227.767 227.02 225.383 227.472 223.095 228.244C219.703 229.316 216.396 230.642 213.203 232.211C207.514 235.131 202.082 238.566 196.355 241.394C188.482 245.343 180.499 249.053 172.497 252.653C166.22 255.463 159.797 257.942 153.465 260.606C148.951 262.442 144.399 264.279 140.031 266.483C136.709 268.154 133.773 270.615 130.469 272.342C124.964 275.243 119.311 277.852 113.677 280.551C109.786 282.388 105.822 284.078 101.858 285.767C97.5815 287.604 93.2869 289.294 89.0108 291.075C85.4871 292.545 82.0551 294.216 78.4764 295.465C75.5216 296.512 72.3649 296.971 69.3 297.926C65.3542 299.175 61.5001 300.754 57.5543 301.967C55.4254 302.609 53.0212 302.444 50.9474 303.197C45.3315 305.218 39.8073 307.55 34.2465 309.736C31.2997 311.175 28.2283 312.343 25.0701 313.225C17.9309 314.584 10.8652 316.898 3.41399 315.888C2.91282 315.827 2.40597 315.944 1.98249 316.219C1.29297 316.838 0.643224 317.501 0.0371094 318.203C1.0677 318.319 2.10812 318.319 3.13871 318.203C9.90881 318.636 16.7061 318.104 23.3266 316.623C24.4759 316.459 25.6109 316.207 26.7219 315.87C31.255 314.033 35.7881 312.197 40.2845 310.213C45.9371 307.77 51.5714 305.309 57.8847 305.107C58.8763 305.006 59.8508 304.777 60.7844 304.428C66.2902 302.591 71.9795 300.754 77.522 298.918C81.4311 297.577 85.2852 296.071 89.1025 294.528C92.4794 293.169 95.7646 291.553 99.1415 290.194C102.518 288.835 105.583 288.045 108.685 286.667C113.31 284.592 117.861 282.278 122.358 280C127.68 277.301 133.131 274.766 138.233 271.68C143.361 268.59 148.822 266.088 154.511 264.224C159.448 262.589 164.348 260.734 169.194 258.714C174.828 256.253 180.297 253.424 185.839 250.761C192.887 247.4 200.136 244.388 206.927 240.568C213.717 236.748 220.287 232.119 228.509 231.385C231.169 231.327 233.804 230.869 236.328 230.025C242.219 227.601 247.981 224.791 253.689 221.963C259.727 218.951 265.563 215.571 271.638 212.669C276.502 210.337 281.677 208.684 286.54 206.388C290.762 204.423 294.744 201.98 298.837 199.739C307.371 195.093 315.996 190.556 324.439 185.744C328.458 183.448 332.128 180.528 336.056 178.049C344.627 172.539 353.271 167.249 361.878 161.868L371.55 155.789C371.109 161.298 371.073 161.298 368.375 165.155C366.697 167.434 365.17 169.821 363.805 172.3C363.365 173.145 363.805 174.485 363.915 175.587C364.961 175.22 366.026 174.89 367.054 174.467C367.329 174.357 367.494 173.971 367.696 173.714C371.366 168.443 374.908 163.117 378.707 157.919C379.966 156.041 381.479 154.347 383.204 152.887C386.195 150.554 389.444 148.57 392.637 146.532C393.566 145.999 394.559 145.585 395.592 145.301C398.437 144.456 401.318 143.703 404.181 142.859C406.016 142.289 407.851 141.61 410.347 140.783C410.111 141.654 409.829 142.513 409.503 143.354C407.833 146.789 406.292 150.279 404.383 153.585C401.465 158.69 398.308 163.686 395.207 168.7C393.71 171.38 392.056 173.968 390.251 176.451C386.929 180.62 383.277 184.532 379.809 188.573C378.137 190.432 376.568 192.381 375.11 194.413C374.633 195.129 374.817 196.25 374.707 197.278C375.708 197.401 376.723 197.333 377.698 197.076C378.748 196.394 379.668 195.529 380.414 194.523C385.044 189.391 389.411 184.027 393.5 178.453C399.629 169.361 405.08 159.811 410.843 150.462C412.883 146.736 415.525 143.372 418.661 140.508C421.818 137.9 425.397 135.53 427.159 131.508C427.36 131.031 427.984 130.737 428.425 130.369C434.646 125.3 442.281 122.839 449.237 119.129C451.729 117.95 454.284 116.908 456.89 116.007L457.294 116.521L455.605 118.358C454.174 119.992 452.669 121.554 451.366 123.28C451.164 123.611 451.045 123.986 451.02 124.373C450.994 124.76 451.063 125.148 451.219 125.502C451.561 125.762 451.952 125.95 452.368 126.054C452.784 126.158 453.218 126.176 453.641 126.108C454.439 125.886 455.145 125.416 455.66 124.768C458.193 122.013 460.56 119.111 463.148 116.448C464.488 115.089 464.726 114.042 462.818 112.774C466.066 110.46 469.076 108.348 471.994 106.181C473.352 105.152 474.288 105.575 475.481 106.567C477.461 108.187 479.538 109.684 481.703 111.048C482.937 111.749 484.218 112.363 485.538 112.885C487.117 113.601 487.172 114.299 485.905 115.64C484.109 117.693 482.436 119.852 480.895 122.105C479.922 123.445 479.17 124.951 478.142 126.255C473.279 132.353 467.718 137.936 464.506 145.21C464.31 145.693 464.229 146.215 464.271 146.735C464.312 147.255 464.474 147.757 464.745 148.203C465.993 149.195 466.855 148.203 467.589 146.954C470.36 141.72 473.975 136.978 478.289 132.922C480.515 131.025 482.595 128.962 484.511 126.751C485.725 125.205 486.674 123.467 487.319 121.609C488.089 119.515 491.081 116.301 493.063 116.209C497.559 116.025 502.056 115.97 506.607 115.86C505.8 117.072 504.772 118.486 503.909 119.974C503.634 120.47 503.469 121.48 503.744 121.811C504.003 122.048 504.313 122.223 504.651 122.322C504.988 122.421 505.343 122.441 505.689 122.38C506.638 122.1 507.502 121.589 508.204 120.892C510.278 118.835 512.186 116.631 514.224 114.538C515.047 113.804 515.911 113.117 516.811 112.481C517.079 113.846 517.022 115.256 516.646 116.596C516.27 117.935 515.585 119.168 514.646 120.194C512.81 122.545 510.975 124.933 509.36 127.449C508.846 128.239 509.103 129.506 509.011 130.553C510.039 130.369 511.471 130.553 512.04 129.947C515.71 125.888 519.381 121.645 523.051 117.476C523.218 117.284 523.343 117.059 523.418 116.815C525.253 111.305 531.457 109.322 536.852 111.305C538.521 111.818 540.247 112.121 541.991 112.205C550.91 112.921 559.298 110.626 567.575 107.577C571.864 105.975 575.721 103.397 578.843 100.047C581.601 97.3913 584.493 94.8781 587.506 92.5163C588.735 91.4878 589.653 91.8368 589.983 93.4347C590.314 95.0325 590.497 96.3917 590.901 97.8243C591.745 100.91 592.865 103.922 593.525 107.007C594.648 111.618 595.458 116.3 595.948 121.021C596.333 124.81 596.029 128.637 595.049 132.316C593.363 136.902 591.358 141.364 589.047 145.669C587.818 148.277 586.423 150.83 585.377 153.529C584.771 155.054 584.845 156.909 586.698 157.588C588.552 158.268 589.69 156.523 590.369 155.091C592.828 150.462 595.195 145.779 597.581 141.114C601.164 134.547 602.357 126.938 600.958 119.588C599.545 112.242 598.15 105.061 597.067 97.7507C596.576 95.3897 596.819 92.9347 597.765 90.7165C599.343 88.3691 601.378 86.364 603.748 84.8208C605.212 83.8671 606.865 83.2406 608.593 82.9842C609.06 82.8878 609.543 82.9007 610.005 83.0217C610.466 83.1428 610.894 83.3688 611.254 83.6821C611.639 84.2331 611.144 85.5187 610.924 86.4003C610.134 89.5042 609.217 92.5714 608.538 95.7121C608.55 96.0888 608.66 96.456 608.856 96.7778C609.052 97.0996 609.328 97.3652 609.657 97.5487C610.046 97.5552 610.431 97.4705 610.782 97.3015C611.132 97.1325 611.439 96.8838 611.676 96.5753C612.515 95.2404 613.269 93.8541 613.933 92.4245C617.934 84.7106 623.697 81.6802 630.965 85.078C636.471 87.6309 641.976 90.3858 647.629 92.8653C653.685 95.5652 659.742 98.3752 665.982 100.561C672.222 102.746 679.012 104.436 685.509 106.383C686.151 106.585 687.179 107.43 687.087 107.742C685.949 112.334 689.051 114.538 691.896 117.091C695.566 120.36 699.053 123.849 702.522 127.321C703.167 128.136 703.703 129.031 704.118 129.984L703.531 130.351C703.036 129.965 702.503 129.598 702.026 129.176C698.686 126.145 695.291 123.188 692.024 119.992C687.858 116.025 683.82 111.948 679.673 107.981C679.251 107.558 678.443 107.522 677.837 107.301C677.711 107.985 677.656 108.681 677.672 109.377C677.672 109.817 678.204 110.203 678.553 110.552C684.316 116.356 690.085 122.154 695.86 127.945L699.75 131.839L699.292 132.28C697.016 130.443 694.648 128.772 692.464 126.862C684.756 120.121 677.103 113.289 669.377 106.548C668.524 106.063 667.592 105.733 666.624 105.575C666.459 105.887 666.294 106.199 666.11 106.512L678.296 119.607C677.337 119.439 676.435 119.035 675.672 118.431C670.918 114.923 666.312 111.177 661.375 107.926C657.668 105.593 653.791 103.542 649.776 101.791C644.27 99.2384 638.599 97.0712 633.13 94.4448C630.97 93.1897 628.881 91.8162 626.872 90.3307C626.272 89.9449 625.593 89.6974 624.886 89.6065C624.178 89.5155 623.459 89.5833 622.781 89.8049C622.103 90.0264 621.482 90.3962 620.965 90.8874C620.447 91.3786 620.045 91.979 619.788 92.6449C620.192 92.6449 620.687 93.0306 620.908 92.8837C624.284 90.8818 626.707 92.6082 629.129 94.8121C634.323 99.5139 640.893 101.553 647.207 104.142C650.863 105.478 654.379 107.17 657.705 109.193C663.045 112.719 668.037 116.778 673.176 120.617C679.397 125.245 685.601 129.8 690.574 135.935C697.2 143.999 705.296 150.73 714.433 155.77C725.664 161.996 731.464 171.639 733.519 183.797C734.676 190.685 735.355 197.682 735.868 204.661C736.091 211.654 737.423 218.566 739.814 225.14C742.677 232.027 742.787 239.098 742.659 246.243C742.659 251.404 742.017 256.565 741.576 261.707C741.115 266.499 742.551 271.281 745.577 275.023C748.917 279.284 752.239 283.563 755.653 287.751C759.488 292.453 763.434 297.081 767.325 301.746C768.922 303.583 770.518 305.603 772.097 307.55C779.676 316.88 788.614 324.576 800.066 328.561C803.608 329.792 806.178 331.481 807.407 335.191C808.031 336.657 808.942 337.982 810.086 339.09C811.23 340.197 812.585 341.063 814.069 341.638C814.84 342.024 816.033 341.528 817.042 341.418C816.751 340.656 816.336 339.949 815.813 339.324C813.165 337.523 811.221 334.863 810.307 331.794C809.953 330.154 809.191 328.63 808.09 327.365C806.989 326.099 805.586 325.133 804.012 324.557C800.335 323.293 796.778 321.701 793.386 319.8C789.948 317.468 786.645 314.941 783.494 312.233C786.981 309.717 787.164 309.019 784.888 305.732C783.622 303.895 782.007 302.279 780.576 300.552C779.86 299.689 779.199 298.716 778.502 297.834C781.089 296.383 781.218 295.649 779.438 293.61C779.102 293.24 778.734 292.902 778.337 292.6C773.179 288.504 767.967 284.482 762.884 280.313C761.386 278.892 759.988 277.371 758.699 275.758L759.268 275.225C761.507 277.062 763.728 278.898 766.022 280.735C767.788 282.117 769.626 283.405 771.528 284.592C772.005 284.886 772.849 284.592 773.528 284.592C773.381 283.912 773.528 283.012 773.069 282.59C771.909 281.5 770.683 280.482 769.399 279.541C766.258 277.363 763.272 274.969 760.461 272.378C756.332 268.026 752.845 263.195 748.807 258.659C745.981 255.555 746.752 252.359 747.559 248.41C749.394 251.037 750.844 253.296 752.478 255.445C754.772 258.402 757.121 261.34 759.599 264.15C760.021 264.628 761.177 264.462 762.003 264.609C761.893 263.801 762.003 262.773 761.636 262.222C758.846 258.549 756.001 254.985 753.065 251.477C749.394 247.216 745.999 243.029 747.247 236.784C747.35 235.466 747.288 234.139 747.064 232.836L747.724 232.689C748.44 233.791 749.211 234.837 749.872 235.976C753.12 241.486 756.295 246.996 759.654 252.506C760.167 253.351 761.489 253.663 762.553 254.214C762.7 253.122 762.637 252.013 762.37 250.945C760.975 248.08 759.286 245.435 757.708 242.551C758.53 243.12 759.321 243.733 760.076 244.388C760.846 244.716 761.664 244.921 762.498 244.994C762.561 244.176 762.467 243.353 762.223 242.57C756.901 233.24 751.523 223.94 746.091 214.671C744.916 212.688 743.834 210.263 742.017 209.161C741.322 208.75 740.773 208.134 740.444 207.397C740.115 206.66 740.023 205.839 740.181 205.047C740.181 203.413 740.181 201.796 740.181 200.162C741.778 201.998 742.751 204.202 744.091 206.057C747.119 210.208 750.294 214.249 753.56 218.234C753.964 218.73 755.231 218.546 756.111 218.675C756.052 217.763 755.835 216.868 755.469 216.03C754.491 214.803 753.43 213.643 752.294 212.559C754.753 211.292 754.625 211.328 753.872 208.886C753.597 208.023 754.111 206.939 754.258 205.947C754.405 204.955 754.937 203.688 754.515 203.082C750.367 197.058 746.274 190.96 741.668 185.267C737.823 180.645 734.928 175.308 733.152 169.563C734.015 170.39 734.455 170.739 734.822 171.161C740.145 177.479 745.393 183.834 750.789 190.079C751.93 191.106 753.194 191.988 754.552 192.705C756.001 190.574 754.056 189.436 753.047 188.26C746.825 181.079 740.475 173.99 734.198 166.845C733.668 166.15 733.196 165.413 732.785 164.641C733.428 164.458 733.703 164.513 733.85 164.641C738.052 169.49 742.237 174.357 746.44 179.187C748.275 181.336 750.11 183.485 752.202 185.432C752.661 185.891 753.927 185.432 754.808 185.432C754.855 184.604 754.742 183.775 754.478 182.989C753.826 182.065 753.076 181.215 752.239 180.455C754.313 177.718 754.295 177.7 751.725 175.294C751.083 174.688 750.055 173.622 750.239 173.163C751.34 170.243 749.082 168.902 747.724 167.157C742.732 160.803 737.722 154.466 732.693 148.148C731.244 146.311 729.794 144.475 728.381 142.638C728.005 142.086 727.668 141.509 727.371 140.912L727.958 140.416C728.564 141.004 729.206 141.555 729.794 142.253C731.868 144.438 733.886 146.66 735.997 148.791C736.565 149.396 737.27 149.855 738.052 150.132C738.362 150.23 738.691 150.251 739.011 150.193C739.331 150.136 739.632 150.001 739.888 149.801C740.145 149.507 739.888 148.534 739.631 148.075C739.005 147.185 738.305 146.349 737.539 145.577C731.189 138.634 724.912 131.618 718.433 124.786C715.057 121.26 711.331 118.082 707.716 114.776C707.422 114.501 706.871 114.519 706.449 114.409C706.321 114.923 705.917 115.621 706.101 115.952C706.758 117.011 707.521 118.002 708.376 118.909C713.698 124.768 719.076 130.571 724.361 136.467C724.901 137.267 725.258 138.177 725.408 139.13C725.506 140.471 725.803 141.789 726.288 143.042C728.527 146.55 731.042 149.875 733.446 153.254L738.713 160.601C738.406 160.626 738.097 160.583 737.808 160.475C737.52 160.367 737.258 160.197 737.043 159.976C732.987 155.899 728.876 151.858 724.93 147.671C724.325 147.009 724.398 145.687 724.215 144.659C724.031 143.63 724.215 142.289 723.701 141.628C721.134 138.578 718.394 135.678 715.497 132.941C712.395 130.057 708.982 127.431 705.733 124.749C705.281 124.26 704.881 123.724 704.541 123.151C706.195 124.004 707.742 125.053 709.147 126.274C709.643 126.659 710.468 126.586 711.166 126.715C711.166 126.035 711.386 125.209 711.166 124.676C710.626 123.555 709.864 122.555 708.927 121.737C704.999 118.652 700.943 115.75 696.998 112.719C695.291 111.415 693.749 109.928 692.116 108.514L692.556 107.834C693.529 107.834 694.502 107.962 695.474 108.109C701.714 109.046 707.936 110.405 714.231 110.864C720.953 111.498 727.515 113.288 733.629 116.154C736.639 117.476 739.135 119.607 742.806 119.625C748.131 119.85 753.458 119.23 758.589 117.789C767.039 115.226 775.03 111.339 782.264 106.273C789.972 100.763 797.497 94.904 805.388 89.743C817.042 81.9924 828.99 74.7193 840.717 67.1156C849.894 61.1282 859.07 54.902 868.136 48.7492C870.632 47.0962 873.22 45.5535 875.752 43.9556L876.578 44.7086C873.972 49.19 871.605 53.8919 868.723 58.1161C863.844 65.7676 858.563 73.155 852.903 80.2476C843.98 90.2991 833.909 99.2681 822.897 106.971C808.367 117.859 793.158 127.809 777.364 136.761C774.186 138.585 771.155 140.655 768.298 142.95C767.965 143.405 767.751 143.935 767.674 144.493C767.597 145.05 767.66 145.619 767.857 146.146C768.536 147.579 769.894 147.101 771.032 146.275C772.537 145.228 774.024 144.163 775.584 143.226C784.87 137.716 794.579 132.72 803.388 126.494C816.584 117.201 829.339 107.228 841.929 97.1079C851.466 89.228 859.639 79.8266 866.117 69.2828C872.773 58.5959 880.325 48.4947 888.691 39.0885C889.137 38.6038 889.643 38.1779 890.196 37.8212C892.857 35.9846 895.592 34.2581 898.179 32.3113C900.18 30.842 901.85 28.638 903.96 27.6279C913.137 23.3485 922.662 19.3814 932.04 15.3408C932.922 15.0257 933.823 14.768 934.738 14.5694C934.964 15.5957 935.093 16.6411 935.123 17.6917C935.123 18.3896 934.481 19.0324 934.316 19.7303C934.038 21.0146 933.842 22.315 933.728 23.624C933.637 24.4321 934.004 25.3321 933.728 26.0668C932.809 29.4148 931.7 32.7077 930.407 35.9295C928.482 40.595 926.219 45.113 923.634 49.4471C920.955 53.7265 917.431 57.4732 914.458 61.6057C913.871 62.4505 914.22 63.975 914.128 65.1871C915.192 65.0035 916.495 65.1871 917.248 64.5626C918.933 63.2099 920.471 61.6832 921.836 60.0078C926.887 53.9897 930.884 47.1587 933.655 39.8048C935.49 34.8642 937.124 29.8135 939.051 24.9097C940.482 21.2364 941.492 17.3979 944.557 14.7164C947.622 12.0349 950.797 9.46355 953.953 6.89226C954.412 6.52493 955.256 6.15763 955.678 6.34129C955.935 6.52938 956.143 6.77545 956.287 7.05951C956.43 7.34358 956.505 7.65751 956.504 7.97581C956.211 12.0348 955.752 16.0754 955.476 20.1344C955.588 20.9235 955.85 21.6841 956.247 22.3751C956.908 22.0261 957.936 21.8241 958.174 21.2914C959.752 17.6182 961.349 13.8164 962.597 9.95942C963.011 8.45415 963.922 7.13352 965.182 6.21294C966.441 5.29235 967.976 4.82611 969.535 4.89028C973.701 5.16577 977.867 5.42293 982.033 5.60659C985.428 5.75352 986.254 6.56169 986.235 10.0146C986.235 16.0387 986.015 22.0446 986.235 28.0504C986.273 29.0353 986.112 30.0177 985.762 30.9391C985.412 31.8604 984.88 32.7019 984.198 33.4133C979.702 38.6294 975.352 44.0107 970.966 49.337C969.388 51.1736 968.048 53.3959 966.323 55.1774C961.423 60.2649 956.357 65.2423 951.402 70.2747C950.411 71.2665 949.567 72.4602 950.833 73.7642C951.081 74.0234 951.381 74.2274 951.714 74.3627C952.046 74.498 952.403 74.5616 952.761 74.5495C953.12 74.5373 953.472 74.4498 953.794 74.2923C954.116 74.1349 954.402 73.911 954.632 73.6356C962.267 67.1707 969.204 60.1731 974.141 51.2654C977.176 46.3863 980.511 41.7001 984.125 37.2336C984.932 36.1499 985.777 35.0847 986.603 34.0194C987.203 34.9008 987.517 35.9463 987.502 37.0131C987.502 41.8434 987.08 46.7289 987.502 51.5226C988.032 56.6343 988.883 61.7074 990.053 66.7116C990.81 69.1794 991.723 71.5964 992.787 73.9479C993.356 75.5458 994.292 77.4008 992.053 78.5212C983.655 82.6317 976.137 88.3397 969.92 95.3263C963.019 103.15 953.403 107.485 944.795 112.811C937.179 117.476 929.361 121.792 922.9 128.037C921.13 129.675 919.739 131.681 918.826 133.914C916.512 140.3 912.517 145.941 907.264 150.242C902.676 154.099 897.904 157.735 893.077 161.262C886.269 166.312 879.441 171.4 872.412 176.175C864.282 181.685 856.06 187.085 847.636 192.117C843.142 194.634 838.468 196.813 833.651 198.637C829.118 200.474 824.475 201.888 819.814 203.615C811.335 206.798 802.88 210.024 794.45 213.294C791.128 214.579 787.88 216.067 784.65 217.573C784.173 217.793 783.971 218.657 783.64 219.226C784.375 219.226 785.219 219.685 785.843 219.465C789.238 218.216 792.56 216.728 795.973 215.498C801.039 213.661 806.178 211.971 811.243 210.135C815.776 208.5 820.272 206.737 824.787 205.084C830.018 203.247 835.285 201.411 840.479 199.409C843.158 198.38 845.691 196.984 848.572 195.625C848.15 197.903 847.691 199.739 847.508 201.613C847.508 202.311 848.022 203.064 848.297 203.798C848.979 203.465 849.641 203.091 850.279 202.678C850.617 202.424 850.857 202.06 850.958 201.649C851.527 197.572 854.922 195.184 856.776 191.878C857.222 190.828 857.892 189.887 858.74 189.123C866.796 183.779 874.908 178.526 883.002 173.273C883.685 172.949 884.398 172.691 885.131 172.502C884.281 173.873 883.556 175.317 882.965 176.818C882.745 177.589 883.295 178.655 883.479 179.444C884.286 179.206 885.314 179.187 885.828 178.673C886.613 177.713 887.313 176.687 887.92 175.606C890.233 172.355 892.435 169.031 894.986 166C895.592 165.266 897.39 165.504 898.657 165.284C898.872 166.189 899.007 167.111 899.06 168.039C899.06 168.847 898.601 169.655 898.546 170.463C898.57 171.35 898.693 172.231 898.914 173.09C899.721 172.612 900.877 172.337 901.299 171.62C902.282 169.979 903.07 168.228 903.649 166.404C904.289 164.984 904.512 163.41 904.291 161.868C903.336 159.021 904.695 157.478 906.512 155.862C909.123 153.775 911.577 151.497 913.853 149.048C916.681 145.899 919.092 142.399 921.028 138.634C922.864 134.649 924.883 131.031 928.553 128.625C935.637 123.978 942.758 119.331 949.989 114.905C959.018 109.395 968.47 104.418 975.683 96.3916C980.174 91.6843 985.301 87.6289 990.915 84.3433C991.5 84.0296 992.115 83.7773 992.751 83.5903L993.21 84.0495C991.796 86.8228 992.2 90.2389 989.429 92.6081C985.006 96.1449 980.836 99.9868 976.949 104.106C972.963 108.909 969.256 113.937 965.846 119.166C958.853 129.212 952.136 139.369 944.997 149.397C940.776 155.274 935.637 160.417 931.453 166.404C924.47 176.096 916.096 184.705 906.603 191.952C898.455 198.27 889.609 203.706 881.222 209.712C876.542 213.055 872.045 216.728 867.641 220.328C867.044 220.989 866.544 221.731 866.154 222.532C866.479 222.651 866.825 222.699 867.17 222.674C867.515 222.648 867.85 222.55 868.154 222.385C871.953 219.795 875.697 217.169 879.478 214.579C886.617 209.676 893.591 204.496 900.969 199.886C910.363 193.869 918.927 186.645 926.442 178.398C930.443 174.173 933.784 169.361 937.454 164.825C941.125 160.288 944.795 155.954 948.319 151.417C951.439 147.413 954.412 143.281 957.348 139.149C959.899 135.475 962.451 131.949 964.8 128.129C970.193 119.115 976.644 110.778 984.015 103.297C988.039 99.6255 991.868 95.7448 995.485 91.6714C996.329 90.6613 997.137 89.6144 997.944 88.5675C998.77 89.6879 999.614 90.7715 1000.39 91.9286C1002.92 95.2572 1004.45 99.2387 1004.81 103.408C1005.19 113.748 1005.21 124.088 1005.4 134.428C1005.31 135.1 1005.36 135.783 1005.57 136.429C1005.77 137.076 1006.12 137.669 1006.58 138.167C1007.03 138.665 1007.6 139.055 1008.23 139.311C1008.85 139.566 1009.53 139.68 1010.2 139.644C1012.65 139.861 1015.1 139.861 1017.55 139.644C1018.49 139.51 1019.46 139.607 1020.36 139.927C1021.26 140.247 1022.07 140.78 1022.72 141.481C1023.62 142.058 1024.62 142.457 1025.68 142.657C1025.51 141.701 1025.33 140.82 1025.18 139.791C1025.15 139.633 1025.15 139.472 1025.18 139.314C1028.85 138.542 1032.52 139.938 1032.72 142.675C1033.16 145.739 1032.99 148.859 1032.23 151.858C1030.39 158.139 1027.53 164.127 1025.71 170.427C1024.43 174.182 1024.62 178.285 1026.24 181.906C1029.96 189.03 1035.21 195.236 1041.62 200.07C1046.06 203.835 1049.74 208.41 1052.47 213.551C1052.97 215.12 1053.35 216.721 1053.63 218.344C1056.14 225.122 1058.88 231.807 1061.32 238.548C1063.35 244.241 1065.57 249.935 1064.8 256.234C1064.56 258.071 1064.8 260.091 1064.67 261.983C1064.47 263.635 1064.62 265.313 1065.13 266.899C1065.64 268.485 1066.48 269.941 1067.61 271.166C1071.18 275.411 1073.08 280.811 1072.95 286.355C1072.84 289.449 1073.18 292.544 1073.96 295.538C1075.92 301.212 1078.29 306.737 1081.05 312.068C1082.67 315.13 1085.3 317.535 1088.5 318.875C1091.69 320.214 1095.25 320.405 1098.57 319.415C1099.43 319.176 1100.04 317.964 1100.77 317.192C1099.93 316.917 1099.05 316.292 1098.26 316.403C1091.43 317.321 1087.87 315.374 1084.53 309.405C1079.91 300.885 1077.43 291.366 1077.3 281.672C1077.34 278.918 1076.53 276.219 1074.99 273.939C1072.79 271.465 1071.18 268.535 1070.25 265.359C1069.32 262.183 1069.11 258.841 1069.63 255.573C1069.64 254.494 1069.59 253.415 1069.48 252.341C1069.6 251.602 1069.78 250.876 1070.03 250.173C1073.41 254.361 1079.43 267.438 1079.21 270.101C1078.76 269.334 1078.25 268.603 1077.69 267.915C1077.12 267.435 1076.51 267.016 1075.85 266.666C1075.77 267.462 1075.83 268.266 1076.05 269.036C1078.44 273.242 1081.01 277.337 1083.39 281.562C1083.61 282.061 1083.72 282.598 1083.72 283.141C1083.72 283.684 1083.61 284.221 1083.39 284.721C1082.94 285.418 1082.71 286.24 1082.74 287.073C1082.78 287.906 1083.07 288.708 1083.58 289.367C1087.49 294.767 1091.27 300.24 1095.2 305.621C1097.21 308.376 1099.36 311.131 1101.56 313.629C1101.97 314.125 1102.96 314.125 1103.67 314.346C1103.67 313.501 1103.86 312.509 1103.44 311.884C1101.4 309.056 1099.12 306.375 1097.01 303.601C1093.53 299.022 1090.08 294.412 1086.68 289.771C1085.82 288.596 1085.3 287.42 1086.79 286.098C1087.38 285.565 1087.29 284.151 1087.29 283.141C1087.19 282.499 1086.98 281.878 1086.68 281.304C1090 285.547 1092.94 289.881 1096 294.161C1096.8 294.964 1097.69 295.661 1098.66 296.236L1099.4 295.593C1099.12 294.723 1098.77 293.881 1098.33 293.077C1096.13 289.753 1093.75 286.52 1091.6 283.159C1085.37 273.421 1080.04 263.144 1075.65 252.451C1074.75 250.247 1072.2 248.778 1070.4 246.941C1069.85 246.39 1068.99 245.968 1068.75 245.325C1066.71 239.686 1064.82 234.011 1062.84 228.372C1062.45 227.27 1061.87 226.224 1061.37 225.158L1062.09 224.626C1063.11 225.746 1064.2 226.811 1065.15 228.005C1066.55 229.842 1069.06 231.256 1066.84 234.103C1066.64 234.378 1066.84 235.095 1067.02 235.517C1067.52 236.831 1068.14 238.097 1068.86 239.3C1072.29 244.314 1075.78 249.273 1079.28 254.232C1079.76 254.964 1080.39 255.589 1081.12 256.069C1081.7 256.298 1082.33 256.411 1082.95 256.4C1082.95 255.72 1083.16 254.875 1082.83 254.379C1081.52 252.359 1080.05 250.431 1078.64 248.484C1075.7 244.443 1072.75 240.421 1069.87 236.344C1069.5 235.629 1069.23 234.87 1069.06 234.084L1069.83 233.644C1071.8 236.05 1073.89 238.4 1075.7 240.99C1078.68 245.123 1081.45 249.384 1084.39 253.534C1084.77 254.085 1085.67 254.269 1086.33 254.636C1086.47 253.81 1086.47 252.966 1086.33 252.139C1085.89 250.743 1085.1 249.457 1084.59 248.08C1084.21 246.403 1083.63 244.776 1082.88 243.231C1077.61 235.884 1072.2 228.538 1066.79 221.191C1066.23 220.584 1065.62 220.036 1064.95 219.557C1064.84 223.524 1068.13 225.544 1069.17 228.74C1067.34 227.252 1065.79 225.452 1064.12 223.836C1063.04 222.938 1061.9 222.115 1060.71 221.375L1060.12 221.889C1059.52 220.053 1058.91 218.216 1058.29 216.489C1057.86 214.374 1057.1 212.341 1056.03 210.465C1052.25 205.635 1048.14 201.043 1044.03 196.47C1040.36 192.466 1036.45 188.756 1032.89 184.679C1031.61 183.394 1030.65 181.823 1030.1 180.096C1029.54 178.368 1029.4 176.534 1029.69 174.743C1030.54 170.702 1031.82 166.753 1033.02 162.786C1034.36 158.341 1036.01 153.97 1037.11 149.471C1037.43 147.096 1037.48 144.694 1037.27 142.308C1038.23 143.725 1039.11 145.19 1039.92 146.697C1040.17 147.23 1039.92 148.019 1039.92 148.699C1039.92 149.801 1039.51 151.16 1039.92 151.968C1042.54 156.413 1045.42 160.711 1048.12 165.1C1049.74 167.69 1051.22 170.371 1052.75 172.998C1053.72 174.1 1054.75 175.147 1055.61 176.322C1057.08 178.324 1058.4 180.455 1059.87 182.475C1060.2 182.916 1060.95 183.044 1061.52 183.32C1061.7 182.667 1061.85 182.005 1061.96 181.336C1061.92 181.007 1061.8 180.692 1061.61 180.418C1059.96 176.873 1058.29 173.365 1056.67 169.802C1056.36 168.94 1056.12 168.056 1055.94 167.157L1056.62 166.808C1057.61 168.186 1058.45 169.637 1059.63 170.922C1060.18 171.392 1060.8 171.77 1061.46 172.043C1061.64 171.222 1061.67 170.377 1061.55 169.545C1061.14 168.626 1060.6 167.772 1059.94 167.01C1056.12 161.758 1052.42 156.413 1048.41 151.307C1044.41 146.201 1040.23 141.463 1036.08 136.504C1035.35 136.798 1034.61 137.385 1034.25 137.202C1032.36 136.535 1030.56 135.66 1028.87 134.594C1028.26 134.171 1028.3 132.757 1027.99 131.894C1027.8 131.349 1027.54 130.835 1027.2 130.369C1022.3 123.849 1017.34 117.366 1012.52 110.809C1011.27 109.066 1010.17 107.223 1009.23 105.299C1009.03 104.521 1008.97 103.711 1009.07 102.912C1010.33 103.58 1011.43 104.536 1012.26 105.703C1017.77 113.564 1023.16 121.443 1028.65 129.304C1029.4 130.4 1030.29 131.399 1031.29 132.28C1031.64 132.592 1032.48 132.28 1033.13 132.28C1033.24 131.672 1033.24 131.05 1033.13 130.443C1032.75 129.774 1032.29 129.157 1031.75 128.606C1030.81 127.517 1030.14 126.211 1029.82 124.805C1029.5 123.398 1029.54 121.935 1029.91 120.543C1032.56 124.639 1034.93 128.257 1037.4 132.077C1037.73 131.828 1038 131.514 1038.2 131.154C1038.4 130.795 1038.52 130.398 1038.56 129.99C1038.59 129.581 1038.55 129.168 1038.42 128.779C1038.29 128.389 1038.08 128.03 1037.81 127.725C1033.88 121.235 1029.96 114.746 1026.06 108.256C1025.66 107.558 1025.09 106.585 1025.29 105.979C1026.1 103.518 1024.65 102.012 1023.34 100.469C1020.65 97.0712 1017.84 93.7469 1015.29 90.2573C1009.16 81.9373 1003.16 73.5255 997.064 65.1871C996.807 64.8198 996.127 64.7647 995.632 64.5626C995.448 65.0585 994.99 65.7014 995.155 66.0687C995.799 67.4096 996.535 68.7046 997.357 69.9441C998.495 71.7807 999.688 73.4152 1001.03 75.3621C996.898 75.8212 991.301 63.5342 992.677 58.0059C993.048 58.1869 993.393 58.4153 993.705 58.6855C1000.64 67.1157 1007.63 75.4907 1014.44 84.0311C1018.11 88.5676 1021.38 93.3979 1024.79 98.1181C1028.46 103.242 1032.14 108.367 1035.81 113.546C1038.58 117.513 1041.31 121.554 1044.01 125.502C1044.34 125.98 1045.18 126.09 1045.84 126.366C1046.06 125.699 1046.17 125.007 1046.19 124.309C1046.19 123.776 1045.68 123.28 1045.39 122.784C1039.88 114.06 1034.37 105.373 1029.11 96.5753C1024.57 89.1002 1020.44 81.4047 1015.82 74.0214C1009.34 63.9024 1001.87 54.4525 993.521 45.8106C992.548 44.5552 991.899 43.0783 991.633 41.5114C991.367 39.9445 991.493 38.3361 991.998 36.8294C992.477 38.0262 993.054 39.1811 993.723 40.2823C1001.06 50.543 1008.5 60.7914 1016.02 71.0276C1017.53 73.103 1019.34 74.958 1020.78 77.0701C1023.91 81.6985 1026.83 86.4738 1029.95 91.1021C1030.86 92.5027 1032.03 93.7129 1033.4 94.6652C1034.21 95.1978 1035.6 94.8122 1036.72 94.8305C1036.72 93.7653 1037.13 92.4979 1036.72 91.6898C1035.82 90.377 1034.8 89.1476 1033.68 88.0166C1032.89 87.0064 1032.21 85.9045 1031.47 84.8392L1032.06 84.4535C1034.28 86.6942 1036.47 88.9532 1038.72 91.1205C1040.01 92.351 1041.64 92.8285 1042.96 91.4327C1044.28 90.0368 1043.17 88.843 1042.25 87.7594C1035.64 79.3109 1029.04 70.844 1022.45 62.3588C1021.06 60.6848 1019.84 58.8898 1018.77 56.9957C1015.36 50.4389 1012.48 43.5882 1008.7 37.2518C1004 29.4094 998.605 21.9711 993.466 14.3858C993.136 13.9083 992.329 13.7613 991.741 13.4491C991.741 14.2205 991.484 15.1571 991.741 15.7081C995.412 21.5853 999.082 27.4075 1002.75 33.2664C1004.22 35.6173 1005.67 38.0049 1007.14 40.3741L1006.48 40.7783C1003.96 37.6927 1001.45 34.6072 998.899 31.5951C997.449 29.8503 995.467 28.5279 995.577 25.7178C995.577 25.0933 993.448 23.6975 992.494 23.8812C990.934 24.1383 991.521 25.626 992.09 26.7279C992.56 27.7937 993.093 28.8302 993.687 29.8319C999.082 37.5457 1004.53 45.2229 1009.95 52.9184C1011.95 55.7836 1013.89 58.6854 1015.86 61.5873L1015.34 61.9363C1014.63 61.1465 1013.87 60.3935 1013.21 59.567C1007.29 52.2205 1001.27 44.8739 995.54 37.1968C993.301 34.2031 990.034 31.6869 989.906 27.4259C989.612 20.8507 989.208 14.2756 988.915 7.70039C988.915 7.25959 989.374 6.78207 989.612 6.32291C990.144 6.63514 990.86 6.80036 991.191 7.27788C993.026 9.84918 994.531 12.5307 996.274 15.1204C1000.24 20.9792 1004.31 26.7464 1008.2 32.642C1014.96 42.9271 1021.64 53.2612 1028.24 63.6443C1033.07 71.744 1038.7 79.3317 1045.06 86.2901C1045.71 87.0467 1046.46 87.7136 1047.29 88.2737C1048.73 89.1553 1049.57 88.4573 1049.61 86.9513C1049.58 86.1185 1049.32 85.3104 1048.85 84.6188C1047.35 82.323 1045.7 80.1374 1044.16 77.8416C1039.13 70.4032 1033.9 63.1485 1029.16 55.4346C1020.98 42.084 1011.77 29.3857 1001.63 17.4529C999.303 14.7347 997.1 11.943 994.879 9.09625C994.643 8.62713 994.476 8.12596 994.384 7.60858C994.924 7.5151 995.47 7.46593 996.017 7.46161C1001.52 8.08607 1007.03 8.63702 1012.37 9.48187C1014.09 9.71624 1015.7 10.4726 1016.98 11.6491C1019.9 14.7443 1022.61 18.0333 1025.09 21.4936C1034.72 34.9745 1044.21 48.5839 1053.83 62.0832C1056.87 66.3626 1060.1 70.495 1063.37 74.6091C1063.78 75.1417 1064.86 75.1417 1065.65 75.3805C1065.61 74.5592 1065.43 73.7507 1065.12 72.9929C1059.13 64.3607 1053.08 55.7835 1047.09 47.1513C1045.61 45.0392 1044.3 42.7985 1042.93 40.6129C1043.17 40.5864 1043.41 40.6273 1043.63 40.731C1043.85 40.8347 1044.04 40.9972 1044.17 41.2007C1049.85 48.2901 1055.5 55.4163 1061.21 62.4873C1062.16 63.7497 1063.31 64.8583 1064.6 65.7749C1065.3 66.234 1066.44 65.9218 1067.48 65.9769C1067.46 65.0051 1067.28 64.0432 1066.95 63.1301C1066.15 61.9682 1065.25 60.8803 1064.25 59.8792C1054.76 48.8594 1045.33 37.6744 1035.77 26.6729C1034.17 24.8363 1032.83 22.2649 1029.64 22.5955C1029.25 22.5955 1028.76 21.8792 1028.39 21.4568C1027.49 20.465 1026.67 19.4181 1025.79 18.4263C1023.71 16.0754 1021.62 13.7612 1019.44 11.3001C1026.12 10.2349 1033.95 13.3572 1034.98 17.5631L1031.18 15.0836L1030.61 15.6531C1030.98 16.2925 1031.39 16.9062 1031.84 17.4897C1034.89 21.016 1038.04 24.4505 1041.02 28.032C1045.55 33.5419 1049.92 39.0518 1054.42 44.5617C1058.01 48.9574 1061.68 53.2858 1065.43 57.5468C1065.98 58.1712 1067.26 58.2079 1068.14 58.5201C1067.94 57.6018 1067.78 56.6835 1067.52 55.7836C1067.37 55.4891 1067.17 55.2222 1066.93 54.9938L1044.91 28.3626C1044.12 27.4075 1043.37 26.379 1042.6 25.3872C1044.73 25.9602 1046.77 26.8386 1048.65 27.9952C1049.21 28.5026 1049.63 29.1313 1049.9 29.8319C1050.46 31.023 1051.12 32.1604 1051.88 33.2296C1058.71 40.87 1065.59 48.4615 1072.51 56.004C1073.21 56.4986 1073.98 56.8656 1074.81 57.0876C1074.81 56.1142 1075.26 54.8836 1074.81 54.2041C1073.12 51.2339 1071.12 48.4511 1068.84 45.9024C1064.38 41.421 1059.52 37.3437 1054.86 33.046C1054.21 32.4766 1053.68 31.7787 1052.64 30.6216C1053.43 30.6504 1054.23 30.7549 1055 30.9338C1057.63 31.986 1060.19 33.2132 1062.66 34.6071C1070.66 39.5048 1078.61 44.5555 1086.51 49.7593C1087.94 50.9681 1089.13 52.4317 1090.02 54.0755C1090.99 55.5816 1091.4 57.6018 1092.63 58.7773C1096.3 62.3036 1097.31 66.9319 1098.65 71.45C1100.3 77.0701 1101.86 82.727 1103.58 88.3471C1103.73 88.8247 1104.68 89.0818 1105.25 89.4308C1105.56 88.8484 1105.79 88.2318 1105.95 87.5942C1106.16 86.2746 1106.31 84.944 1106.37 83.6087C1106.48 82.3865 1106.48 81.1576 1106.37 79.9354C1106.15 79.0512 1105.88 78.1803 1105.56 77.3273C1104.52 73.0479 1103.45 68.7869 1102.55 64.4708C1102.35 63.5525 1102.44 62.0097 1103.03 61.5873C1103.57 61.1234 1104.19 60.7695 1104.86 60.5458C1105.53 60.322 1106.24 60.2328 1106.94 60.2834C1113.6 62.5792 1120.17 65.1687 1126.73 67.7768C1128.01 68.291 1129.62 68.6951 1129.4 70.8256C1129.12 72.7128 1129.12 74.632 1129.4 76.5192C1130.13 80.8165 1129.56 85.2311 1127.79 89.2104C1125.95 93.3703 1123.88 97.4289 1121.6 101.369C1119.46 105.428 1117.2 109.395 1115.18 113.509C1114.52 114.831 1112.96 116.852 1115.18 117.825C1117.02 118.67 1117.7 116.411 1118.37 115.07C1123.7 104.548 1129.83 94.4587 1136.73 84.8942C1137.5 83.8106 1138.18 82.7638 1140.14 83.2964C1142.69 83.9759 1146.07 82.0108 1147.48 79.3293L1141.98 80.3946C1143.92 78.5579 1145.19 78.0253 1147.34 78.5579C1152.84 79.7885 1158.62 80.5966 1164.27 81.5333C1168.09 82.1761 1171.91 82.7271 1175.82 83.3699C1173.5 85.745 1170.97 87.8915 1168.24 89.7798C1164.13 92.0939 1162.16 95.8039 1160.35 99.7159C1159.92 100.616 1160.35 101.883 1160.35 102.985C1161.38 102.764 1162.37 102.367 1163.27 101.81C1166.61 98.6874 1169.78 95.3998 1173.05 92.2224C1176.72 88.6593 1181.14 88.6777 1185.07 89.4858C1188.48 93.1591 1185.71 95.308 1183.69 97.5855C1183.58 97.6957 1183.43 97.8426 1183.43 97.9895C1183.43 99.1282 1183.43 100.249 1183.32 101.387C1184.28 100.947 1185.66 100.763 1186.13 100.01C1188.81 95.7672 1192.83 94.3529 1197.53 93.857C1199.59 93.7421 1201.58 93.1105 1203.33 92.0204C1204.04 91.4645 1204.91 91.1491 1205.82 91.1194C1206.72 91.0897 1207.61 91.3473 1208.36 91.8552C1209.04 92.149 1209.77 92.3511 1210.45 92.6449C1215.74 94.904 1221.46 96.1162 1225.37 101.167C1227.21 103.444 1226.88 104.693 1225.37 106.971C1223.68 104.932 1222.18 103.077 1220.6 101.295C1219.98 100.602 1219.27 99.9857 1218.51 99.4588C1218.36 99.4588 1217.53 99.8996 1217.55 99.9731C1217.75 100.816 1218.08 101.622 1218.53 102.361C1220.36 104.969 1222.49 107.522 1224.49 110.093C1223.72 109.931 1223.03 109.517 1222.53 108.918C1219.41 105.556 1216.32 102.159 1213.18 98.816C1212.71 98.4664 1212.17 98.1995 1211.61 98.0263C1211.46 98.7058 1211.06 99.4955 1211.26 100.028C1211.69 100.931 1212.26 101.762 1212.95 102.489C1215.07 105.061 1217.22 107.595 1219.35 110.185C1229.17 122.16 1239.15 134.061 1247.58 147.083C1248.94 149.195 1250.2 151.362 1251.73 153.346C1252.2 153.97 1253.36 154.099 1254.2 154.466C1254.44 153.598 1254.61 152.714 1254.72 151.821C1254.64 151.324 1254.44 150.856 1254.13 150.462C1252.97 148.626 1251.82 146.789 1250.62 144.952C1248.53 141.738 1246.4 138.542 1244.29 135.328C1247.96 138.973 1251.41 142.824 1254.64 146.862C1255.32 147.9 1256.29 148.717 1257.43 149.212C1258.57 149.708 1259.82 149.862 1261.05 149.654C1263.07 149.324 1263.67 148.607 1262.68 146.716C1262.04 145.467 1261.34 144.254 1260.66 143.042L1261.1 142.767L1267.32 148.277C1267.6 147.211 1267.86 146.771 1267.75 146.624C1257.32 133.914 1246.88 121.223 1236.42 108.55C1239.55 110.82 1242.54 113.273 1245.38 115.897C1254.07 124.29 1262.05 133.395 1269.23 143.116C1270.48 144.689 1271.84 146.163 1273.31 147.524C1273.67 147.891 1274.46 147.873 1275.05 148.02C1275.23 147.355 1275.32 146.67 1275.33 145.981C1275.33 145.54 1274.81 145.136 1274.52 144.732C1272.21 141.683 1269.91 138.616 1267.56 135.549C1260.09 125.888 1252.2 116.631 1241.87 109.836C1241.43 109.446 1241.03 109.009 1240.68 108.532C1242.28 109.032 1243.81 109.743 1245.23 110.644C1251.19 114.317 1257.63 117.201 1262.26 122.729C1267.49 129.147 1274.17 134.233 1281.75 137.569C1288.41 140.453 1295 143.354 1302.53 143.079C1305.11 143.074 1307.69 143.289 1310.23 143.722C1313.07 143.897 1315.77 145.023 1317.89 146.918C1320.23 148.785 1322.68 150.509 1325.23 152.079C1326.06 152.699 1326.8 153.442 1327.41 154.283C1327.76 154.935 1328.07 155.61 1328.33 156.303C1329.8 158.874 1331.41 161.372 1332.79 163.98C1333.47 165.284 1334.06 166.514 1335.73 165.817C1337.4 165.119 1337.12 163.686 1336.55 162.382C1335.63 160.252 1334.61 158.158 1333.61 156.046C1331.78 151.987 1332.95 150.37 1337.38 150.04C1344.72 149.489 1352.06 148.901 1359.4 147.634C1366.25 146.44 1372.93 144.31 1379.72 142.693C1380.1 142.676 1380.49 142.737 1380.85 142.873C1381.21 143.009 1381.55 143.216 1381.83 143.483C1386.21 147.267 1388.27 152.464 1390.05 157.754C1390.17 158.329 1390.17 158.923 1390.05 159.498C1388.43 159.921 1386.49 159.939 1386.25 160.582C1386.08 161.225 1386.05 161.897 1386.16 162.553C1386.27 163.208 1386.52 163.833 1386.89 164.384C1389.8 168.334 1393.01 172.055 1396.49 175.514C1398.72 177.722 1400.61 180.247 1402.11 183.008C1403.08 184.661 1403.94 186.369 1405.01 187.966C1405.52 188.482 1406.11 188.916 1406.75 189.252L1407.45 188.793C1407.21 187.827 1406.91 186.876 1406.55 185.946C1405.81 184.348 1404.99 182.806 1404.14 181.281C1401.89 177.112 1400.31 172.282 1397.13 169.012C1393.96 165.743 1394.22 161.666 1392.66 158.103C1392.27 157.09 1392.08 156.009 1392.12 154.925C1392.13 154.579 1392.21 154.239 1392.35 153.923C1392.49 153.608 1392.7 153.324 1392.95 153.089C1395.81 151.252 1396.42 149.636 1394.66 146.716C1393.46 144.769 1391.98 143.042 1390.31 140.71C1391.92 140.324 1393.3 139.92 1394.71 139.681C1396.71 139.351 1397.78 140.049 1397.94 142.326C1398.03 143.883 1398.58 145.378 1399.52 146.624C1404.57 152.85 1410.69 158.135 1417.58 162.235C1425.22 166.228 1433.06 169.832 1441.07 173.035C1448.08 176.047 1455.37 178.434 1462.25 181.722C1471.9 186.35 1481.46 191.272 1490.75 196.599C1497.21 200.272 1504.53 202.623 1510 207.967C1511.23 209.166 1512.23 210.579 1512.96 212.137C1515.4 217.793 1518.21 223.156 1523.47 226.738C1528.86 230.3 1533.03 235.427 1535.42 241.431C1535.7 242.074 1536.59 242.459 1537.26 242.955L1537.97 242.257C1536.38 235.958 1532.89 230.302 1527.97 226.058C1523.83 222.669 1520.6 218.301 1518.57 213.349C1518.04 211.697 1517.65 210 1517.42 208.28C1522.92 209.124 1528.01 209.859 1533.07 210.686C1538.14 211.512 1543.75 212.522 1549.07 213.367L1573.41 217.555C1578.02 218.344 1582.59 219.061 1587.21 219.869C1590.88 220.505 1594.55 221.203 1598.22 221.963C1604.72 223.322 1611.18 225.085 1617.75 226.04C1627.46 227.473 1637.26 228.354 1647.11 229.438C1654.6 230.194 1661.73 233.046 1667.67 237.666C1673.89 242.515 1681.18 245.012 1688.39 247.878C1694.5 249.985 1700.47 252.482 1706.27 255.353C1714.56 259.908 1722.25 265.564 1730.51 270.23C1738.04 274.481 1745.78 278.343 1753.71 281.8C1759.83 284.383 1766.11 286.555 1772.52 288.302C1778.83 290.139 1785.37 291.241 1791.72 292.673C1795.28 293.481 1798.87 294.143 1802.38 295.134C1806.36 296.255 1810.27 297.669 1814.22 298.973C1819.41 300.718 1824.53 302.646 1829.8 304.152C1837.65 306.258 1845.57 308.138 1853.55 309.791C1858.43 310.801 1863.42 311.26 1868.37 311.903C1875.07 312.784 1881.74 313.868 1888.45 314.346C1895.68 314.878 1902.95 314.823 1910.2 315.043C1915.03 315.19 1915.96 316.182 1916.02 320.847C1916.02 321.545 1916.62 322.243 1916.95 322.923C1917.67 322.574 1918.79 322.39 1919.05 321.821C1920.46 318.827 1920.83 313.721 1917.05 311.664ZM758.993 280.441C763.654 284.115 766.334 289.184 770.261 293.298C774.189 297.412 777.713 301.71 781.42 305.934L780.521 306.87C777.673 304.95 774.995 302.787 772.519 300.405C766.242 293.298 760.278 285.914 754.166 278.568C751.964 275.868 750 273.058 747.945 270.156C747.77 269.887 747.659 269.583 747.617 269.265C747.576 268.947 747.606 268.624 747.706 268.319C751.432 272.268 754.643 277.062 758.938 280.386L758.993 280.441ZM747.522 260.091L748.936 263.765L748.073 264.113C746.348 263.452 746.091 262.13 746.55 260.44L747.522 260.091ZM755.047 237.941C750.055 229.897 741.796 223.671 741.466 212.89C743.21 213.845 754.386 234.103 754.992 237.886L755.047 237.941ZM738.218 184.109C741.319 188.352 744.403 192.613 747.394 196.856L746.458 197.59C743.723 193.072 738.842 190.06 737.392 184.734L738.218 184.109ZM723.279 152.887C725.628 155.348 727.885 157.919 730.087 160.527C730.418 160.931 730.198 161.794 730.234 162.364C729.647 162.364 728.839 162.621 728.399 162.364C724.306 158.911 720.269 155.385 716.268 151.895C717.393 151.303 718.675 151.081 719.933 151.259C721.191 151.437 722.362 152.006 723.279 152.887V152.887ZM713.185 149.783L712.616 150.499C705.429 145.963 698.949 140.393 693.382 133.969L694.043 133.198L713.185 149.783ZM1041.81 149.452L1046.87 157.056L1045.83 157.735L1040.83 150.095L1041.81 149.452ZM1015.62 136.008C1013.78 135.806 1010.92 136.136 1010.5 135.273C1009.73 132.943 1009.32 130.509 1009.29 128.055L1010.41 127.725L1015.91 135.071L1015.62 136.008ZM1009.6 110.644L1025.33 134.19L1024.65 135.071C1023.75 134.539 1022.57 134.226 1022 133.455C1019.18 129.653 1016.5 125.741 1013.76 121.884C1013.25 121.161 1012.55 120.585 1011.75 120.213C1011.6 124.456 1014.81 127.192 1016.44 130.755C1012 129.01 1008.02 118.137 1009.6 110.644ZM1023.07 110.644L1011.78 97.7875C1016.98 101.002 1021.31 104.252 1023.07 110.644ZM1002.2 78.117L1004.9 81.7903L1004.22 82.3597L1001.28 78.9068L1002.2 78.117ZM1000.37 82.929C1000.88 83.4984 1001.41 84.0494 1001.87 84.6555C1004.24 87.7778 1006.39 91.0837 1008.99 93.9489C1010.83 95.9141 1010.83 97.2181 1008.61 98.9446L999.651 83.425L1000.37 82.929ZM991.374 47.1513L991.851 46.8759L1012.77 74.1867L1012.02 74.8295C1010.19 72.8459 1008.52 70.8073 1006.7 68.8604C1002.62 64.5811 998.55 60.3017 994.384 56.1142C993.434 55.5108 992.393 55.0644 991.301 54.7918C991.337 52.5879 991.374 49.888 991.393 47.1881L991.374 47.1513ZM1249.05 133.308L1253.47 139.075L1252.92 139.534L1248.44 133.822L1249.05 133.308ZM1228.34 100.102C1230.03 101.149 1231.76 102.14 1233.39 103.279C1233.65 103.463 1233.63 104.418 1233.39 104.748C1233.19 104.895 1232.96 104.988 1232.72 105.017C1232.47 105.046 1232.22 105.01 1232 104.914C1230.58 103.573 1229.28 102.14 1227.94 100.726L1228.34 100.102ZM1236.51 113.399C1233.11 111.804 1230.33 109.115 1228.64 105.759L1236.51 113.399Z" fill="#E3D8CB" fill-opacity="0.2"/>
<path d="M1540.63 341.437C1539.62 340.739 1538.3 340.555 1537.24 339.931C1531.47 336.782 1525.35 334.317 1519.01 332.584C1514.92 331.605 1511.27 329.307 1508.61 326.046C1507.83 324.947 1506.74 324.119 1505.47 323.677C1501.29 322.258 1496.99 321.237 1492.62 320.628C1481.61 319.673 1470.49 319.342 1459.44 318.497C1456.39 318.226 1453.4 317.463 1450.59 316.238C1445.71 314.145 1441.05 311.518 1436.26 309.222C1430.5 306.449 1424.61 304.006 1419.74 299.69C1411.61 292.509 1403.56 285.254 1395.17 278.403C1391.24 275.208 1389.66 270.947 1387.46 266.429C1387.79 266.539 1388.1 266.687 1388.4 266.869C1395.19 272.379 1402.01 277.889 1408.73 283.399C1412.13 286.228 1415.26 289.35 1418.64 292.215C1419.23 292.711 1420.33 292.601 1421.19 292.784C1420.94 291.976 1420.9 290.948 1420.37 290.415C1415.15 285.014 1409.64 279.912 1403.85 275.134C1395.79 269.037 1387.11 263.765 1378.69 258.145C1378.25 257.901 1377.79 257.704 1377.31 257.558C1372.6 255.721 1367.95 253.646 1363.14 252.048C1355.23 249.55 1347.23 247.346 1339.28 245.142C1335.61 244.113 1331.83 243.452 1328.14 242.497C1323.63 241.358 1319.19 239.963 1314.66 238.824C1308.29 237.3 1301.81 235.922 1295.46 234.6C1291.27 233.602 1287.02 232.848 1282.74 232.341C1281.22 232.172 1279.74 231.696 1278.41 230.941C1277.08 230.187 1275.91 229.17 1274.98 227.951C1274.51 227.362 1274.01 226.798 1273.49 226.261L1247.69 201.54C1247.21 200.967 1246.79 200.352 1246.42 199.704C1246.95 199.465 1247.19 199.263 1247.39 199.281C1248.21 199.412 1249.04 199.479 1249.87 199.483C1250.61 199.313 1251.32 199.047 1251.98 198.693C1251.69 198.051 1251.54 197.169 1251.05 196.857C1245.21 192.981 1241.43 187.196 1237.17 181.888C1231.96 175.386 1226.86 168.811 1221.7 162.273C1217.92 157.498 1214.36 152.63 1210.32 148.02C1208.49 145.835 1208.23 142.033 1204.32 141.702C1203.81 141.702 1203.35 140.839 1202.89 140.362C1201.81 139.205 1200.83 137.937 1199.64 136.89C1198.72 136.094 1198.04 135.063 1197.67 133.908C1197.29 132.753 1197.24 131.517 1197.51 130.334C1198.08 126.807 1198.96 123.299 1199.18 119.755C1199.44 115.604 1201.97 112.83 1203.99 109.671C1210.25 121.628 1220.51 130.591 1226.75 142.198C1223.9 139.26 1221.24 136.266 1218.51 133.18C1215.77 130.095 1213.11 126.826 1210.43 123.612C1207.75 120.397 1205.44 117.551 1202.94 114.428L1201.88 115.181C1203.13 117.404 1204.37 119.608 1205.55 121.885L1203.29 122.712C1204.74 124.401 1205.99 125.834 1207.2 127.303C1215.51 137.515 1223.72 147.818 1232.18 157.883C1238.57 165.45 1245.28 172.76 1249.32 181.98C1249.68 182.643 1250.26 183.161 1250.95 183.449C1251.63 183.725 1252.79 183.927 1253.17 183.559C1253.46 183.232 1253.67 182.843 1253.78 182.422C1253.89 182.002 1253.9 181.561 1253.82 181.135C1253.34 180.065 1252.72 179.064 1251.98 178.16C1251.63 177.59 1250.9 176.782 1251.06 176.47C1252.28 174.284 1250.75 172.98 1249.91 171.548C1250.4 170.372 1251.03 169.013 1250.64 168.095C1249.79 166.284 1248.72 164.582 1247.47 163.026C1243.25 157.351 1239.02 151.657 1234.71 146.055C1227.1 136.156 1220.38 125.522 1211.35 116.669C1209.52 114.738 1208.01 112.516 1206.91 110.094C1205.62 107.523 1203.44 106.715 1201.81 109.01C1199.8 111.817 1198.12 114.842 1196.79 118.028C1195.87 120.522 1195.26 123.118 1194.96 125.76C1193.63 132.781 1192.68 139.869 1192.12 146.992C1191.88 152.502 1192.12 158.361 1193.95 163.246C1196.63 169.748 1201.29 175.46 1205.07 181.484C1207.02 184.57 1209.29 187.453 1211.05 190.667C1214.03 196.669 1218.34 201.904 1223.66 205.966C1228.42 209.327 1233.39 212.376 1238.24 215.609C1242.25 218.272 1246.04 221.339 1250.26 223.635C1257.6 227.694 1265.34 231.312 1272.92 235.077C1273.63 235.527 1274.44 235.786 1275.27 235.83C1278.5 235.536 1280.78 237.391 1283.13 239.099C1283.91 239.712 1284.76 240.253 1285.64 240.716C1286.1 240.936 1287.05 240.973 1287.2 240.716C1287.44 240.134 1287.49 239.492 1287.35 238.879C1287.17 238.36 1286.93 237.861 1286.65 237.391C1287.48 237.399 1288.31 237.467 1289.13 237.593C1292.52 238.383 1295.9 239.246 1299.29 240.036C1302.69 240.826 1305.61 241.45 1308.76 242.203C1313.78 243.428 1318.79 244.652 1323.78 245.877C1329.28 247.254 1334.79 248.705 1340.42 250.083C1345.25 251.276 1350.2 252.121 1354.9 253.756C1361.34 255.923 1367.55 258.825 1373.97 261.102C1381.68 263.729 1388.43 275.557 1384.76 282.738C1384.63 283.213 1384.63 283.714 1384.76 284.189C1385.12 285.869 1385.39 287.567 1385.57 289.276C1385.77 292.95 1386.78 296.274 1389.96 298.368C1392.31 299.778 1394.76 301.006 1397.3 302.041C1401.26 303.554 1404.94 305.727 1408.18 308.469C1411.1 311.206 1414.33 313.591 1417.8 315.577C1423.12 318.544 1429.03 320.294 1435.1 320.701C1444.98 321.565 1454.81 322.74 1464.67 323.695C1476.03 324.797 1487.39 325.881 1498.75 326.854C1501.56 327.093 1503.32 328.691 1505.36 330.399C1508.12 332.784 1511.21 334.757 1514.53 336.258C1520.04 338.59 1525.93 340.335 1531.69 342.19C1534.24 342.967 1536.83 343.58 1539.46 344.027C1540.21 344.155 1541.09 343.604 1541.92 343.365C1541.59 342.662 1541.15 342.012 1540.63 341.437V341.437ZM1255.47 214.158C1251.5 211.311 1246.02 209.915 1245.59 204.295L1255.47 214.158ZM1196.23 137.441C1196.85 137.68 1197.29 137.717 1197.47 137.937C1201.81 143.209 1206.15 148.48 1210.41 153.806C1214.27 158.618 1218.03 163.485 1221.79 168.37C1226.32 174.229 1230.8 180.107 1235.32 185.984C1236.33 187.288 1237.52 188.482 1238.44 189.877C1238.8 190.693 1239.02 191.561 1239.1 192.449C1239.15 193.15 1239.29 193.841 1239.52 194.506C1240.12 195.581 1240.77 196.623 1241.48 197.628L1240.88 198.253C1239.32 196.71 1237.65 195.277 1236.22 193.624C1227.3 183.284 1218.54 172.815 1209.49 162.585C1205.82 158.489 1201.66 154.963 1197.79 151.106C1196.97 150.427 1196.41 149.496 1196.19 148.461C1195.99 144.898 1196.23 141.317 1196.23 137.441ZM1268.04 228.006C1267.05 227.602 1265.98 227.29 1265.05 226.794C1259.25 223.708 1253.3 220.862 1247.74 217.39C1240.27 212.744 1233.06 207.693 1225.83 202.697C1220.18 198.785 1216.91 192.963 1213.73 187.049C1212.45 184.661 1210.52 182.641 1209 180.364C1205.33 174.854 1201.29 169.509 1198.1 163.705C1196.52 160.822 1196.48 157.112 1195.75 153.769L1196.76 153.383L1218.51 179.849L1218.05 180.29L1206.72 168.205L1206.14 168.37C1206.15 169.129 1206.31 169.878 1206.61 170.574C1208.41 173.374 1210.42 176.033 1212.61 178.527C1222.6 188.941 1232.51 199.428 1242.92 209.401C1247.17 213.478 1252.57 216.362 1257.47 219.778C1257.78 220.07 1258.18 220.246 1258.61 220.274C1264.11 219.429 1264.9 225.214 1268.52 227.014C1268.33 227.327 1268.17 227.657 1268 228.006H1268.04ZM1391.85 290.084C1394.78 292.233 1397.85 293.648 1400.01 296.843C1395.32 297.119 1391.06 293.574 1391.81 290.084H1391.85ZM1391.85 284.813L1401.02 292.16C1396.78 291.554 1391.46 287.256 1391.76 284.813H1391.85ZM1402.66 289.68C1401.08 288.597 1399.48 287.55 1397.9 286.448C1396.33 285.346 1394.78 284.244 1393.24 283.105C1392.84 282.887 1392.49 282.591 1392.21 282.236C1391.92 281.88 1391.71 281.472 1391.59 281.035C1391.47 280.597 1391.43 280.139 1391.48 279.688C1391.54 279.236 1391.68 278.799 1391.9 278.403L1402.91 289.24L1402.66 289.68ZM1425.87 310.306L1435.05 315.1C1430.63 315.981 1425.19 313.061 1425.78 310.306H1425.87Z" fill="#E3D8CB" fill-opacity="0.2"/>
<path d="M403.869 219.117C412.073 213.883 420.386 208.74 428.443 203.322C433.49 199.924 438.06 195.847 443.125 192.559C451.017 187.454 459.165 182.788 467.222 177.866C471.278 175.405 475.206 172.724 479.39 170.52C486.181 166.938 493.136 163.706 500.239 160.639C511.397 155.808 521.748 149.123 532.503 143.319C537.641 140.546 542.78 137.809 546.524 133.181C547.5 132.033 548.667 131.063 549.974 130.316C550.827 130.002 551.727 129.834 552.636 129.82C553.31 129.747 553.979 129.624 554.636 129.453C554.74 127.954 554.475 126.453 553.865 125.081C553.352 124.684 552.75 124.416 552.111 124.301C551.472 124.186 550.814 124.227 550.195 124.42C548.574 125.257 547.048 126.267 545.643 127.432C541.569 130.15 538.944 134.43 534.393 136.799C523.069 142.75 512.076 149.343 500.826 155.459C497.945 157.02 494.476 157.406 491.503 158.839C485.667 161.63 479.867 164.606 474.251 167.82C468.635 171.034 463.24 174.744 457.734 178.142C450.998 182.293 444.08 186.131 437.546 190.521C428.553 196.527 420.001 203.212 410.935 209.089C399.06 216.785 386.838 223.893 374.853 231.423C369.568 234.729 364.631 238.586 359.345 241.928C353.381 245.712 347.141 249.073 341.176 252.948C336.111 256.144 331.413 259.964 326.255 262.976C320.071 266.558 313.61 269.661 307.187 272.784C302.636 275.006 298.011 276.898 293.294 278.973C287.164 281.71 280.943 284.299 274.941 287.348C270.28 289.718 266.077 292.858 261.452 295.374C251.065 300.774 240.567 305.953 230.069 311.17C225.316 313.52 220.526 315.816 215.662 317.947C211.79 319.655 207.716 320.885 203.862 322.63C196.998 325.771 190.299 329.297 183.38 332.346C176.461 335.395 169.45 337.746 162.623 340.776C157.705 342.962 153.098 345.864 148.216 348.123C142.6 350.804 136.728 352.935 131.203 355.781C127.12 358.056 122.551 359.316 117.879 359.455C114.209 359.455 110.538 359.589 106.868 359.859C106.189 359.859 105.546 360.557 104.886 360.942C105.528 361.31 106.17 361.953 106.849 361.989C109.419 362.136 112.007 361.989 115.31 362.118C118.246 361.842 122.064 362.118 125.441 361.034C131.257 359.056 136.945 356.719 142.472 354.037C150.529 350.363 158.439 346.194 166.459 342.374C170.295 340.537 174.259 339.013 178.168 337.397C183.912 335.027 189.712 332.787 195.438 330.362C200.393 328.25 205.22 325.826 210.12 323.75C213.405 322.391 216.929 321.62 220.195 320.224C225.371 317.965 230.455 315.504 235.502 312.878C241.962 309.608 248.348 306.119 254.735 302.813C259.525 300.37 264.499 298.24 269.252 295.687C273.271 293.519 276.905 290.618 280.998 288.616C285.898 286.21 291.129 284.483 296.157 282.316C302.47 279.579 308.82 276.806 315.005 273.812C320.75 271.002 326.439 268.045 331.908 264.629C340.717 259.266 349.288 253.609 357.987 248.099C366.686 242.589 375.294 237.208 383.92 231.735C390.637 227.56 397.286 223.354 403.869 219.117Z" fill="#E3D8CB" fill-opacity="0.2"/>
<path d="M450.301 246.134L465.185 239.283C468.177 237.905 471.205 236.565 474.16 235.077C474.894 234.728 475.371 233.902 475.866 233.406C475.206 230.816 473.444 230.963 471.976 231.44C467.112 233.02 462.285 234.673 457.532 236.528C449.806 239.54 442.244 243.011 434.426 245.711C427.691 248.08 420.772 249.899 414.477 253.351C410.549 255.482 406.126 257.025 403.74 261.194C401.546 264.711 399.631 268.396 398.014 272.214C394.423 281.296 389.022 289.551 382.139 296.476C377.478 301.361 372.413 305.843 367.457 310.379C365.806 311.867 363.787 312.95 361.952 314.291C361.49 314.75 361.083 315.262 360.74 315.816C361.493 315.963 362.392 316.458 362.943 316.201C364.45 315.507 365.868 314.631 367.164 313.593C370.944 310.581 374.615 307.459 378.359 304.41C385.934 298.376 392.394 291.059 397.446 282.793C398.794 280.027 400.411 277.4 402.272 274.95C414.471 261.116 430.569 251.3 448.448 246.795C449.086 246.637 449.707 246.415 450.301 246.134V246.134ZM405.521 267.512C406.622 262.186 411.467 258.77 417.23 257.392L405.521 267.512Z" fill="#E3D8CB" fill-opacity="0.2"/>
<path d="M552.048 146.202C546.502 150.493 542.06 156.047 539.091 162.401C537.999 164.52 537.343 166.837 537.164 169.215C536.888 173.954 537.164 178.729 537.164 183.486C537.164 185.616 537.164 187.618 539.237 188.996C539.788 189.345 539.825 190.465 540.118 191.236C540.412 192.008 540.467 193.073 540.999 193.477C541.818 194.251 542.451 195.199 542.851 196.252C543.251 197.304 543.409 198.434 543.312 199.556C543.312 201.228 543.771 202.899 543.66 204.552C543.312 209.768 543.55 215.205 542.156 220.145C540.082 227.492 536.76 234.434 534.099 241.579C533.637 243.002 533.401 244.49 533.401 245.987C533.434 246.336 533.552 246.673 533.744 246.967C533.935 247.262 534.196 247.505 534.503 247.676C534.854 247.712 535.208 247.673 535.544 247.562C535.879 247.451 536.187 247.271 536.448 247.033C536.863 246.522 537.164 245.927 537.329 245.289C539.678 239.779 541.88 234.269 544.431 228.759C546.969 223.917 548.446 218.588 548.763 213.129C548.542 208.427 548.634 204.552 548.139 200.769C547.643 196.985 546.468 192.816 545.624 188.849C545.129 186.535 544.064 184.165 544.321 181.925C544.927 176.415 546.156 171.162 547.092 165.781C548.268 159.289 551.281 153.271 555.773 148.443C556.332 147.609 556.782 146.708 557.113 145.761C556.03 145.486 554.924 145.307 553.81 145.229C553.167 145.265 552.562 145.816 552.048 146.202Z" fill="#E3D8CB" fill-opacity="0.2"/>
<path d="M1038.04 194.579C1037.49 194.579 1036.94 194.579 1035.62 194.579C1036.71 196.504 1037.94 198.345 1039.29 200.089C1047.64 209.144 1056.67 217.611 1063.63 227.877C1063.9 228.281 1064.31 228.869 1064.67 228.888C1068.35 229.071 1069.39 232.285 1071.23 234.398C1075.21 239.099 1078.97 243.966 1082.92 248.705C1083.64 249.311 1084.47 249.79 1085.36 250.119C1085.36 249.219 1085.82 248.08 1085.36 247.419C1083.72 244.719 1081.89 242.166 1080.07 239.577C1078.84 237.74 1076.86 236.271 1076.4 234.342C1075.73 231.793 1074.47 229.435 1072.73 227.455C1069.76 223.782 1065.76 220.586 1066 215.094C1066 214.617 1065.5 214.048 1065.15 213.607C1062.09 209.658 1059.17 205.599 1055.98 201.834C1051.72 196.948 1047.07 192.394 1042.78 187.527C1040.49 184.918 1038.58 182.017 1036.5 179.188C1035.73 178.123 1035.02 177.021 1034.28 175.919L1033.33 176.488C1034.85 180.925 1037.05 185.1 1039.84 188.867L1039.05 189.271C1038.99 190.309 1039.12 191.35 1039.44 192.338C1040.23 194.065 1039.46 194.432 1038.04 194.579Z" fill="#E3D8CB" fill-opacity="0.2"/>
<path d="M1363.55 193.257C1367.99 198.154 1372.4 203.052 1376.78 207.95C1378.11 209.334 1379.27 210.876 1380.23 212.541C1384.96 221.504 1389.52 230.577 1394.29 239.54C1394.78 240.477 1396.27 240.899 1397.3 241.579C1397.81 240.385 1398.95 239.081 1398.77 238.034C1397.36 230.647 1394.65 223.569 1390.76 217.133C1389.15 214.341 1387.66 211.476 1386.14 208.611C1385.62 207.259 1384.95 205.971 1384.14 204.772C1380.82 201.099 1377.42 197.426 1373.9 193.844C1371.15 191.084 1368.94 187.832 1367.38 184.257C1364.98 178.986 1362.02 173.972 1359.44 168.793C1358.54 166.759 1357.75 164.68 1357.07 162.566C1356.38 163.009 1355.88 163.698 1355.68 164.492C1355.48 165.287 1355.59 166.128 1355.99 166.846C1358.11 172.246 1360.45 177.572 1362.59 182.972C1362.9 183.775 1362.9 184.666 1362.59 185.469C1361.93 186.707 1361.66 188.12 1361.83 189.515C1362 190.909 1362.6 192.217 1363.55 193.257V193.257Z" fill="#E3D8CB" fill-opacity="0.2"/>
<path d="M1053.08 82.6726C1050.98 79.4585 1048.69 76.373 1046.74 73.0854C1038.74 59.7211 1029.42 47.1991 1018.9 35.7097C1015.43 31.8895 1011.98 28.0693 1008.5 24.2675C1007.96 23.7507 1007.38 23.2721 1006.77 22.835C1006.47 23.6944 1006.27 24.5891 1006.18 25.498C1006.33 26.1478 1006.66 26.7447 1007.12 27.2244C1010.57 31.9079 1014.2 36.4077 1017.49 41.2932C1023.16 49.5948 1029.14 57.8229 1034.01 66.5102C1039.18 76.4744 1045.44 85.8367 1052.67 94.4271C1053.42 95.272 1054.84 95.5107 1055.94 96.0434C1056.08 94.9315 1056.01 93.802 1055.72 92.719C1054.34 90.0008 1052.65 87.4478 1050.95 84.6194L1053.9 84.8398C1053.69 84.0958 1053.41 83.371 1053.08 82.6726V82.6726Z" fill="#E3D8CB" fill-opacity="0.2"/>
<path d="M536.668 153.769C537.255 153.42 537.402 152.337 537.769 151.584C536.957 151.425 536.122 151.425 535.31 151.584C526.446 155.771 517.526 159.885 508.827 164.44C502.051 167.816 495.476 171.582 489.135 175.717C480.491 181.521 472.452 188.188 463.827 193.992C453.347 201.063 442.592 207.748 431.819 214.36C420.312 221.394 408.64 228.135 397.078 235.059C395.67 235.945 394.338 236.946 393.095 238.053C392.835 238.441 392.724 238.911 392.783 239.375C392.783 239.54 393.279 239.706 393.591 239.889L394.894 239.044C396.729 237.942 398.399 236.804 400.216 235.775C408.512 231.018 416.844 226.335 425.121 221.541C431.232 217.997 437.38 214.47 443.345 210.687C451.494 205.507 459.569 200.2 467.497 194.726C474.012 190.245 480.252 185.341 486.676 180.768C498.403 172.411 511.36 166.332 524.39 160.381C528.611 158.453 532.631 156.065 536.668 153.769Z" fill="#E3D8CB" fill-opacity="0.2"/>
<path d="M1013.01 288.064C1011.47 279.691 1011.02 271.153 1011.67 262.664C1011.81 261.424 1012.04 260.196 1012.35 258.99C1013.43 253.48 1014.5 247.97 1015.49 242.938C1014.83 238.457 1014.48 234.655 1013.65 230.926C1012.83 227.198 1011.67 223.268 1010.57 219.466C1010.25 218.71 1009.83 218.005 1009.3 217.372C1008.89 218.107 1008.54 218.875 1008.26 219.668C1008.13 220.156 1008.13 220.668 1008.26 221.156C1008.88 224.149 1009.76 227.106 1010.09 230.137C1011.17 237.577 1010.79 245.154 1008.99 252.452C1007.44 257.788 1006.51 263.286 1006.22 268.835C1006.07 275.664 1006.53 282.492 1007.6 289.24C1008.53 293.717 1009.93 298.082 1011.78 302.261C1012.09 303.106 1013.97 304.098 1014.53 303.896C1015.55 303.178 1016.3 302.135 1016.65 300.939C1016.87 300.388 1016.39 299.525 1016.17 298.809C1015.21 295.209 1013.82 291.701 1013.01 288.064Z" fill="#E3D8CB" fill-opacity="0.2"/>
<path d="M1228.32 260.019C1222.25 254.509 1216.08 248.999 1210.23 243.159C1199.22 232.139 1188.32 221.119 1177.32 209.971C1176.32 208.879 1175.13 207.982 1173.8 207.326C1166.97 204.314 1160.09 201.43 1153.21 198.565C1152.71 198.363 1152.01 198.675 1151.37 198.749C1151.61 199.281 1151.72 200.071 1152.12 200.31C1155.1 201.926 1158.11 203.524 1161.17 204.975C1168.94 208.35 1175.89 213.362 1181.54 219.668C1188.65 227.915 1196.52 235.537 1204.26 243.214C1211.07 249.954 1218.14 256.437 1225.2 262.902C1227.07 264.325 1229.04 265.602 1231.1 266.723C1232 266.208 1232.93 265.988 1233.11 265.474C1233.17 265.146 1233.14 264.811 1233.05 264.493C1232.95 264.175 1232.79 263.883 1232.56 263.637C1231.22 262.26 1229.66 261.213 1228.32 260.019Z" fill="#E3D8CB" fill-opacity="0.2"/>
<path d="M1429.82 213.828C1429.54 213.093 1428.53 212.634 1427.86 211.991C1427.17 212.719 1426.6 213.549 1426.17 214.452C1426.11 215.277 1426.25 216.103 1426.59 216.858C1427.51 220.532 1428.42 224.058 1429.4 227.658L1428.44 228.007C1429.16 229.605 1429.82 231.239 1430.63 232.764C1431.25 233.939 1432.19 234.931 1432.85 236.088C1437.44 244.371 1441.8 252.801 1446.67 260.919C1449.7 265.604 1452.96 270.134 1456.45 274.492C1456.61 274.813 1456.84 275.096 1457.12 275.323C1457.39 275.55 1457.72 275.715 1458.06 275.809C1458.41 275.903 1458.77 275.922 1459.13 275.866C1459.48 275.81 1459.82 275.68 1460.12 275.484C1461.64 274.51 1461.37 273.188 1460.67 271.811C1456.2 262.778 1450.8 254.234 1444.56 246.318C1440.63 241.14 1437.54 235.384 1435.38 229.256C1433.53 224.131 1431.76 218.97 1429.82 213.828Z" fill="#E3D8CB" fill-opacity="0.2"/>
<path d="M505.707 223.525C504.523 224.312 503.486 225.3 502.642 226.445C499.357 230.743 496.017 235.022 492.952 239.485C486.367 249.696 477.104 257.899 466.176 263.197C462.505 264.886 458.633 265.988 455.164 267.99C445.694 273.5 435.967 278.771 428.204 286.797C427.603 287.53 427.063 288.31 426.589 289.13L427.36 289.718C427.796 289.554 428.215 289.345 428.608 289.093C434.621 284.047 441.133 279.629 448.043 275.906C452.998 273.353 457.788 270.396 462.909 268.339C472.085 264.666 480.619 260.129 487.428 252.911C492.145 247.897 496.604 242.534 500.844 237.116C503.54 233.535 506.046 229.814 508.35 225.968C508.772 225.307 508.35 224.131 508.35 223.268C507.487 223.342 506.386 223.103 505.707 223.525Z" fill="#E3D8CB" fill-opacity="0.2"/>
<path d="M941.62 208.501C938.647 212.028 935.901 215.739 933.398 219.613C931.985 221.946 931.654 224.939 930.755 227.602C929.103 232.561 927.25 237.465 925.726 242.461C925.018 245.105 924.521 247.801 924.24 250.524C924.001 252.36 924.24 254.197 923.965 256.034C923.249 261.635 922.423 267.219 921.634 272.802H922.129C922.129 274.804 921.946 276.824 922.129 278.808C922.293 280.95 922.662 283.072 923.23 285.144C923.425 285.52 923.713 285.839 924.067 286.07C924.42 286.302 924.828 286.438 925.249 286.467C926.071 286.109 926.727 285.453 927.084 284.63C927.294 283.74 927.362 282.823 927.286 281.912C927.488 279.01 927.672 276.108 927.892 273.206C928.559 268.256 928.927 263.269 928.993 258.274C928.949 251.925 930.335 245.647 933.049 239.908C933.691 238.31 934.095 236.988 932.572 235.629C932.349 235.344 932.194 235.013 932.118 234.66C932.041 234.307 932.046 233.941 932.131 233.59C933.343 228.878 934.882 224.257 936.738 219.76C938.298 216.454 941.143 213.754 943.308 210.705C943.63 209.95 943.805 209.139 943.822 208.318C943.088 208.336 941.95 208.079 941.62 208.501Z" fill="#E3D8CB" fill-opacity="0.2"/>
<path d="M711.037 205.746C702.551 197.024 694.941 187.489 688.316 177.278C683.93 170.611 678.644 165.542 670.973 163.173C668.605 162.438 666.201 161.851 663.43 161.098L661.411 162.218C662.017 162.742 662.675 163.204 663.375 163.595C664.806 164.22 666.348 164.624 667.779 165.23C673.634 167.654 678.791 170.74 682.241 176.507C685.322 181.841 688.717 186.987 692.409 191.917C697.914 199.134 704.081 206.003 710.009 212.964C711.268 214.629 712.75 216.112 714.414 217.372C714.985 217.702 715.625 217.897 716.283 217.941C716.942 217.986 717.602 217.879 718.213 217.629C719.699 216.785 718.892 215.297 717.992 214.195C715.698 211.367 713.551 208.336 711.037 205.746Z" fill="#E3D8CB" fill-opacity="0.2"/>
<path d="M716.194 279.69C713.345 274.433 710.784 269.025 708.523 263.49C705.969 255.922 701.988 248.914 696.796 242.847C692.207 237.594 687.197 232.708 682.352 227.713C682.003 227.364 681.361 227.309 680.866 227.125L680.187 227.731C680.685 228.881 681.3 229.976 682.022 231C684.811 234.196 688.023 237.08 690.501 240.496C694.13 245.452 697.428 250.643 700.374 256.034C702.264 260.093 703.888 264.271 705.238 268.541C707.403 274.198 709.624 279.836 711.753 285.493C711.841 285.904 712.011 286.292 712.253 286.635C712.494 286.978 712.802 287.269 713.159 287.49C713.515 287.711 713.912 287.858 714.327 287.922C714.741 287.986 715.164 287.966 715.57 287.863C716.01 287.791 716.43 287.623 716.798 287.372C717.167 287.122 717.477 286.793 717.706 286.41C717.935 286.027 718.077 285.599 718.124 285.155C718.17 284.711 718.119 284.263 717.975 283.84C717.523 282.4 716.926 281.009 716.194 279.69V279.69Z" fill="#E3D8CB" fill-opacity="0.2"/>
<path d="M1232.05 164.881C1228.09 159.536 1224.2 154.137 1220.14 148.847C1216.08 143.558 1212.1 138.874 1208.19 133.787C1206.67 131.821 1205.48 129.581 1204.01 127.267C1203.45 127.721 1203.09 128.374 1203 129.09C1202.91 129.805 1203.1 130.527 1203.53 131.105C1205.62 134.319 1207.7 137.552 1209.92 140.656C1217.37 151.088 1224.87 161.495 1232.42 171.879C1236.86 178.001 1241.4 184.055 1246.04 190.043C1246.99 191.273 1248.22 193.716 1250.13 191.99C1252.04 190.263 1249.89 188.849 1248.92 187.545C1243.34 179.941 1237.67 172.43 1232.05 164.881Z" fill="#E3D8CB" fill-opacity="0.2"/>
<path d="M1043.55 172.687C1042.9 171.501 1041.91 170.538 1040.7 169.926C1039.5 169.313 1038.14 169.078 1036.8 169.252C1037.09 170.777 1037.31 172.301 1037.7 173.807C1037.9 175 1038.34 176.142 1038.98 177.168C1047.8 188.421 1056.7 199.636 1065.67 210.815C1066.23 211.513 1067.39 211.734 1068.27 212.174C1068.31 211.195 1068.17 210.218 1067.85 209.291C1065.06 204.681 1062.05 200.108 1059.26 195.608C1056.93 191.769 1054.8 187.821 1052.58 183.927C1049.55 180.198 1046.34 176.58 1043.55 172.687Z" fill="#E3D8CB" fill-opacity="0.2"/>
<path d="M252.771 267.935C257.267 262.296 261.433 256.566 269.123 254.454C274.427 252.985 279.291 249.991 284.411 247.824C289.531 245.657 293.587 241.359 297.368 237.135C297.83 236.383 298.176 235.565 298.396 234.71C298.065 234.178 297.845 233.351 297.386 233.167C297.055 233.049 296.701 233.008 296.352 233.046C296.002 233.084 295.666 233.201 295.368 233.388C293.697 235.004 292.211 236.822 290.559 238.457C289.126 240.146 287.479 241.64 285.659 242.902C281.75 245.106 277.621 246.887 273.565 248.816C271.179 249.936 268.738 250.964 266.334 252.066C264.543 252.699 262.845 253.57 261.287 254.656C258.508 257.054 255.908 259.65 253.505 262.425C248.091 268.706 243.668 275.888 236.529 280.571C235.691 281.12 234.931 281.781 234.272 282.536C233.891 283.175 233.594 283.86 233.391 284.575C234.141 284.509 234.878 284.329 235.575 284.042C242.235 279.761 248.062 274.303 252.771 267.935V267.935Z" fill="#E3D8CB" fill-opacity="0.2"/>
<path d="M592.828 237.63C592.115 238.322 591.498 239.107 590.992 239.962C586.533 245.729 582.202 251.625 577.522 257.227C573.686 261.8 569.226 265.877 565.427 270.469C563.331 273.391 561.448 276.46 559.793 279.652C560.38 280.515 560.766 281.085 561.133 281.654C561.655 281.234 562.113 280.739 562.491 280.185C565.813 272.838 571.667 267.659 577.522 262.424C579.265 260.882 581.633 259.945 583.156 258.237C587.34 253.554 591.818 249.054 594.296 243.103C594.952 241.956 595.528 240.766 596.021 239.54C596.089 239.126 596.055 238.702 595.92 238.305C595.786 237.908 595.556 237.55 595.25 237.263C594.845 237.139 594.417 237.108 593.997 237.172C593.578 237.235 593.179 237.392 592.828 237.63V237.63Z" fill="#E3D8CB" fill-opacity="0.2"/>
<path d="M821.501 197.39C823.814 196.049 826.181 194.818 828.384 193.349C839.395 186.002 848.773 177.205 853.967 164.697C854.279 163.963 854.426 162.567 853.967 162.291C853.57 161.974 853.106 161.749 852.611 161.635C852.115 161.52 851.6 161.519 851.104 161.63C849.876 162.282 848.857 163.269 848.168 164.477C845.708 168.628 843.983 173.33 840.992 177.003C836.096 183.256 830.236 188.687 823.63 193.092C822.324 194.004 821.096 195.024 819.96 196.141C819.675 196.512 819.509 196.96 819.482 197.426C819.482 197.573 819.941 197.794 820.217 197.996C820.786 197.757 821.153 197.592 821.501 197.39Z" fill="#E3D8CB" fill-opacity="0.2"/>
<path d="M857.968 153.623C859.088 151.602 859.987 149.454 861.088 147.433C864.924 140.454 868.613 133.365 872.779 126.587C875.122 123.369 877.666 120.302 880.395 117.404C880.918 116.699 881.224 115.856 881.276 114.98C881.276 114.668 880.34 114.282 879.863 113.97C879.223 114.065 878.604 114.264 878.028 114.557C875.72 116.197 873.564 118.041 871.586 120.067C864.245 128.387 860.446 138.434 857.399 148.866C857.014 150.207 856.316 151.455 855.968 152.796C855.839 153.31 856.298 153.972 856.482 154.633C856.995 154.192 857.748 154.063 857.968 153.623Z" fill="#E3D8CB" fill-opacity="0.2"/>
<path d="M716.084 126.752L715.497 127.34C716.008 128.231 716.566 129.096 717.167 129.929C723.26 137.698 731.262 143.723 736.713 152.134C740.383 157.828 745.247 162.768 749.394 168.187C751.028 170.354 752.092 172.962 753.597 175.239C754.038 175.882 755.157 176.066 755.946 176.47C756.179 175.703 756.273 174.9 756.222 174.101C755.868 172.996 755.401 171.931 754.827 170.923C751.303 163.742 745.504 158.434 739.98 152.906C739.209 152.134 738.144 150.922 738.273 150.114C738.433 149.037 738.297 147.936 737.88 146.93C737.463 145.923 736.78 145.05 735.905 144.402C729.947 138.843 723.958 133.333 717.938 127.872C717.366 127.427 716.744 127.051 716.084 126.752Z" fill="#E3D8CB" fill-opacity="0.2"/>
<path d="M988.18 136.119C986.639 139.591 985.281 143.172 983.409 146.46C981.739 149.362 979.738 151.97 980.325 155.643C980.364 156.229 980.283 156.816 980.087 157.369C979.298 160.143 978.398 162.879 977.683 165.708C977.387 166.833 977.281 168 977.371 169.161C977.371 169.767 978.05 170.318 978.435 170.887C978.857 170.428 979.518 170.061 979.665 169.528C980.282 167.379 980.772 165.196 981.133 162.989C981.41 159.841 982.646 156.853 984.675 154.431C988.162 150.537 990.676 146.147 990.493 140.564C990.604 138.994 991.082 137.471 991.888 136.119C992.86 134.283 992.291 132.832 990.475 130.72C989.575 132.869 988.841 134.485 988.18 136.119Z" fill="#E3D8CB" fill-opacity="0.2"/>
<path d="M1449.07 207.51C1452.56 205.857 1454.28 206.389 1456.12 209.732C1456.4 210.185 1456.78 210.564 1457.24 210.839C1457.7 211.113 1458.21 211.275 1458.74 211.312C1459.68 211.165 1460.43 209.916 1461.15 209.255C1460.78 208.061 1460.61 207.418 1460.38 206.812C1459.76 205.244 1458.69 203.898 1457.31 202.948C1455.92 201.998 1454.28 201.488 1452.59 201.486C1449.66 201.237 1446.91 199.932 1444.87 197.812C1444.41 197.353 1443.77 196.692 1443.27 196.729C1440.55 196.968 1439.01 195.388 1437.51 193.515C1437.14 193.055 1436.3 193 1435.67 192.743C1435.67 193.496 1435.43 194.47 1435.8 194.947C1439.05 199.043 1442.33 203.139 1445.82 207.051C1446.29 207.374 1446.83 207.584 1447.39 207.664C1447.96 207.743 1448.53 207.691 1449.07 207.51V207.51Z" fill="#E3D8CB" fill-opacity="0.2"/>
<path d="M910.218 58.9255C912.771 55.7858 915.008 52.4023 916.898 48.824C918.734 45.2793 921.909 42.4326 924.24 39.145C924.9 38.245 925.469 36.4267 925.01 35.7287C924.038 34.2043 922.569 35.2145 921.688 36.2247C919.339 38.7894 917.163 41.5075 915.173 44.361C911.613 49.8709 908.511 55.6747 903.813 60.3765C903.178 61.1597 902.631 62.0095 902.18 62.9111L902.749 63.3885C905.648 62.7298 908.263 61.1671 910.218 58.9255V58.9255Z" fill="#E3D8CB" fill-opacity="0.2"/>
<path d="M652.254 152.264C646.986 150.427 643.591 146.35 640.581 142.107C638.085 138.581 636.342 134.559 634.103 130.848C633.589 129.985 632.451 129.489 631.589 128.828C631.2 129.861 630.923 130.932 630.763 132.024C630.815 132.852 631.088 133.651 631.552 134.338C633.13 137.191 634.745 140.007 636.397 142.787C638.341 145.998 640.939 148.763 644.022 150.903C647.105 153.042 650.604 154.507 654.291 155.202L654.933 154.486C654.052 153.733 653.281 152.631 652.254 152.264Z" fill="#E3D8CB" fill-opacity="0.2"/>
<path d="M1499.74 276.952C1500.17 277.13 1500.63 277.204 1501.09 277.169C1501.55 277.134 1501.99 276.99 1502.39 276.75C1502.68 276.4 1502.88 275.985 1502.97 275.54C1503.06 275.095 1503.04 274.634 1502.92 274.197C1502.33 272.732 1501.53 271.363 1500.53 270.138C1498.74 268.147 1497.69 265.597 1497.56 262.92C1497.56 261.304 1497.14 259.541 1495.03 259.1C1493.76 258.843 1492.51 258.549 1491.01 258.2C1490.91 259.094 1490.69 259.972 1490.36 260.808C1489.81 261.749 1489.57 262.842 1489.68 263.929C1489.79 265.015 1490.24 266.038 1490.97 266.851C1492.81 269.349 1494.82 271.846 1496.82 274.197C1497.62 275.284 1498.61 276.217 1499.74 276.952Z" fill="#E3D8CB" fill-opacity="0.2"/>
<path d="M727.554 130.315C727.522 131.002 727.596 131.69 727.775 132.354C728.246 133.034 728.801 133.651 729.426 134.191C731.996 136.927 734.583 139.701 737.098 142.401C741.631 147.378 746.091 152.429 750.624 157.406C751.106 157.955 751.748 158.34 752.459 158.508C752.954 158.508 753.542 157.994 754.202 157.645C753.888 157.09 753.538 156.557 753.156 156.047C751.725 154.32 750.367 152.52 748.807 150.904C742.432 144.182 735.966 137.484 729.408 130.811C729.023 130.444 728.233 130.481 727.554 130.315Z" fill="#E3D8CB" fill-opacity="0.2"/>
<path d="M311.903 222.533C315.575 218.238 320.028 214.679 325.025 212.046C326.837 210.857 328.438 209.373 329.76 207.656C330.109 207.27 329.87 206.334 329.907 205.636C329.3 205.533 328.679 205.533 328.072 205.636C327.154 205.985 326.365 206.756 325.429 207.013C317.317 209.199 312.968 215.976 307.719 221.706C306.581 222.955 307.498 224.516 309.664 224.48C310.466 223.897 311.215 223.246 311.903 222.533V222.533Z" fill="#E3D8CB" fill-opacity="0.2"/>
<path d="M526.134 169.711C526.172 168.239 526.419 166.78 526.868 165.377C522.335 165.854 521.582 166.552 521.692 170.666C521.609 173.411 521.861 176.156 522.445 178.84C523.411 181.905 524.671 184.869 526.207 187.692C526.487 188.008 526.844 188.245 527.243 188.38C527.642 188.515 528.069 188.544 528.483 188.464C528.81 188.187 529.064 187.836 529.224 187.439C529.384 187.042 529.445 186.612 529.4 186.186C529.088 184.166 528.318 182.201 527.914 180.18C527.235 176.727 526.537 173.219 526.134 169.711Z" fill="#E3D8CB" fill-opacity="0.2"/>
<path d="M1307.92 176.489C1309.76 176.489 1311.15 174.983 1311.46 172.815C1311.7 170.979 1312.21 169.344 1312.56 167.599C1312.67 167.152 1312.63 166.683 1312.45 166.258C1312.36 166.075 1311.63 166.001 1311.37 166.148C1308.97 167.526 1307.2 166.699 1305.42 164.881C1305.02 164.522 1304.54 164.265 1304.02 164.131C1303.5 163.996 1302.96 163.989 1302.43 164.11C1301.64 164.495 1301.17 165.946 1300.87 166.92C1300.78 167.742 1300.86 168.574 1301.11 169.362C1301.72 172.54 1305.44 176.47 1307.92 176.489ZM1306.49 170.703L1309.28 169.858L1308.42 172.705L1306.07 171.548C1306.19 171.217 1306.34 170.979 1306.49 170.703Z" fill="#E3D8CB" fill-opacity="0.2"/>
<path d="M943.345 92.4258C942.097 93.3809 940.996 94.5564 939.675 95.5481C936.004 98.5786 931.893 101.297 929.379 105.576C928.92 106.329 928.516 107.119 927.966 108.111C928.553 108.901 929.012 110.094 929.599 110.168C930.101 110.226 930.61 110.175 931.091 110.02C931.573 109.865 932.015 109.608 932.389 109.268C934.224 107.431 935.545 105.227 937.161 103.225C939.693 100.14 942.299 97.1276 944.777 94.0421C945.126 93.6013 944.942 92.7198 944.997 92.0586C944.502 92.2423 943.767 92.0952 943.345 92.4258Z" fill="#E3D8CB" fill-opacity="0.2"/>
<path d="M750.256 149.177C750.862 149.563 751.981 149.912 752.404 149.6C752.663 149.309 752.853 148.962 752.958 148.587C753.063 148.211 753.08 147.816 753.009 147.432C752.847 146.533 752.411 145.706 751.761 145.063C746.255 140.159 740.878 135.329 735.391 130.517C734.916 130.255 734.401 130.075 733.867 129.984L733.262 130.646C733.922 131.509 734.528 132.482 735.262 133.235C739.593 137.919 743.961 142.584 748.311 147.267C748.875 147.985 749.529 148.627 750.256 149.177V149.177Z" fill="#E3D8CB" fill-opacity="0.2"/>
<path d="M1176.64 134.485C1176.98 134.382 1177.29 134.198 1177.54 133.948C1177.79 133.698 1177.97 133.39 1178.08 133.052C1178.92 128.663 1179.8 124.328 1182.54 120.6C1182.92 120.086 1182.43 118.947 1182.35 118.084C1181.58 118.029 1180.81 118.122 1180.08 118.359C1175.74 120.912 1174.33 125.21 1173.41 130.297C1173.69 131.428 1174.09 132.524 1174.61 133.566C1174.85 133.866 1175.16 134.105 1175.52 134.265C1175.87 134.424 1176.26 134.499 1176.64 134.485V134.485Z" fill="#E3D8CB" fill-opacity="0.2"/>
<path d="M337.854 215.646C339.873 212.432 342.405 209.438 342.185 205.232C342.206 204.228 342.533 203.254 343.121 202.44C344.754 200.034 346.59 197.775 348.26 195.388C348.672 194.603 348.986 193.77 349.196 192.908C348.278 193.22 347.03 193.239 346.516 193.863C344.277 196.526 342.185 199.373 340.166 202.183C339.402 203.061 338.922 204.149 338.79 205.306C338.73 207.9 337.836 210.406 336.239 212.45C335.704 213.291 335.353 214.237 335.211 215.223C335.211 215.738 335.688 216.344 336.129 217.28C336.761 216.799 337.339 216.251 337.854 215.646V215.646Z" fill="#E3D8CB" fill-opacity="0.2"/>
<path d="M971.901 46.124C971.901 45.8669 971.901 45.6281 971.901 45.3709C971.901 43.6628 971.791 41.6977 969.681 41.4773C967.57 41.2569 967.368 43.3139 966.928 44.9118C966.285 47.2994 965.368 49.5952 964.744 51.9645C964.578 53.0584 964.541 54.1679 964.634 55.2704C965.918 54.9949 967.588 55.1419 968.304 54.3705C969.425 53.3066 970.32 52.0286 970.938 50.6121C971.556 49.1956 971.884 47.6695 971.901 46.124Z" fill="#E3D8CB" fill-opacity="0.2"/>
<path d="M450.576 170.171C452.411 167.324 454.247 164.422 456.082 161.539C456.467 160.914 456.889 160.326 457.348 159.702C457.138 159.237 456.873 158.8 456.559 158.398C456.422 158.321 456.267 158.28 456.109 158.28C455.952 158.28 455.797 158.321 455.66 158.398C453.887 159.521 452.281 160.887 450.888 162.457C448.803 165.616 446.91 168.897 445.217 172.283C444.942 172.797 445.217 173.624 445.217 174.303C445.988 174.303 447.052 174.414 447.456 173.991C448.633 172.837 449.68 171.555 450.576 170.171V170.171Z" fill="#E3D8CB" fill-opacity="0.2"/>
<path d="M466.524 203.855C466.84 205.902 467.375 207.91 468.121 209.842C468.433 210.614 469.736 210.981 470.58 211.532C471.039 210.76 471.828 209.989 471.865 209.199C472.03 204.865 472.012 200.53 472.067 196.067C470.415 196.49 466.194 202.11 466.524 203.855Z" fill="#E3D8CB" fill-opacity="0.2"/>
<path d="M992.218 111.508C991.939 111.347 991.622 111.262 991.3 111.262C990.978 111.262 990.661 111.347 990.382 111.508C988.547 114.024 986.932 116.65 985.023 119.571C986.088 120.746 987.042 122.417 987.593 122.289C989.23 121.924 990.739 121.124 991.961 119.975C992.729 118.899 993.169 117.623 993.227 116.301C993.324 115.302 993.236 114.294 992.97 113.326C992.916 112.656 992.652 112.02 992.218 111.508V111.508Z" fill="#E3D8CB" fill-opacity="0.2"/>
<path d="M507.084 173.054C506.26 173.971 505.597 175.021 505.12 176.158C505.818 177.719 506.313 179.078 506.955 180.345C507.44 181.204 508.06 181.98 508.791 182.641C509.436 183.12 510.131 183.526 510.865 183.853C511.195 183.082 511.874 182.274 511.801 181.558C511.58 179.244 511.048 176.984 510.681 174.689C510.277 172.099 509.213 171.511 507.084 173.054Z" fill="#E3D8CB" fill-opacity="0.2"/>
<path d="M1153.89 136.211C1154.15 136.226 1154.42 136.174 1154.66 136.058C1154.9 135.943 1155.11 135.768 1155.26 135.55C1156.29 133.052 1157.28 130.518 1158.07 127.946C1158.06 127.574 1157.95 127.21 1157.76 126.889C1157.57 126.569 1157.31 126.3 1156.99 126.11C1156.4 125.949 1155.79 125.91 1155.19 125.995C1154.59 126.08 1154.02 126.287 1153.5 126.604C1152.99 126.921 1152.54 127.341 1152.19 127.837C1151.85 128.333 1151.6 128.895 1151.48 129.489C1151.87 131.638 1152.07 133.364 1152.51 134.999C1152.64 135.29 1152.82 135.55 1153.06 135.759C1153.3 135.969 1153.58 136.123 1153.89 136.211V136.211Z" fill="#E3D8CB" fill-opacity="0.2"/>
<path d="M447.915 211.991C447.331 213.201 447.012 214.522 446.979 215.866C446.979 216.068 448.098 216.747 448.282 216.619C449.271 215.828 450.209 214.976 451.089 214.066C452.631 215.664 453.806 214.837 454.76 213.129C455.531 211.862 456.412 210.65 457.128 209.346C457.348 208.96 457.128 208.372 457.128 207.252L453.457 210.282C450.759 208.648 450.062 208.758 447.915 211.991Z" fill="#E3D8CB" fill-opacity="0.2"/>
<path d="M575.098 127.781C575.635 127.804 576.169 127.699 576.657 127.476C577.145 127.252 577.573 126.916 577.906 126.495C578.848 124.33 579.556 122.07 580.017 119.755C580.109 119.314 578.989 118.598 578.384 117.918C577.536 118.303 576.709 118.732 575.906 119.204C575.009 119.89 574.333 120.826 573.964 121.894C573.596 122.962 573.55 124.115 573.832 125.209C573.942 126.165 574.585 127.726 575.098 127.781Z" fill="#E3D8CB" fill-opacity="0.2"/>
<path d="M587.377 178.05C587.231 177.781 587.02 177.553 586.764 177.386C586.507 177.219 586.213 177.119 585.908 177.095C585.163 177.28 584.511 177.73 584.073 178.362C582.844 180.584 583.945 186.204 585.908 187.876C586.199 188.139 586.543 188.334 586.917 188.448C587.292 188.563 587.687 188.593 588.074 188.537C588.625 188.335 588.863 187.27 589.23 186.59H588.716C588.239 183.67 587.891 180.841 587.377 178.05Z" fill="#E3D8CB" fill-opacity="0.2"/>
<path d="M610.152 115.971C609.732 116.295 609.394 116.713 609.164 117.191C608.935 117.67 608.821 118.195 608.831 118.726C608.965 120.423 609.291 122.099 609.803 123.722C609.95 124.309 610.28 125.117 610.721 125.264C611.028 125.313 611.342 125.283 611.634 125.177C611.926 125.071 612.187 124.893 612.391 124.658C613.024 123.416 613.576 122.134 614.043 120.82C613.938 119.478 613.596 118.166 613.033 116.945C612.669 116.559 612.216 116.269 611.714 116.1C611.211 115.93 610.675 115.886 610.152 115.971V115.971Z" fill="#E3D8CB" fill-opacity="0.2"/>
<path d="M434.224 183.872C434.575 183.466 434.888 183.03 435.16 182.568C434.866 182.219 434.591 181.686 434.353 181.686C433.638 181.655 432.93 181.834 432.315 182.2C430.15 184.147 428.021 186.167 426.039 188.298C425.525 188.831 425.525 189.841 425.305 190.63C426.186 190.539 427.36 190.759 427.911 190.263C430.131 188.261 432.15 186.039 434.224 183.872Z" fill="#E3D8CB" fill-opacity="0.2"/>
<path d="M758.442 143.668L750.257 134.815C749.853 136.009 749.358 136.781 749.541 136.983C751.78 139.627 754.074 142.199 756.479 144.678C756.662 144.825 757.782 144.017 758.442 143.668Z" fill="#E3D8CB" fill-opacity="0.2"/>
<path d="M464.653 143.906C464.588 143.471 464.419 143.059 464.16 142.704C463.901 142.349 463.56 142.062 463.166 141.868C461.331 141.555 459.202 144.365 459.11 147.653C459.331 147.892 459.826 148.792 460.468 148.92C462.12 149.177 464.855 146.11 464.653 143.906Z" fill="#E3D8CB" fill-opacity="0.2"/>
<path d="M366.228 220.807C367.32 219.631 368.32 218.372 369.219 217.042C369.451 216.642 369.635 216.217 369.77 215.775C367.127 214.856 363.034 216.969 362.722 219.448C362.7 219.895 362.789 220.34 362.981 220.744C363.173 221.148 363.463 221.498 363.823 221.762C364.429 221.909 365.64 221.321 366.228 220.807Z" fill="#E3D8CB" fill-opacity="0.2"/>
<path d="M498.532 144.145C498.77 143.594 497.376 142.308 496.219 140.747C494.714 142.584 493.209 143.704 492.897 145.1C492.714 145.816 494.733 147.028 495.614 148.02C496.761 146.87 497.743 145.565 498.532 144.145V144.145Z" fill="#E3D8CB" fill-opacity="0.2"/>
<path d="M1103.78 109.176C1103.29 109.323 1103.03 110.26 1102.85 110.572C1102.97 112.186 1103.24 113.785 1103.66 115.347C1103.86 115.935 1105.34 116.67 1105.73 116.449C1107.56 115.439 1107.67 110.829 1106.02 109.58C1105.7 109.363 1105.33 109.216 1104.95 109.146C1104.56 109.077 1104.16 109.087 1103.78 109.176V109.176Z" fill="#E3D8CB" fill-opacity="0.2"/>
<path d="M587.101 198.381C587.441 200.15 588.028 201.863 588.845 203.469C589.07 203.726 589.356 203.922 589.676 204.041C589.997 204.16 590.342 204.196 590.68 204.148C591.194 204.001 591.488 203.12 592.13 202.312C591.206 200.672 590.157 199.106 588.992 197.628C588.239 196.655 586.918 196.93 587.101 198.381Z" fill="#E3D8CB" fill-opacity="0.2"/>
<path d="M509.837 145.156C509.066 144.954 508.002 144.348 507.616 144.641C505.88 146.131 504.243 147.732 502.716 149.435C502.587 149.582 503.193 150.39 503.45 150.886L509.965 146.001C509.837 145.725 509.837 145.505 509.837 145.156Z" fill="#E3D8CB" fill-opacity="0.2"/>
<path d="M927.232 117.276C927.544 116.964 927.232 115.953 927.066 115.256C927.066 115.256 926.791 115.09 926.644 115.035C926.091 114.953 925.526 114.992 924.989 115.148C924.452 115.304 923.955 115.575 923.531 115.941C923.108 116.307 922.769 116.76 922.536 117.269C922.304 117.779 922.184 118.332 922.185 118.892L923.194 120.582C924.596 119.55 925.944 118.447 927.232 117.276V117.276Z" fill="#E3D8CB" fill-opacity="0.2"/>
<path d="M1342.28 189.859C1342.93 189.553 1343.46 189.044 1343.8 188.408C1342.72 186.939 1341.49 185.561 1340.29 184.184L1338.84 185.653C1338.88 188.169 1340.66 190.134 1342.28 189.859Z" fill="#E3D8CB" fill-opacity="0.2"/>
<path d="M487.611 188.115C487.483 188.519 488.346 189.547 488.951 189.768C489.289 189.774 489.623 189.686 489.914 189.514C490.206 189.342 490.444 189.093 490.603 188.794C490.747 187.287 490.79 185.771 490.731 184.258L489.649 183.891C488.859 185.243 488.178 186.655 487.611 188.115V188.115Z" fill="#E3D8CB" fill-opacity="0.2"/>
</svg>
