<svg width="186" height="35" viewBox="0 0 186 35" fill="none" xmlns="http://www.w3.org/2000/svg">
<path d="M136.88 18.029H129.019V21.4057H136.88V18.029Z" fill="#2D5328"/>
<path d="M182.159 25.8019C183.309 25.1843 184.249 24.2292 184.857 23.0611C185.534 21.704 185.868 20.1968 185.828 18.6758V8.33752H181.9V13.8191C181.986 15.0121 181.611 16.192 180.854 17.1081C180.066 17.8096 179.055 18.1964 178.008 18.1964C176.96 18.1964 175.949 17.8096 175.161 17.1081C174.478 16.3772 174.134 15.2955 174.131 13.863V8.33752H170.246V13.3915C170.202 14.9218 170.536 16.4389 171.217 17.8042C171.825 18.9724 172.765 19.9275 173.915 20.545C175.186 21.1942 176.594 21.5161 178.016 21.4824C179.259 21.5046 180.493 21.2657 181.641 20.7807C181.488 21.3182 181.211 21.8106 180.832 22.2169C180.471 22.5808 180.041 22.8659 179.568 23.0544C179.095 23.243 178.588 23.331 178.08 23.3132H171.541V26.7063H171.989H178.032C179.462 26.7412 180.88 26.4194 182.159 25.769" fill="#2D5328"/>
<path d="M102.904 18.0344V15.7815C102.904 14.349 102.557 13.2673 101.863 12.5364C101.075 11.8349 100.064 11.448 99.0167 11.448C97.9694 11.448 96.9579 11.8349 96.1705 12.5364C95.4871 13.2673 95.1436 14.349 95.14 15.7815V18.0344H102.904ZM99.0464 8.0415C100.468 8.00809 101.875 8.32798 103.147 8.97336C104.297 9.59095 105.237 10.546 105.845 11.7142C106.526 13.0815 106.86 14.6003 106.816 16.1323V25.5716H102.883V21.4166H95.1184V25.5991H91.2336V16.1543C91.1893 14.6223 91.5232 13.1034 92.2048 11.7361C92.8127 10.5679 93.7528 9.61288 94.9026 8.99529C96.1854 8.3353 97.6088 8.00766 99.0464 8.0415V8.0415Z" fill="#2D5328"/>
<path d="M82.1905 11.7142L82.212 25.5936H78.3057V8.33203H90.2838V11.7142H82.1905Z" fill="#2D5328"/>
<path d="M75.1224 8.33203V25.5936H71.189V21.4111H63.4733V25.5936H59.54V8.33203H63.4733V18.0345H71.189V8.33203H75.1224Z" fill="#2D5328"/>
<path d="M42.6844 10.0423C43.8689 8.93027 45.426 8.31868 47.0387 8.332H56.3136V25.5881H52.3803V12.3171H47.1736C45.9596 12.3171 44.9452 12.9311 44.9452 14.2576C44.9452 15.1785 45.5117 16.1049 46.089 16.96L48.2958 20.3751L44.9398 25.5935H40.2888L43.6125 20.4573L42.4201 18.621C41.4981 17.3465 40.9805 15.8167 40.9363 14.2357C40.9298 13.4466 41.0842 12.6648 41.3897 11.9393C41.6952 11.2138 42.1452 10.5605 42.7114 10.0203" fill="#2D5328"/>
<path d="M125.652 8.33203V25.5936H121.718V21.4111H113.997V25.5936H110.069V8.33203H113.997V18.0345H121.718V8.33203H125.652Z" fill="#2D5328"/>
<path d="M149.398 13.1942C147.953 12.3465 146.361 11.7882 144.709 11.5497V25.6265H140.781V11.5168C139.123 11.7579 137.524 12.3159 136.071 13.1613L134.738 10.1793C135.916 9.4679 137.188 8.92903 138.515 8.57869C139.887 8.21354 141.299 8.02931 142.718 8.03053C144.147 8.02867 145.57 8.21289 146.953 8.57869C148.282 8.92285 149.555 9.46207 150.73 10.1793L149.398 13.1942Z" fill="#2D5328"/>
<path d="M163.804 18.0344V15.7815C163.804 14.349 163.457 13.2673 162.762 12.5364C161.975 11.8348 160.964 11.448 159.916 11.448C158.869 11.448 157.857 11.8348 157.07 12.5364C156.379 13.2709 156.04 14.3508 156.04 15.7815V18.0344H163.804ZM159.946 8.0415C161.367 8.00808 162.775 8.32797 164.047 8.97336C165.196 9.59094 166.136 10.546 166.744 11.7142C167.426 13.0814 167.76 14.6003 167.716 16.1323V25.5716H163.804V21.4166H156.04V25.5991H152.155V16.1543C152.11 14.6223 152.444 13.1034 153.126 11.7361C153.734 10.5679 154.674 9.61287 155.824 8.99529C157.1 8.33882 158.516 8.01128 159.946 8.0415V8.0415Z" fill="#2D5328"/>
<path fill-rule="evenodd" clip-rule="evenodd" d="M13.7857 0C6.86858 0 0.976624 5.07047 0.976624 12.2952C0.976624 17.8919 4.60783 22.343 7.52143 26.7776L12.8415 35H19.8935L11.0447 21.3618C9.28039 18.621 6.86317 15.7267 6.86317 12.3117C6.86317 8.38137 10.1005 5.99687 13.7857 5.99687H23.7027V35H29.5893V0H13.7857Z" fill="#334D89"/>
<path fill-rule="evenodd" clip-rule="evenodd" d="M0 34.9836H7.04659L14.7946 23.0611L22.5373 35H29.5892L14.7946 12.1911L0 35" fill="#E32126"/>
</svg>
