<svg width="36" height="36" viewBox="0 0 36 36" fill="none" xmlns="http://www.w3.org/2000/svg">
<circle cx="18" cy="18" r="18" fill="#FAEDDD"/>
<path d="M26.6129 29.1072L26.8558 29.0229C27.2931 28.8825 27.6177 28.5716 27.8354 28.1523C28.0531 27.6748 28.0531 27.1412 27.8626 26.6357L25.2232 19.7547L24.8967 18.7155C24.8696 18.645 24.8192 18.5866 24.7545 18.5506C24.6898 18.5147 24.6149 18.5034 24.5429 18.5189L23.8354 18.7697L23.5089 17.6744C23.7841 17.4086 24.0036 17.0874 24.1537 16.7306C24.3038 16.3738 24.3814 15.989 24.3816 15.6C24.3813 15.3727 24.3539 15.1464 24.3 14.926V14.8979C24.2986 14.8589 24.2893 14.8206 24.2728 14.7856V14.7575C24.0551 13.943 23.1552 10.011 24.8447 7.51139C24.8714 7.46458 24.8855 7.41125 24.8855 7.35692C24.8855 7.3026 24.8714 7.24926 24.8447 7.20245C24.8098 7.15687 24.7633 7.12221 24.7105 7.10237C24.6576 7.08252 24.6004 7.07828 24.5453 7.09011C24.5181 7.09011 22.042 7.84842 20.3549 9.92675C20.1917 9.56164 19.9176 8.69099 19.7835 7.00585C19.7807 6.9445 19.7575 6.88602 19.7177 6.84032C19.678 6.79462 19.6241 6.76451 19.5653 6.75509C19.5102 6.74326 19.4531 6.7475 19.4002 6.76735C19.3473 6.78719 19.3009 6.82185 19.266 6.86743C19.2116 6.9236 15.2393 13.6641 19.6202 17.6503L19.2937 18.7737L18.559 18.549C18.423 18.4928 18.2597 18.5771 18.2048 18.7456L17.8788 19.7848L15.2393 26.6637C15.0572 27.1537 15.0668 27.6976 15.2661 28.1804C15.3615 28.3883 15.4981 28.5733 15.6672 28.7233C15.8363 28.8733 16.034 28.9849 16.2476 29.051L16.4905 29.1353C16.6395 29.1881 16.7956 29.2165 16.9531 29.2195C17.2252 29.2195 17.4973 29.1353 17.7694 28.9948C17.9877 28.8667 18.1778 28.6932 18.3278 28.4854C18.4778 28.2775 18.5843 28.0397 18.6407 27.7872L19.8379 22.5633H23.1848L24.3821 27.7872C24.4383 28.0397 24.5448 28.2774 24.6947 28.4853C24.8446 28.6932 25.0346 28.8667 25.2528 28.9948C25.503 29.1377 25.7833 29.2148 26.0691 29.2195C26.2536 29.2011 26.4358 29.1635 26.6129 29.1072ZM24.6265 19.6704L23.2115 20.1218L23.0502 19.6123L24.4652 19.1609L24.6265 19.6704ZM21.6061 17.873C21.0486 17.8751 20.5111 17.6589 20.102 17.268C19.6929 16.877 19.4428 16.3404 19.4021 15.7665V15.6C19.4037 14.9894 19.6392 14.4042 20.0572 13.972C20.4752 13.5399 21.0417 13.2958 21.6333 13.293C22.6129 13.293 23.4564 13.9671 23.7558 14.8939C23.7558 14.922 23.783 14.9501 23.783 14.9781C23.839 15.1803 23.8665 15.3898 23.8646 15.6C23.8501 16.2084 23.6059 16.7869 23.1839 17.2119C22.7619 17.6369 22.1957 17.8749 21.6061 17.875V17.873ZM24.0006 7.84641C23.1027 9.70207 23.2115 11.9469 23.4292 13.4354C22.9273 12.9755 22.2773 12.7251 21.6061 12.7333C20.6533 12.7333 19.8083 13.2388 19.2927 14.0252C19.5109 10.1775 22.5857 8.43621 24.0006 7.84641ZM19.3204 7.95876C19.5109 9.47538 19.8102 10.1494 19.9735 10.4022C19.0755 11.7222 18.5041 13.4916 18.8559 15.8227V15.8508C17.2777 13.0422 18.5838 9.50396 19.3185 7.95876H19.3204ZM18.6674 19.1649L20.0823 19.6163L19.9191 20.1218L18.5041 19.6704L18.6674 19.1649ZM18.1504 27.6187C18.0697 27.9789 17.8546 28.2918 17.5517 28.4893C17.4268 28.5685 17.287 28.6194 17.1416 28.6388C16.9963 28.6582 16.8485 28.6455 16.7082 28.6016L16.4653 28.5174C16.3235 28.469 16.1926 28.392 16.0801 28.2907C15.9677 28.1894 15.8759 28.066 15.8103 27.9276C15.647 27.5906 15.647 27.2255 15.7831 26.8603L18.3136 20.2046L19.7558 20.682L18.1504 27.6187ZM20.0279 21.9735L20.3544 20.5692L20.681 19.53C20.6966 19.4935 20.7024 19.4534 20.6976 19.4138C20.6928 19.3742 20.6776 19.3367 20.6537 19.3053C20.6194 19.2381 20.5607 19.1876 20.4905 19.1649L19.8102 18.9402L20.1095 17.9572C20.5581 18.2736 21.09 18.4403 21.6333 18.4347C22.143 18.4381 22.6432 18.292 23.0755 18.0134L23.3476 18.9402L22.6673 19.1649C22.599 19.1928 22.5424 19.2448 22.5076 19.3116C22.4727 19.3784 22.4618 19.4557 22.4769 19.53L22.8034 20.5692L23.1299 21.9735H20.0279ZM24.9802 27.6187L23.3767 20.6815L24.8189 20.2041L27.3748 26.8343C27.4444 27.0038 27.478 27.1868 27.4733 27.3709C27.4686 27.555 27.4257 27.736 27.3475 27.9015C27.2115 28.1829 26.9938 28.4071 26.6945 28.4918L26.4515 28.5761C26.3112 28.6199 26.1635 28.6326 26.0181 28.6132C25.8727 28.5939 25.7329 28.5429 25.608 28.4637C25.4495 28.3801 25.3111 28.261 25.2028 28.1152C25.0946 27.9693 25.0192 27.8004 24.9822 27.6207L24.9802 27.6187Z" fill="#113D23" stroke="#113D23" stroke-width="0.3"/>
<path d="M21.6051 14.2781C21.3522 14.2781 21.105 14.3554 20.8948 14.5004C20.6845 14.6454 20.5206 14.8514 20.4237 15.0925C20.3269 15.3336 20.3014 15.5989 20.3506 15.8549C20.3998 16.1109 20.5214 16.3461 20.7001 16.5308C20.8787 16.7155 21.1064 16.8414 21.3544 16.8925C21.6023 16.9437 21.8594 16.9178 22.0931 16.8182C22.3269 16.7186 22.5267 16.5497 22.6675 16.3329C22.8082 16.1161 22.8836 15.8611 22.884 15.6001C22.8842 15.4267 22.8512 15.255 22.787 15.0947C22.7228 14.9345 22.6286 14.7889 22.5098 14.6663C22.391 14.5437 22.25 14.4464 22.0947 14.3802C21.9395 14.3139 21.7731 14.2799 21.6051 14.2801V14.2781ZM21.6051 16.3283C21.4598 16.3283 21.3177 16.2838 21.1969 16.2005C21.0761 16.1172 20.9819 15.9988 20.9263 15.8602C20.8707 15.7216 20.8562 15.5692 20.8845 15.4221C20.9128 15.275 20.9828 15.1399 21.0856 15.0338C21.1883 14.9278 21.3192 14.8555 21.4617 14.8263C21.6043 14.797 21.752 14.812 21.8862 14.8694C22.0205 14.9268 22.1352 15.024 22.2159 15.1487C22.2967 15.2734 22.3398 15.42 22.3398 15.57C22.3401 15.6697 22.3214 15.7685 22.2846 15.8607C22.2478 15.9529 22.1937 16.0366 22.1254 16.1071C22.0571 16.1776 21.976 16.2334 21.8867 16.2714C21.7974 16.3094 21.7017 16.3287 21.6051 16.3283Z" fill="#113D23" stroke="#113D23" stroke-width="0.3"/>
<path d="M9.19728 8.71722C8.43539 9.78247 8.00002 11.1867 8.00002 12.591V16.8039C7.99924 16.9292 8.02259 17.0535 8.06872 17.1695C8.11484 17.2854 8.18281 17.3908 8.2687 17.4794C8.35458 17.5681 8.45666 17.6383 8.56902 17.6859C8.68138 17.7335 8.80178 17.7576 8.92323 17.7568H10.3382V18.7999L9.7687 27.0852C9.71428 27.675 9.93197 28.2387 10.2857 28.658C10.4513 28.8452 10.6531 28.9944 10.8781 29.096C11.1031 29.1976 11.3462 29.2493 11.5918 29.2478H11.8911C12.3809 29.2478 12.8435 29.0231 13.1972 28.658C13.3872 28.4491 13.5317 28.2007 13.6208 27.9294C13.71 27.6581 13.7419 27.3702 13.7142 27.0852L13.1428 18.7999V17.7889H14.5578C14.6792 17.7897 14.7996 17.7656 14.912 17.718C15.0243 17.6703 15.1264 17.6002 15.2123 17.5115C15.2982 17.4229 15.3662 17.3175 15.4123 17.2016C15.4584 17.0856 15.4818 16.9613 15.481 16.836V12.6231C15.481 11.1908 15.0437 9.81456 14.2837 8.74731C13.6326 7.84657 12.8163 7.17452 11.8367 6.77932C11.7667 6.75097 11.689 6.75097 11.619 6.77932C10.6432 7.16265 9.8001 7.8373 9.19728 8.71722ZM12.7891 28.2648C12.6767 28.3964 12.5386 28.5021 12.3838 28.5747C12.229 28.6473 12.0611 28.6852 11.8911 28.6861H11.5918C11.4219 28.6852 11.254 28.6473 11.0992 28.5748C10.9445 28.5023 10.8063 28.3968 10.6939 28.2653C10.5588 28.1091 10.4555 27.9265 10.39 27.7284C10.3246 27.5303 10.2984 27.3206 10.3129 27.1118L10.8571 19.0793H12.6258L13.1695 27.1118C13.1972 27.5631 13.0612 27.9824 12.7891 28.2653V28.2648ZM12.5986 18.5191H10.8843V17.7889H12.5986V18.5191ZM11.7279 7.31294C12.5714 7.67806 13.2789 8.26585 13.8503 9.05425C14.5578 10.0372 14.9387 11.3011 14.9387 12.593V16.8059C14.9399 16.8578 14.9309 16.9095 14.9122 16.9578C14.8934 17.006 14.8654 17.0499 14.8298 17.0867C14.7942 17.1234 14.7517 17.1523 14.705 17.1717C14.6582 17.191 14.6081 17.2003 14.5578 17.1991H8.92518C8.87482 17.2003 8.82475 17.191 8.77799 17.1717C8.73123 17.1523 8.68876 17.1234 8.65314 17.0867C8.61752 17.0499 8.58951 17.006 8.57079 16.9578C8.55207 16.9095 8.54303 16.8578 8.54423 16.8059V12.591C8.54423 11.271 8.92518 10.0332 9.63217 9.05224C10.1647 8.28677 10.8892 7.68548 11.7279 7.31294Z" fill="#113D23" stroke="#113D23" stroke-width="0.3"/>
</svg>
