<svg width="56" height="56" viewBox="0 0 56 56" fill="none" xmlns="http://www.w3.org/2000/svg">
<circle cx="28" cy="28" r="18" fill="#FAEDDD"/>
<path fill-rule="evenodd" clip-rule="evenodd" d="M38.0002 19C38.0001 18.4477 37.5524 18 37.0002 18L32.5002 18C31.9479 18 31.5002 18.4477 31.5002 19L31.5002 22.5529L28.0268 22.5529C27.4745 22.5529 27.0268 23.0007 27.0268 23.5529L27.0268 27.0529L23.5002 27.0529C22.9479 27.0529 22.5002 27.5007 22.5002 28.0529L22.5002 31.5L19.0002 31.5C18.4479 31.5 18.0002 31.9477 18.0002 32.5L18.0002 37C18.0002 37.5523 18.4479 38 19.0002 38C19.5524 38 20.0002 37.5523 20.0002 37L20.0002 33.5H23.5002C24.0524 33.5 24.5002 33.0523 24.5002 32.5L24.5002 29.0529L28.0268 29.0529C28.5791 29.0529 29.0268 28.6052 29.0268 28.0529L29.0268 24.5529H32.5002C33.0524 24.5529 33.5002 24.1052 33.5002 23.5529L33.5002 20L37.0002 20C37.5524 20 38.0002 19.5523 38.0002 19Z" fill="#143109"/>
</svg>
