<?xml version="1.0" encoding="utf-8"?>
<!-- Generator: Adobe Illustrator 26.0.3, SVG Export Plug-In . SVG Version: 6.00 Build 0)  -->
<svg version="1.1" id="Layer_1" xmlns="http://www.w3.org/2000/svg" xmlns:xlink="http://www.w3.org/1999/xlink" x="0px" y="0px"
	 viewBox="0 0 206.4 159.4" style="enable-background:new 0 0 206.4 159.4;" xml:space="preserve">
<style type="text/css">
	
		.st0{clip-path:url(#SVGID_00000137813361868823858540000010175832681950698114_);fill:url(#SVGID_00000015316697127976179570000016550734184088692635_);}
	.st1{fill:#FFFFFF;}
	
		.st2{clip-path:url(#SVGID_00000033336266644989988100000001112533739236345987_);fill:url(#SVGID_00000039818151943401597590000001467087576220686984_);}
	
		.st3{clip-path:url(#SVGID_00000088825479901067561860000014115062736454389668_);fill:url(#SVGID_00000002361242221576395630000014386255653502729887_);}
	.st4{fill-rule:evenodd;clip-rule:evenodd;fill:#FFFFFF;}
</style>
<g>
	<g>
		<defs>
			<path id="SVGID_1_" d="M121.5,60.8l-20.7-31.4L89.4,46.5c-3.5-5.1-7.1-10.7-7.1-16.9c0-9,7.5-14.5,16.1-14.5h23.1V60.8z
				 M66.3,81.6h16.4l6.7-10.2l6.7,10.2h16.4L97.7,58.9l3.1-4.7l18,27.3h16.4V1.5c-14,0-22.8,0-36.8,0c-16.1,0-29.8,11.6-29.8,28.1
				c0,11.2,6.5,20.4,12.6,29.3L66.3,81.6z"/>
		</defs>
		<clipPath id="SVGID_00000106116574108942660510000010339290056685149096_">
			<use xlink:href="#SVGID_1_"  style="overflow:visible;"/>
		</clipPath>
		
			<linearGradient id="SVGID_00000021099439229415004160000007147117069375394751_" gradientUnits="userSpaceOnUse" x1="100.8017" y1="81.6252" x2="100.6816" y2="1.5552">
			<stop  offset="0" style="stop-color:#E32227"/>
			<stop  offset="1" style="stop-color:#F39426"/>
		</linearGradient>
		
			<rect x="66.3" y="1.5" style="clip-path:url(#SVGID_00000106116574108942660510000010339290056685149096_);fill:url(#SVGID_00000021099439229415004160000007147117069375394751_);" width="68.8" height="80.1"/>
	</g>
	<path class="st1" d="M102,28.5l18,27.3V16.7H98.4c-4.1,0-7.9,1.3-10.6,3.8c-2.4,2.2-4,5.3-4,9.2c0,2.9,0.8,5.6,2.1,8.2
		c1,2,2.2,4,3.5,6l11.3-17.2L102,28.5z M120.2,61.6l-19.5-29.5L89.5,49.2l-1.3-1.8c-1.8-2.6-3.6-5.3-5-8.2c-1.4-3-2.4-6.1-2.4-9.5
		c0-4.8,1.9-8.7,5-11.4c3.3-2.9,7.8-4.5,12.6-4.5H123v52.1L120.2,61.6z M82.7,83.1H63.6L79.4,59c-6.1-8.9-12.3-18-12.3-29.4
		c0-8.5,3.5-15.8,9-21C81.8,3.2,89.8,0,98.4,0v0l38.3,0v83.1h-18.7L100.7,57l-1.3,1.9l15.9,24.2h-20l-5.9-9l-5.9,9H82.7z M69.1,80.1
		h12.8l7.5-11.4L97,80.1h12.8L95.9,58.9l4.9-7.4l18.8,28.5h14.1V3L98.4,3v0c-7.8,0-15,2.9-20.2,7.8c-4.9,4.7-8,11.2-8,18.9
		c0,10.6,6.1,19.5,12.1,28.1L83,59L69.1,80.1z"/>
	<g>
		<defs>
			<path id="SVGID_00000132798311002757277050000014059304580088367249_" d="M98.4,1.5c-16.1,0-29.8,11.6-29.8,28.1
				c0,12.8,8.4,23,15.2,33.2l12.4,18.8h16.4L92,50.4c-4.1-6.2-9.7-12.9-9.7-20.7c0-9,7.5-14.5,16.1-14.5h23.1c0,22.1,0,44.3,0,66.4
				h13.7V1.5C121.2,1.5,112.4,1.5,98.4,1.5"/>
		</defs>
		<clipPath id="SVGID_00000105411497813696118260000000784994425486915493_">
			<use xlink:href="#SVGID_00000132798311002757277050000014059304580088367249_"  style="overflow:visible;"/>
		</clipPath>
		
			<linearGradient id="SVGID_00000086675231855354422130000005143793746401398200_" gradientUnits="userSpaceOnUse" x1="101.8746" y1="1.4944" x2="101.8846" y2="71.1844">
			<stop  offset="0" style="stop-color:#8B75B2"/>
			<stop  offset="1" style="stop-color:#615395"/>
		</linearGradient>
		
			<rect x="68.6" y="1.5" style="clip-path:url(#SVGID_00000105411497813696118260000000784994425486915493_);fill:url(#SVGID_00000086675231855354422130000005143793746401398200_);" width="66.5" height="80.1"/>
	</g>
	<g>
		<defs>
			<path id="SVGID_00000011000648421531662690000013417974611048431003_" d="M66.3,81.6h16.4c6-9.1,12-18.2,18-27.3l18,27.3h16.4
				l-34.4-52.2C89.3,46.8,77.8,64.2,66.3,81.6"/>
		</defs>
		<clipPath id="SVGID_00000028286427016239877440000008774480269585170846_">
			<use xlink:href="#SVGID_00000011000648421531662690000013417974611048431003_"  style="overflow:visible;"/>
		</clipPath>
		
			<linearGradient id="SVGID_00000129900694926122882730000006271697981159727547_" gradientUnits="userSpaceOnUse" x1="100.7798" y1="81.6252" x2="100.6598" y2="1.5552">
			<stop  offset="0" style="stop-color:#E32227"/>
			<stop  offset="1" style="stop-color:#F39426"/>
		</linearGradient>
		
			<rect x="66.3" y="29.4" style="clip-path:url(#SVGID_00000028286427016239877440000008774480269585170846_);fill:url(#SVGID_00000129900694926122882730000006271697981159727547_);" width="68.8" height="52.2"/>
	</g>
	<rect x="125.9" y="119.2" class="st1" width="11.1" height="4.7"/>
	<path class="st1" d="M201.2,130c1.7-0.9,2.9-2.2,3.9-3.9c0.9-1.7,1.4-3.8,1.4-6.2v-7.3v-1.4v-5.7h-5.6v5.7c0,0.7,0,1.3,0,2
		c0,1.6-0.3,3.3-1.5,4.6c-1,1-2.3,1.5-4,1.5c-1.7,0-3.1-0.5-4-1.5c-1-1-1.5-2.5-1.5-4.5v-7.7h-5.5v7.1c0,2.4,0.5,4.5,1.4,6.2
		c0.9,1.7,2.2,3,3.9,3.9c1.7,0.9,3.6,1.3,5.8,1.3c1.9,0,3.6-0.3,5.1-1c-0.2,0.8-0.6,1.5-1.1,2c-1,1-2.3,1.5-3.9,1.5h-9.2l-0.1,0v4.7
		c0.2,0,0.4,0,0.6,0h8.6C197.4,131.4,199.4,131,201.2,130"/>
	<path class="st1" d="M88.8,119.2v-3.1c0-2-0.5-3.5-1.5-4.5c-1-1-2.3-1.5-4-1.5c-1.7,0-3.1,0.5-4,1.5c-1,1-1.5,2.5-1.5,4.5v3.1H88.8
		z M83.4,105.3c2.2,0,4.2,0.4,5.8,1.3c1.7,0.9,2.9,2.2,3.9,3.9c0.9,1.7,1.4,3.8,1.4,6.2v13.2h-5.6v-5.8h-11v5.8h-5.5v-13.2
		c0-2.4,0.5-4.5,1.4-6.2c0.9-1.7,2.2-3,3.9-3.9C79.2,105.7,81.1,105.3,83.4,105.3z"/>
	<polygon class="st1" points="59.4,110.4 59.5,129.8 53.9,129.8 53.9,105.7 70.9,105.7 70.9,110.4 	"/>
	<polygon class="st1" points="49.4,105.7 49.4,129.8 43.9,129.8 43.9,123.9 32.9,123.9 32.9,129.8 27.3,129.8 27.3,105.7 
		32.9,105.7 32.9,119.2 43.9,119.2 43.9,105.7 	"/>
	<path class="st1" d="M3.4,108.1c1.6-1.5,3.8-2.4,6.2-2.4v0l13.1,0v24.1c-1.8,0-3.8,0-5.6,0c0-6.2,0-12.3,0-18.5H9.8
		c-1.7,0-3.2,0.9-3.2,2.7c0,1.3,0.8,2.6,1.6,3.8l3.1,4.8l-4.8,7.3H0l4.7-7.2L3,120c-1.3-1.9-2.1-3.8-2.1-6.1
		C0.9,111.5,1.9,109.5,3.4,108.1"/>
	<polygon class="st1" points="121.1,105.7 121.1,129.8 115.5,129.8 115.5,123.9 104.6,123.9 104.6,129.8 99,129.8 99,105.7 
		104.6,105.7 104.6,119.2 115.5,119.2 115.5,105.7 	"/>
	<path class="st1" d="M154.7,112.4c-2.1-1.2-4.3-2-6.6-2.3v19.7h-5.6v-19.7c-2.4,0.3-4.6,1.1-6.7,2.3l-1.9-4.2
		c1.7-1,3.4-1.7,5.4-2.2c1.9-0.5,3.9-0.8,6-0.8c2.1,0,4.1,0.3,6,0.8c1.9,0.5,3.7,1.3,5.4,2.2L154.7,112.4z"/>
	<path class="st1" d="M175.2,119.2v-3.1c0-2-0.5-3.5-1.5-4.5c-1-1-2.3-1.5-4-1.5c-1.7,0-3.1,0.5-4,1.5s-1.5,2.5-1.5,4.5v3.1H175.2z
		 M169.7,105.3c2.2,0,4.2,0.4,5.8,1.3c1.7,0.9,2.9,2.2,3.9,3.9c0.9,1.7,1.4,3.8,1.4,6.2v13.2h-5.6v-5.8h-11v5.8h-5.5v-13.2
		c0-2.4,0.5-4.5,1.4-6.2c0.9-1.7,2.2-3,3.9-3.9C165.5,105.7,167.5,105.3,169.7,105.3z"/>
	<path class="st1" d="M145.6,148.7c1.9,0,2.9,0.8,2.9,2.5c0,1.6-1,2.5-2.6,2.5h-1.2v-5H145.6z M144.7,155.1h1.3c1.2,0,2.3-0.4,3-1.1
		c0.7-0.7,1.2-1.7,1.2-2.8c0-1.2-0.4-2.1-1.2-2.8c-0.8-0.7-1.9-1.1-3.3-1.1h-2.5v11.9h1.5V155.1z"/>
	<path class="st1" d="M131.1,158c-2.8,0-4.5-2.1-4.5-4.8c0-2.9,1.9-4.8,4.5-4.8c2.6,0,4.6,2,4.6,4.8
		C135.7,155.9,133.9,158,131.1,158 M131.1,159.4c3.6,0,6.2-2.6,6.2-6.2c0-3.6-2.6-6.2-6.2-6.2c-3.6,0-6.2,2.6-6.2,6.2
		C125,156.8,127.6,159.4,131.1,159.4z"/>
	<path class="st1" d="M116.3,148.7c4,0,3.8,5,0.2,5h-1.2v-5H116.3z M115.3,155.1h1.3c1.2,0,2.3-0.4,3-1.1c1.5-1.4,1.6-4.2,0-5.6
		c-0.8-0.7-1.9-1.1-3.3-1.1h-2.5v11.9h1.5V155.1z"/>
	<path class="st1" d="M73.2,158c-2.8,0-4.5-2.1-4.5-4.8c0-2.9,1.9-4.8,4.5-4.8c2.6,0,4.6,2,4.6,4.8C77.7,155.9,75.9,158,73.2,158
		 M73.2,159.4c3.6,0,6.2-2.6,6.2-6.2c0-3.6-2.6-6.2-6.2-6.2c-3.6,0-6.2,2.6-6.2,6.2C67,156.8,69.6,159.4,73.2,159.4z"/>
	<polygon class="st1" points="159.6,148.7 162.6,148.7 162.6,147.3 155,147.3 155,148.7 158,148.7 158,159.2 159.6,159.2 	"/>
	<polygon class="st1" points="61.9,157.8 57.2,157.8 57.2,153.8 61.9,153.8 61.9,152.4 57.2,152.4 57.2,148.7 61.9,148.7 
		61.9,147.3 55.7,147.3 55.7,159.2 61.9,159.2 	"/>
	<path class="st1" d="M103.1,154.3c0.9-2.3,2.1-4.8,3.2-7h1.7l-5.7,11.9h-1.6l1.5-3.3l-4.3-8.6h1.8C100.8,149.6,102,152,103.1,154.3
		"/>
	<path class="st1" d="M87.7,153.2l5.5,5.9h-2.2c-1.6-1.8-3.2-3.5-4.8-5.3c0,1.8,0,3.5,0,5.3h-1.6v-11.9h1.6c0,1.8,0,3.7,0,5.5
		l4.8-5.5h2L87.7,153.2z"/>
	<polygon class="st1" points="45.4,148.7 49.4,148.7 49.4,147.3 43.8,147.3 43.8,159.2 45.4,159.2 	"/>
	<polygon class="st4" points="90.9,42.6 89.4,43.8 79.4,59 78.9,62.5 91.4,43.6 	"/>
	<polygon class="st4" points="86.8,75.4 100.7,54.2 100.7,57 87.4,77.3 	"/>
	<polygon class="st4" points="118.9,55.6 120,55.8 136.6,81.2 136.6,83.1 135.1,81.6 118.5,56.3 	"/>
</g>
</svg>
