<svg width="105" height="80" viewBox="0 0 105 80" fill="none" xmlns="http://www.w3.org/2000/svg">
<mask id="mask0_1528_384" style="mask-type:alpha" maskUnits="userSpaceOnUse" x="34" y="0" width="35" height="41">
<path fill-rule="evenodd" clip-rule="evenodd" d="M49.8544 0C41.6973 0 34.7562 5.87714 34.7562 14.2369C34.7562 20.722 39.0121 25.8898 42.4573 31.0576L48.7398 40.5826H57.0488L46.6118 24.7752C44.5346 21.6339 41.6973 18.2394 41.6973 14.2875C41.6973 9.72768 45.4972 6.9411 49.8544 6.9411H61.558C61.558 18.1381 61.558 29.3857 61.558 40.5826H68.4991V0C61.406 0 56.9475 0 49.8544 0Z" fill="white"/>
</mask>
<g mask="url(#mask0_1528_384)">
<path d="M68.4484 0H34.7562V40.5826H68.4484V0Z" fill="url(#paint0_linear_1528_384)"/>
</g>
<path d="M69.4617 59.6327H63.7872V62.0139H69.4617V59.6327Z" fill="#2D5328"/>
<mask id="mask1_1528_384" style="mask-type:alpha" maskUnits="userSpaceOnUse" x="33" y="14" width="36" height="27">
<path fill-rule="evenodd" clip-rule="evenodd" d="M33.5909 40.5826H41.9C44.9399 35.9721 47.9798 31.3616 51.0197 26.7511L60.1394 40.5826H68.4484L51.0197 14.1355C45.2439 22.9512 39.4174 31.7669 33.5909 40.5826Z" fill="white"/>
</mask>
<g mask="url(#mask1_1528_384)">
<path d="M68.4484 14.1355H33.5909V40.5826H68.4484V14.1355Z" fill="url(#paint1_linear_1528_384)"/>
</g>
<path d="M101.938 65.1045C102.799 64.6485 103.407 63.9899 103.914 63.1286C104.37 62.2673 104.623 61.2033 104.623 59.9873V56.2888V55.5795V52.6916H101.786V55.5795C101.786 55.9341 101.786 56.2381 101.786 56.5928C101.786 57.4034 101.634 58.2647 101.026 58.9234C100.519 59.43 99.8607 59.6833 98.9994 59.6833C98.1381 59.6833 97.4288 59.43 96.9728 58.9234C96.4662 58.4167 96.2128 57.6567 96.2128 56.6434V52.7422H93.4263V56.3395C93.4263 57.5554 93.6796 58.6194 94.1356 59.4807C94.5916 60.342 95.2502 61.0006 96.1115 61.4566C96.9728 61.9126 97.9355 62.1153 99.0501 62.1153C100.013 62.1153 100.874 61.9633 101.634 61.6086C101.533 62.0139 101.33 62.3686 101.077 62.6219C100.57 63.1286 99.9114 63.3819 99.1008 63.3819H94.4396H94.3889V65.7631C94.4902 65.7631 94.5916 65.7631 94.6929 65.7631H99.0501C100.013 65.8138 101.026 65.6111 101.938 65.1045Z" fill="#2D5328"/>
<path d="M44.9906 59.6327V58.0621C44.9906 57.0488 44.7373 56.2888 44.2306 55.7821C43.724 55.2755 43.0653 55.0222 42.204 55.0222C41.3427 55.0222 40.6334 55.2755 40.1774 55.7821C39.6708 56.2888 39.4174 57.0488 39.4174 58.0621V59.6327H44.9906ZM42.2547 52.5902C43.3693 52.5902 44.3826 52.7929 45.1932 53.2489C46.0545 53.7049 46.6625 54.3635 47.1692 55.2248C47.6252 56.0861 47.8785 57.1501 47.8785 58.366V65.0538H45.0412V62.1153H39.4681V65.0538H36.6815V58.366C36.6815 57.1501 36.9348 56.0861 37.3908 55.2248C37.8468 54.3635 38.5055 53.7049 39.3668 53.2489C40.1267 52.7929 41.0894 52.5902 42.2547 52.5902Z" fill="#2D5328"/>
<path d="M30.095 55.1742L30.1457 65.0032H27.3085V52.7929H35.9215V55.1742H30.095Z" fill="#2D5328"/>
<path d="M25.0285 52.7929V65.0032H22.2419V62.0139H16.6688V65.0032H13.8315V52.7929H16.6688V59.6327H22.2419V52.7929H25.0285Z" fill="#2D5328"/>
<path d="M1.72261 54.0089C2.53325 53.2489 3.64788 52.7929 4.86384 52.7929H11.501V65.0032C10.589 65.0032 9.57568 65.0032 8.66371 65.0032C8.66371 61.8619 8.66371 58.7714 8.66371 55.6301H4.96517C4.10386 55.6301 3.34389 56.0861 3.34389 56.9981C3.34389 57.6567 3.74921 58.3154 4.15453 58.9234L5.72514 61.3553L3.29322 65.0538H0L2.38125 61.406L1.51995 60.038C0.861305 59.0754 0.455985 58.1127 0.455985 56.9474C0.455985 55.7315 0.962635 54.7182 1.72261 54.0089Z" fill="#2D5328"/>
<path d="M61.3553 52.7929V65.0032H58.518V62.0139H52.9956V65.0032H50.1583V52.7929H52.9956V59.6327H58.518V52.7929H61.3553Z" fill="#2D5328"/>
<path d="M78.3788 56.1875C77.3148 55.5795 76.2002 55.1742 75.0349 55.0222V65.0032H72.1976V55.0222C70.9817 55.1742 69.8671 55.5795 68.8031 56.1875L67.8405 54.0595C68.7018 53.5529 69.5631 53.1982 70.5764 52.9449C71.539 52.6916 72.5523 52.5396 73.6163 52.5396C74.6802 52.5396 75.6935 52.6916 76.6562 52.9449C77.6188 53.1982 78.5308 53.6036 79.3921 54.0595L78.3788 56.1875Z" fill="#2D5328"/>
<path d="M88.7651 59.6327V58.0621C88.7651 57.0488 88.5118 56.2888 88.0051 55.7821C87.4985 55.2755 86.8398 55.0222 85.9785 55.0222C85.1172 55.0222 84.4079 55.2755 83.9519 55.7821C83.4453 56.2888 83.192 57.0488 83.192 58.0621V59.6327H88.7651ZM85.9785 52.5902C87.0932 52.5902 88.1065 52.7929 88.9171 53.2489C89.7784 53.7049 90.3864 54.3635 90.893 55.2248C91.349 56.0861 91.6024 57.1501 91.6024 58.366V65.0538H88.7651V62.1153H83.192V65.0538H80.4054V58.366C80.4054 57.1501 80.6587 56.0861 81.1147 55.2248C81.5707 54.3635 82.2293 53.7049 83.0906 53.2489C83.8506 52.7929 84.8639 52.5902 85.9785 52.5902Z" fill="#2D5328"/>
<path d="M73.7682 74.5788C74.7308 74.5788 75.2375 74.9842 75.2375 75.8455C75.2375 76.6561 74.7308 77.1121 73.9202 77.1121H73.3122V74.5788H73.7682ZM73.3122 77.8214H73.9709C74.5788 77.8214 75.1362 77.6187 75.4908 77.2641C75.8455 76.9094 76.0988 76.4028 76.0988 75.8455C76.0988 75.2375 75.8961 74.7815 75.4908 74.4268C75.0855 74.0722 74.5282 73.8695 73.8189 73.8695H72.5522V79.8987H73.3122V77.8214Z" fill="#113D23"/>
<path d="M66.4219 79.2907C65.0033 79.2907 64.1419 78.2267 64.1419 76.8588C64.1419 75.3895 65.1046 74.4269 66.4219 74.4269C67.7392 74.4269 68.7525 75.4402 68.7525 76.8588C68.7525 78.2267 67.8405 79.2907 66.4219 79.2907ZM66.4219 80C68.2458 80 69.5631 78.6827 69.5631 76.8588C69.5631 75.0348 68.2458 73.7176 66.4219 73.7176C64.5979 73.7176 63.2806 75.0348 63.2806 76.8588C63.3313 78.6827 64.6486 80 66.4219 80Z" fill="#113D23"/>
<path d="M58.9234 74.5788C60.95 74.5788 60.8486 77.1121 59.0247 77.1121H58.4167V74.5788H58.9234ZM58.4167 77.8214H59.0754C59.6833 77.8214 60.2406 77.6187 60.5953 77.2641C61.3553 76.5548 61.4059 75.1362 60.5953 74.4268C60.19 74.0722 59.6327 73.8695 58.9234 73.8695H57.6567V79.8987H58.4167V77.8214Z" fill="#113D23"/>
<path d="M37.0868 79.2907C35.6682 79.2907 34.8069 78.2267 34.8069 76.8588C34.8069 75.3895 35.7695 74.4269 37.0868 74.4269C38.4041 74.4269 39.4174 75.4402 39.4174 76.8588C39.3667 78.2267 38.4547 79.2907 37.0868 79.2907ZM37.0868 80C38.9107 80 40.228 78.6827 40.228 76.8588C40.228 75.0348 38.9107 73.7176 37.0868 73.7176C35.2628 73.7176 33.9456 75.0348 33.9456 76.8588C33.9456 78.6827 35.2628 80 37.0868 80Z" fill="#113D23"/>
<path d="M80.8614 74.5788H82.3813V73.8695H78.5308V74.5788H80.0507V79.8987H80.8614V74.5788Z" fill="#113D23"/>
<path d="M31.3617 79.1894H28.9804V77.1628H31.3617V76.4534H28.9804V74.5788H31.3617V73.8695H28.2205V79.8987H31.3617V79.1894Z" fill="#113D23"/>
<path d="M52.2357 77.4161C52.6916 76.2508 53.2996 74.9842 53.8569 73.8695H54.7182L51.8303 79.8987H51.0197L51.7797 78.2267L49.6011 73.8695H50.513C51.0704 75.0348 51.6783 76.2508 52.2357 77.4161Z" fill="#113D23"/>
<path d="M44.4332 76.8588L47.2197 79.848H46.1051C45.2945 78.9361 44.4838 78.0748 43.6732 77.1628C43.6732 78.0748 43.6732 78.9361 43.6732 79.848H42.8625V73.8189H43.6732C43.6732 74.7309 43.6732 75.6935 43.6732 76.6055L46.1051 73.8189H47.1184L44.4332 76.8588Z" fill="#113D23"/>
<path d="M23.0019 74.5788H25.0285V73.8695H22.1913V79.8987H23.0019V74.5788Z" fill="#113D23"/>
<defs>
<linearGradient id="paint0_linear_1528_384" x1="51.6178" y1="0" x2="51.6178" y2="35.3084" gradientUnits="userSpaceOnUse">
<stop stop-color="#8A74B2"/>
<stop offset="1" stop-color="#605294"/>
</linearGradient>
<linearGradient id="paint1_linear_1528_384" x1="51.0602" y1="40.5958" x2="50.9994" y2="0.0283667" gradientUnits="userSpaceOnUse">
<stop stop-color="#E31F25"/>
<stop offset="1" stop-color="#F39425"/>
</linearGradient>
</defs>
</svg>
