<svg width="334" height="143" viewBox="0 0 334 143" fill="none" xmlns="http://www.w3.org/2000/svg">
<mask id="mask0_773_3058" style="mask-type:alpha" maskUnits="userSpaceOnUse" x="136" y="0" width="61" height="73">
<path fill-rule="evenodd" clip-rule="evenodd" d="M163.147 0C148.5 0 136.035 10.5054 136.035 25.4484C136.035 37.0405 143.678 46.278 149.864 55.5155L161.146 72.5415H176.066L157.324 44.2856C153.594 38.6707 148.5 32.6029 148.5 25.5389C148.5 17.3882 155.323 12.4072 163.147 12.4072H184.163C184.163 32.4218 184.163 52.5269 184.163 72.5415H196.627V0C183.89 0 175.884 0 163.147 0Z" fill="white"/>
</mask>
<g mask="url(#mask0_773_3058)">
<path d="M196.536 0H136.035V72.5415H196.536V0Z" fill="white"/>
</g>
<path d="M198.356 106.593H188.166V110.85H198.356V106.593Z" fill="white"/>
<mask id="mask1_773_3058" style="mask-type:alpha" maskUnits="userSpaceOnUse" x="133" y="25" width="64" height="48">
<path fill-rule="evenodd" clip-rule="evenodd" d="M133.943 72.5415H148.863C154.322 64.3002 159.781 56.0589 165.24 47.8176L181.616 72.5415H196.536L165.24 25.2672C154.868 41.0253 144.405 56.7834 133.943 72.5415Z" fill="white"/>
</mask>
<g mask="url(#mask1_773_3058)">
<path d="M196.536 25.2672H133.943V72.5415H196.536V25.2672Z" fill="white"/>
</g>
<path d="M256.674 116.374C258.22 115.559 259.312 114.382 260.222 112.842C261.041 111.303 261.496 109.401 261.496 107.227V100.616V99.3483V94.1862H256.401V99.3483C256.401 99.9823 256.401 100.526 256.401 101.16C256.401 102.609 256.128 104.148 255.036 105.326C254.126 106.231 252.943 106.684 251.397 106.684C249.85 106.684 248.576 106.231 247.758 105.326C246.848 104.42 246.393 103.061 246.393 101.25V94.2768H241.389V100.707C241.389 102.88 241.844 104.782 242.663 106.322C243.482 107.861 244.664 109.039 246.211 109.854C247.758 110.669 249.486 111.031 251.488 111.031C253.216 111.031 254.763 110.759 256.128 110.125C255.946 110.85 255.582 111.484 255.127 111.937C254.217 112.842 253.034 113.295 251.579 113.295H243.209H243.118V117.552C243.3 117.552 243.482 117.552 243.664 117.552H251.488C253.216 117.642 255.036 117.28 256.674 116.374Z" fill="white"/>
<path d="M154.413 106.593V103.786C154.413 101.975 153.958 100.616 153.048 99.7106C152.139 98.8049 150.956 98.3521 149.409 98.3521C147.863 98.3521 146.589 98.8049 145.77 99.7106C144.86 100.616 144.405 101.975 144.405 103.786V106.593H154.413ZM149.5 94.0051C151.502 94.0051 153.321 94.3673 154.777 95.1824C156.324 95.9975 157.415 97.1748 158.325 98.7144C159.144 100.254 159.599 102.156 159.599 104.329V116.284H154.504V111.031H144.496V116.284H139.493V104.329C139.493 102.156 139.947 100.254 140.766 98.7144C141.585 97.1748 142.768 95.9975 144.314 95.1824C145.679 94.3673 147.408 94.0051 149.5 94.0051Z" fill="white"/>
<path d="M127.665 98.6238L127.756 116.193H122.661V94.3673H138.128V98.6238H127.665Z" fill="white"/>
<path d="M118.567 94.3673V116.193H113.564V110.85H103.556V116.193H98.461V94.3673H103.556V106.593H113.564V94.3673H118.567Z" fill="white"/>
<path d="M76.717 96.5409C78.1727 95.1824 80.1742 94.3673 82.3577 94.3673H94.276V116.193C92.6383 116.193 90.8188 116.193 89.1811 116.193C89.1811 110.578 89.1811 105.054 89.1811 99.4389H82.5397C80.993 99.4389 79.6283 100.254 79.6283 101.884C79.6283 103.061 80.3562 104.239 81.084 105.326L83.9043 109.673L79.5373 116.284H73.6237L77.8997 109.763L76.3531 107.318C75.1704 105.597 74.4425 103.877 74.4425 101.794C74.4425 99.62 75.3523 97.8088 76.717 96.5409Z" fill="white"/>
<path d="M183.799 94.3673V116.193H178.705V110.85H168.788V116.193H163.693V94.3673H168.788V106.593H178.705V94.3673H183.799Z" fill="white"/>
<path d="M214.368 100.435C212.458 99.3484 210.456 98.6239 208.364 98.3522V116.193H203.269V98.3522C201.085 98.6239 199.084 99.3484 197.173 100.435L195.445 96.6315C196.991 95.7258 198.538 95.0919 200.358 94.6391C202.086 94.1862 203.906 93.9146 205.816 93.9146C207.727 93.9146 209.547 94.1862 211.275 94.6391C213.004 95.0919 214.641 95.8164 216.188 96.6315L214.368 100.435Z" fill="white"/>
<path d="M233.019 106.593V103.786C233.019 101.975 232.564 100.616 231.654 99.7106C230.745 98.8049 229.562 98.3521 228.015 98.3521C226.469 98.3521 225.195 98.8049 224.376 99.7106C223.466 100.616 223.011 101.975 223.011 103.786V106.593H233.019ZM228.015 94.0051C230.017 94.0051 231.836 94.3673 233.292 95.1824C234.839 95.9975 235.93 97.1748 236.84 98.7144C237.659 100.254 238.114 102.156 238.114 104.329V116.284H233.019V111.031H223.011V116.284H218.008V104.329C218.008 102.156 218.462 100.254 219.281 98.7144C220.1 97.1748 221.283 95.9975 222.829 95.1824C224.194 94.3673 226.014 94.0051 228.015 94.0051Z" fill="white"/>
<path d="M206.089 133.31C207.818 133.31 208.728 134.034 208.728 135.574C208.728 137.023 207.818 137.838 206.362 137.838H205.27V133.31H206.089ZM205.27 139.106H206.453C207.545 139.106 208.546 138.744 209.183 138.11C209.819 137.476 210.274 136.57 210.274 135.574C210.274 134.487 209.91 133.672 209.183 133.038C208.455 132.404 207.454 132.042 206.18 132.042H203.906V142.819H205.27V139.106Z" fill="white"/>
<path d="M192.897 141.732C190.35 141.732 188.803 139.83 188.803 137.385C188.803 134.759 190.532 133.038 192.897 133.038C195.263 133.038 197.082 134.849 197.082 137.385C197.082 139.83 195.445 141.732 192.897 141.732ZM192.897 143C196.173 143 198.538 140.645 198.538 137.385C198.538 134.125 196.173 131.77 192.897 131.77C189.622 131.77 187.257 134.125 187.257 137.385C187.348 140.645 189.713 143 192.897 143Z" fill="white"/>
<path d="M179.432 133.31C183.072 133.31 182.89 137.838 179.614 137.838H178.523V133.31H179.432ZM178.523 139.106H179.705C180.797 139.106 181.798 138.744 182.435 138.11C183.799 136.842 183.89 134.306 182.435 133.038C181.707 132.404 180.706 132.042 179.432 132.042H177.158V142.819H178.523V139.106Z" fill="white"/>
<path d="M140.22 141.732C137.673 141.732 136.126 139.83 136.126 137.385C136.126 134.759 137.855 133.038 140.22 133.038C142.586 133.038 144.405 134.849 144.405 137.385C144.315 139.83 142.677 141.732 140.22 141.732ZM140.22 143C143.496 143 145.861 140.645 145.861 137.385C145.861 134.125 143.496 131.77 140.22 131.77C136.945 131.77 134.58 134.125 134.58 137.385C134.58 140.645 136.945 143 140.22 143Z" fill="white"/>
<path d="M218.826 133.31H221.556V132.042H214.641V133.31H217.371V142.819H218.826V133.31Z" fill="white"/>
<path d="M129.94 141.551H125.664V137.928H129.94V136.661H125.664V133.31H129.94V132.042H124.299V142.819H129.94V141.551Z" fill="white"/>
<path d="M167.423 138.381C168.242 136.298 169.334 134.034 170.335 132.042H171.881L166.695 142.819H165.24L166.604 139.83L162.692 132.042H164.33C165.331 134.125 166.422 136.298 167.423 138.381Z" fill="white"/>
<path d="M153.412 137.385L158.416 142.728H156.415C154.959 141.098 153.503 139.559 152.048 137.928C152.048 139.559 152.048 141.098 152.048 142.728H150.592V131.951H152.048C152.048 133.581 152.048 135.302 152.048 136.932L156.415 131.951H158.234L153.412 137.385Z" fill="white"/>
<path d="M114.928 133.31H118.567V132.042H113.473V142.819H114.928V133.31Z" fill="white"/>
</svg>
