<svg width="36" height="36" viewBox="0 0 36 36" fill="none" xmlns="http://www.w3.org/2000/svg">
<circle cx="18" cy="18" r="18" fill="#FAEDDD"/>
<path d="M25.9075 9.09282C24.626 7.80715 22.9017 7.05963 21.0872 7.0032C19.2727 6.94677 17.5052 7.58569 16.1463 8.78925C14.7875 9.99281 13.9399 11.67 13.777 13.4778C13.6141 15.2856 14.1482 17.0873 15.2701 18.5143L14.3505 19.4337C13.8909 19.0725 13.4969 18.8755 13.3326 19.0398L12.5449 19.8277L15.1714 22.4538L15.9595 21.6659C16.1234 21.5016 15.9263 21.108 15.5654 20.6481L16.4846 19.7291C19.2754 21.9284 23.3466 21.7314 25.9075 19.1708C28.6982 16.3805 28.6982 11.8508 25.9075 9.09282ZM17.0426 10.3076C19.1439 8.20692 22.5912 8.20692 24.6926 10.3076C25.61 11.2334 26.1682 12.4553 26.2676 13.7548H22.427L21.9994 12.4414C21.9663 12.3103 21.8024 12.1788 21.6709 12.2127C21.5937 12.2095 21.5179 12.2343 21.4575 12.2825C21.3971 12.3308 21.3562 12.3992 21.3424 12.4753L20.4232 16.2833L19.1111 11.8195C19.0926 11.7549 19.0539 11.6979 19.0007 11.6568C18.9475 11.6157 18.8826 11.5926 18.8154 11.5909C18.7501 11.5758 18.6815 11.5839 18.6216 11.6139C18.5616 11.6439 18.514 11.6938 18.4869 11.7551L17.3383 13.7575H15.4995C15.572 12.4578 16.1214 11.2305 17.0426 10.3106V10.3076ZM24.6926 17.9565C22.5912 20.0575 19.1439 20.0575 17.0426 17.9565C16.0975 17.0231 15.5354 15.7704 15.4664 14.4441H17.5025C17.5618 14.4445 17.6201 14.4296 17.6718 14.4009C17.7236 14.3721 17.767 14.3304 17.7979 14.2799L18.6839 12.7698L20.1286 17.6939C20.1614 17.8254 20.2929 17.9226 20.4571 17.9226C20.5344 17.9259 20.6102 17.9012 20.6706 17.8529C20.731 17.8046 20.7719 17.7361 20.7856 17.66L21.7384 13.7864L21.8687 14.1819C21.9018 14.3134 22.0329 14.4106 22.1972 14.4106H26.2676C26.2056 15.7476 25.6431 17.0125 24.6918 17.9542L24.6926 17.9565Z" fill="#113D23"/>
<path d="M11.8247 20.5171L7.06105 25.3101C6.79848 25.6054 7.42233 26.4913 8.17727 27.1814C8.80226 27.7392 9.45888 28.166 9.69058 27.9374L14.4493 23.1763L13.3003 22.0275L11.8247 20.5171Z" fill="#113D23"/>
</svg>
