<svg width="36" height="36" viewBox="0 0 36 36" fill="none" xmlns="http://www.w3.org/2000/svg">
<circle cx="18" cy="18" r="18" fill="#FAEDDD"/>
<path d="M27.9654 14.2938L26.6446 9.27892C26.548 8.91288 26.3286 8.58848 26.0209 8.3569C25.7132 8.12532 25.3349 7.99975 24.9455 8H12.052C11.6627 8.00023 11.2846 8.12598 10.977 8.35749C10.6695 8.58899 10.4499 8.91312 10.3528 9.27892L9.15143 13.8394C9.15143 13.8422 9.15143 13.8422 9.14855 13.8455L9.0332 14.2933C9.02844 14.3117 9.02516 14.3304 9.02339 14.3493C8.97489 14.7073 9.00199 15.0712 9.10303 15.4187C9.20407 15.7663 9.37694 16.0902 9.61111 16.3709V27.5896C9.61172 27.9634 9.76505 28.3219 10.0375 28.5862C10.3099 28.8506 10.6793 28.9994 11.0646 29H26.0858C26.471 28.9993 26.8403 28.8504 27.1127 28.5861C27.3851 28.3217 27.5384 27.9634 27.5392 27.5896V16.1716C27.9097 15.6357 28.0648 14.9865 27.9752 14.347C27.9756 14.3279 27.9723 14.3089 27.9654 14.291V14.2938ZM24.9455 8.9403C25.1194 8.93989 25.2884 8.99575 25.4259 9.09905C25.5634 9.20234 25.6614 9.34718 25.7045 9.51063L26.7462 13.4666H23.3531L22.7665 8.9403H24.9455ZM18.9829 8.9403H21.786L22.3628 13.4694H18.9829V8.9403ZM18.9829 14.4103H22.4839L22.526 14.7422C22.5153 15.189 22.3248 15.614 21.9953 15.9262C21.6657 16.2385 21.2234 16.4131 20.7628 16.4129H20.7432C20.2758 16.4123 19.8277 16.2318 19.4971 15.9111C19.1666 15.5903 18.9807 15.1555 18.98 14.7019V14.4103H18.9829ZM15.2109 8.9403H18.014V13.4694H14.6341L15.2109 8.9403ZM14.513 14.4103H18.014V14.7013C18.0135 15.1553 17.8274 15.5906 17.4965 15.9115C17.1656 16.2324 16.7169 16.4127 16.2491 16.4129H16.2295C15.7722 16.413 15.3327 16.2408 15.0038 15.9325C14.6749 15.6243 14.4822 15.2041 14.4663 14.7606L14.513 14.4103ZM11.293 9.51063C11.3361 9.34718 11.4341 9.20234 11.5716 9.09905C11.7091 8.99575 11.8781 8.93989 12.052 8.9403H14.235L13.6438 13.4694H10.2507L11.293 9.51063ZM10.4013 15.8263C10.2391 15.6458 10.1177 15.4342 10.0449 15.2054C9.97206 14.9765 9.94946 14.7354 9.97851 14.4976L10.001 14.4103H13.5193L13.5025 14.5222C13.4996 14.5726 13.4996 14.6224 13.4996 14.6728L13.48 14.8138C13.4491 15.2459 13.2508 15.6507 12.9248 15.9466C12.5989 16.2425 12.1696 16.4077 11.7232 16.409C11.4718 16.4107 11.2229 16.3595 10.9939 16.2588C10.7649 16.1581 10.5611 16.0104 10.3967 15.8257L10.4013 15.8263ZM21.5328 28.0597H15.6146V21.9259C15.6146 21.8642 15.6272 21.8031 15.6515 21.7461C15.6759 21.6891 15.7116 21.6373 15.7566 21.5937C15.8016 21.5501 15.855 21.5155 15.9138 21.4919C15.9725 21.4684 16.0355 21.4563 16.0991 21.4563H21.0506C21.1142 21.4562 21.1773 21.4682 21.2361 21.4918C21.2949 21.5153 21.3483 21.5499 21.3933 21.5935C21.4383 21.6371 21.474 21.689 21.4984 21.746C21.5227 21.8031 21.5352 21.8642 21.5351 21.9259L21.5328 28.0597ZM26.5731 27.5896C26.5732 27.6513 26.5607 27.7125 26.5364 27.7696C26.5121 27.8266 26.4764 27.8785 26.4314 27.9222C26.3864 27.9658 26.333 28.0005 26.2741 28.0241C26.2153 28.0477 26.1523 28.0598 26.0886 28.0597H22.5035V21.9259C22.5032 21.5519 22.35 21.1933 22.0775 20.9287C21.805 20.6642 21.4355 20.5154 21.05 20.5149H16.0985C15.7134 20.5155 15.3441 20.6642 15.0717 20.9285C14.7993 21.1928 14.6459 21.551 14.6451 21.9248V28.0597H11.0582C10.9946 28.0598 10.9317 28.0477 10.8729 28.0241C10.8142 28.0005 10.7608 27.9659 10.7159 27.9223C10.6709 27.8787 10.6353 27.8269 10.611 27.7699C10.5867 27.7129 10.5742 27.6518 10.5743 27.5901V17.1058C11.1605 17.3705 11.8245 17.4244 12.4478 17.2579C13.0712 17.0914 13.6132 16.7153 13.9772 16.1968C14.2252 16.5541 14.5603 16.8463 14.9527 17.0476C15.3451 17.2488 15.7827 17.3528 16.2266 17.3504H16.2491C16.6915 17.3505 17.1274 17.2464 17.5192 17.0469C17.9111 16.8474 18.2471 16.5586 18.4984 16.2052C18.7493 16.5593 19.0851 16.8488 19.477 17.0487C19.8689 17.2486 20.3051 17.3529 20.7478 17.3526H20.7669C21.1409 17.3516 21.5108 17.2767 21.854 17.1323C22.1972 16.988 22.5065 16.7773 22.763 16.5131C22.8564 16.4132 22.9427 16.3074 23.0214 16.1963C23.3996 16.7403 23.9734 17.1279 24.6304 17.2832C25.2875 17.4385 25.9807 17.3503 26.5743 17.0358V27.5896H26.5731ZM26.5985 15.8263C26.3679 16.0829 26.0636 16.2668 25.7246 16.3545C25.3856 16.4422 25.0273 16.4297 24.6957 16.3186C24.3641 16.2075 24.0741 16.0028 23.8631 15.7309C23.6521 15.4589 23.5295 15.132 23.5111 14.792L23.4949 14.6543C23.4949 14.5983 23.4949 14.5507 23.4915 14.4976L23.4817 14.4125H26.9999L27.0224 14.5004C27.051 14.738 27.0279 14.9789 26.9545 15.2073C26.881 15.4357 26.759 15.6466 26.5962 15.8263H26.5985Z" fill="#113D23" stroke="#113D23" stroke-width="0.3"/>
</svg>
