<svg width="543" height="101" viewBox="0 0 543 101" fill="none" xmlns="http://www.w3.org/2000/svg">
<g clip-path="url(#clip0_1064_136)">
<path d="M542.165 88.983C541.574 88.6445 540.913 88.4457 540.234 88.4017C535.01 88.219 529.803 87.7112 524.642 86.8811C523.604 86.7254 522.566 86.5749 521.58 86.3621C520.189 86.0248 518.808 85.6407 517.427 85.2203C515.839 84.7273 514.277 84.1357 512.683 83.6634C510.862 83.1133 509.05 82.5839 507.187 82.1428C505.5 81.738 503.746 81.5771 502.074 81.1048C499.424 80.3789 496.84 79.4292 494.351 78.266C490.993 76.6103 487.759 74.7127 484.676 72.5883C482.547 71.2468 480.246 70.1994 477.835 69.4744C475.996 68.9198 474.247 68.0998 472.645 67.0404C471.682 66.3252 470.649 65.7096 469.562 65.2032C467.221 64.2068 464.683 64.0459 462.181 63.7552C459.679 63.4646 457.043 63.1325 454.494 62.7173C451.785 62.2554 449.107 61.6119 446.397 61.124C443.387 60.5791 440.366 60.1276 437.35 59.6241C434.937 59.2193 432.513 58.8716 430.126 58.3422C428.47 57.9985 426.857 57.4764 425.314 56.7853C423.103 55.7473 421.011 54.4655 418.862 53.2926C415.248 51.3824 411.508 49.7213 407.667 48.3207C406.374 47.8017 405.072 47.2827 403.81 46.7638C401.464 45.7881 399.575 44.1689 397.707 42.4925C397.346 42.2066 397.052 41.8451 396.846 41.4336C396.64 41.0221 396.526 40.5705 396.513 40.1104C396.521 39.9563 396.497 39.8021 396.441 39.658C396.386 39.5138 396.301 39.3829 396.192 39.2738C396.083 39.1646 395.952 39.0797 395.808 39.0244C395.664 38.9692 395.509 38.9449 395.355 38.9531C394.908 38.9447 394.461 38.983 394.021 39.0673C393.051 39.2385 392.085 39.4202 391.12 39.6329C389.563 39.9703 388.006 40.3284 386.449 40.6709C385.146 40.9771 383.853 41.4649 382.54 41.5739C380.127 41.7763 377.693 41.7815 375.274 41.8127C374.896 41.8273 374.519 41.7607 374.169 41.6175C373.819 41.4743 373.504 41.2577 373.244 40.9823C372.893 40.6332 372.447 40.3934 371.962 40.2921C370.924 40.0897 369.886 40.0274 368.812 39.8821C367.608 39.7212 366.388 39.5966 365.204 39.3216C364.431 39.119 363.689 38.8117 362.999 38.4082C361.893 37.8009 360.642 37.2872 359.791 36.4049C357.912 34.4639 356.028 32.6059 353.599 31.324C351.793 30.3691 350.158 29.0924 348.351 28.1427C346.545 27.1929 344.557 26.3937 342.642 25.6152C341.318 25.0711 339.961 24.6135 338.578 24.2451C336.922 23.8144 335.235 23.4926 333.543 23.2072C331.467 22.8647 329.391 22.6882 327.315 22.3197C326.002 22.0966 324.626 21.9824 323.469 21.2299C320.962 19.6521 318.266 18.3983 315.445 17.4984C313.836 16.9864 312.274 16.3406 310.773 15.5678C309.224 14.6785 307.729 13.6995 306.294 12.6355C303.707 10.7921 300.921 9.2445 297.989 8.02177C296.308 7.33671 294.782 6.4233 293.744 4.87154C292.82 3.49624 291.47 2.97724 289.898 2.84231C289.379 2.80079 288.859 2.74371 288.34 2.66067C285.854 2.27144 283.373 1.82512 280.882 1.49816C279.081 1.25943 277.249 1.23868 275.458 1.02071C272.448 0.671572 269.401 1.19583 266.681 2.53093C264.382 3.60003 262.036 4.60685 259.716 5.60329C258.013 6.35063 256.254 6.98379 254.634 7.87644C251.691 9.50085 248.805 11.2446 245.946 13.0144C243.402 14.5713 240.921 16.2424 238.425 17.8876C236.458 19.1799 234.537 20.5448 232.56 21.8215C229.855 23.5756 227.094 25.2416 224.4 27.0113C222.952 27.9714 221.644 29.1391 220.201 30.1252C218.49 31.2484 216.643 32.1501 214.705 32.8084C213.036 33.3685 211.268 33.5735 209.514 33.4104C209.325 33.3951 209.145 33.3247 208.995 33.2079C207.636 32.0818 205.938 31.6977 204.324 31.3552C201.937 30.8362 199.481 30.6701 197.058 30.3172C195.988 30.1615 194.919 29.9903 193.871 29.7308C192.438 29.3779 191.016 28.9679 189.609 28.5164C188.571 28.1842 187.533 27.7586 186.526 27.3435C185.743 27.0269 184.969 26.6688 184.206 26.3055C182.732 25.6464 181.232 25.034 179.789 24.3074C178.232 23.5238 176.675 22.9944 174.905 23.4511C174.441 23.5265 173.966 23.4982 173.514 23.3681C172.274 23.1086 171.085 23.0722 170.016 23.913C169.882 24.0085 169.733 24.0804 169.575 24.1258C166.693 24.9775 164.105 26.6146 162.101 28.8537C161.623 29.2911 161.073 29.6423 160.476 29.8917C160.001 30.0893 159.516 30.2625 159.023 30.4107C156.911 31.2357 154.622 31.4968 152.379 31.1684C150.752 30.9283 149.101 30.8847 147.464 31.0386C145.78 31.3348 144.124 31.7687 142.512 32.3361C141.741 32.6005 140.919 32.686 140.11 32.5862C139.301 32.4864 138.525 32.2039 137.841 31.76C136.834 31.132 135.619 30.8466 134.836 29.845C134.706 29.6789 134.379 29.6374 134.13 29.601C133.149 29.4505 132.479 30.12 131.82 30.639C130.568 31.5992 129.192 32.3865 127.73 32.9796C126.028 33.7114 124.315 34.4431 122.69 35.3306C120.318 36.6177 118.065 38.1383 115.668 39.3787C114.349 40.0533 112.844 40.3699 111.411 40.811C110.14 41.2055 108.79 41.4079 107.586 41.9424C106.44 42.542 105.34 43.2254 104.295 43.9872C100.74 46.2396 97.1691 48.4712 93.6189 50.734C92.7521 51.2893 92.0203 52.0678 91.1275 52.5764C88.8022 53.905 86.4251 55.1713 84.0686 56.4168C82.1002 57.5115 80.067 58.4856 77.9803 59.3335C75.6032 60.2521 73.3817 61.5755 71.1031 62.7484C69.1879 63.7345 67.3712 64.9489 65.0979 65.0319C64.4157 65.0651 63.7415 65.1926 63.0944 65.4108C62.135 65.7137 61.1998 66.0884 60.2968 66.5318C58.6878 67.357 57.1514 68.3275 55.532 69.1267C53.3054 70.2425 51.0476 71.2909 48.7846 72.3081C47.0095 73.1021 45.1928 73.8027 43.4022 74.5553C42.1253 75.0742 40.8381 75.5932 39.6028 76.216C38.6634 76.6883 37.8329 77.3837 36.8986 77.8715C35.3415 78.6915 33.7429 79.4285 32.1495 80.1914C31.0491 80.7104 29.928 81.1878 28.8069 81.6653C27.5975 82.1843 26.383 82.6618 25.1736 83.1652C24.1771 83.5803 23.2065 84.0526 22.1943 84.4055C21.3587 84.7014 20.466 84.8311 19.5992 85.101C18.4832 85.4539 17.3933 85.9002 16.2773 86.2427C15.6752 86.4244 14.9953 86.3777 14.4088 86.5905C12.8206 87.1613 11.2583 87.8204 9.68557 88.438C8.8522 88.8447 7.98356 89.1747 7.09039 89.4241C5.07134 89.8081 3.07305 90.4621 0.965767 90.1766C0.82403 90.1592 0.680686 90.1923 0.560919 90.27C0.365916 90.4451 0.182159 90.6323 0.0107422 90.8305C0.302206 90.8634 0.59645 90.8634 0.887914 90.8305C2.80258 90.9531 4.72495 90.8028 6.59731 90.3842C6.92234 90.3378 7.24334 90.2667 7.55752 90.1714C8.83954 89.6524 10.1216 89.1334 11.3932 88.5729C12.9918 87.8827 14.5853 87.1873 16.3708 87.1302C16.6512 87.1015 16.9268 87.0369 17.1908 86.9382C18.7479 86.4192 20.357 85.9002 21.9244 85.3812C23.03 85.0024 24.12 84.5768 25.1996 84.1409C26.1546 83.7568 27.0837 83.3001 28.0387 82.9161C28.9937 82.532 29.8605 82.3089 30.7377 81.9196C32.0456 81.3332 33.3329 80.6793 34.6045 80.0357C36.1097 79.2728 37.6512 78.5566 39.0942 77.6847C40.5446 76.8114 42.089 76.1046 43.698 75.5776C45.0942 75.1158 46.48 74.5916 47.8503 74.0207C49.4437 73.3253 50.9905 72.526 52.5579 71.7735C54.551 70.8238 56.6012 69.9726 58.5217 68.8932C60.4421 67.8137 62.3003 66.5058 64.6255 66.2982C65.3777 66.282 66.1231 66.1525 66.8366 65.9142C68.5027 65.2291 70.1325 64.4351 71.7467 63.6359C73.4543 62.7847 75.1049 61.8298 76.8229 61.0098C78.1983 60.3507 79.662 59.8836 81.0375 59.2349C82.2312 58.6796 83.3576 57.9893 84.515 57.3562C86.9285 56.0432 89.368 54.7613 91.7556 53.4016C92.8923 52.7528 93.9303 51.9276 95.0411 51.227C97.465 49.6701 99.9096 48.1754 102.344 46.6548L105.079 44.937C104.955 46.4939 104.944 46.4939 104.181 47.5838C103.707 48.2276 103.275 48.9021 102.889 49.6026C102.764 49.8413 102.889 50.2202 102.92 50.5316C103.216 50.4278 103.517 50.3344 103.808 50.215C103.885 50.1839 103.932 50.0749 103.989 50.0022C105.027 48.5127 106.029 47.0077 107.103 45.539C107.459 45.0083 107.887 44.5297 108.375 44.117C109.221 43.4579 110.14 42.8973 111.043 42.3213C111.306 42.1706 111.587 42.0538 111.879 41.9736C112.683 41.7348 113.498 41.522 114.308 41.2833C114.827 41.1224 115.346 40.9304 116.052 40.6969C115.985 40.943 115.905 41.1856 115.813 41.4234C115.341 42.3939 114.905 43.38 114.365 44.3142C113.54 45.7569 112.647 47.1686 111.77 48.5854C111.346 49.3427 110.878 50.074 110.368 50.7755C109.429 51.9536 108.396 53.059 107.415 54.2008C106.942 54.7261 106.498 55.277 106.086 55.8511C105.951 56.0535 106.003 56.3701 105.972 56.6607C106.255 56.6956 106.542 56.6762 106.818 56.6037C107.115 56.4109 107.375 56.1666 107.586 55.8823C108.896 54.4319 110.131 52.9163 111.287 51.3412C113.02 48.7722 114.562 46.0735 116.192 43.4319C116.769 42.3789 117.516 41.4285 118.403 40.619C119.296 39.8821 120.308 39.2126 120.806 38.076C120.863 37.9411 121.04 37.858 121.164 37.7542C122.924 36.3218 125.083 35.6264 127.05 34.5781C127.755 34.2449 128.477 33.9503 129.214 33.6958L129.329 33.8411L128.851 34.3601C128.446 34.822 128.021 35.2631 127.652 35.751C127.595 35.8445 127.562 35.9505 127.554 36.0598C127.547 36.1692 127.566 36.2787 127.611 36.3789C127.707 36.4523 127.818 36.5053 127.936 36.5347C128.053 36.5642 128.176 36.5694 128.296 36.5502C128.521 36.4872 128.721 36.3546 128.867 36.1713C129.583 35.3929 130.252 34.5729 130.984 33.8203C131.363 33.4363 131.431 33.1405 130.891 32.7824C131.81 32.1285 132.661 31.5316 133.486 30.9192C133.87 30.6286 134.135 30.748 134.472 31.0282C135.032 31.4862 135.62 31.9091 136.232 32.2945C136.581 32.4927 136.943 32.6661 137.317 32.8135C137.763 33.0159 137.778 33.2131 137.42 33.592C136.912 34.1724 136.439 34.7824 136.003 35.4188C135.728 35.7977 135.515 36.2232 135.225 36.5917C133.849 38.3147 132.277 39.8924 131.368 41.9476C131.313 42.0841 131.29 42.2317 131.302 42.3786C131.313 42.5255 131.359 42.6676 131.436 42.7936C131.789 43.0738 132.033 42.7936 132.24 42.4407C133.024 40.9615 134.046 39.6218 135.266 38.4756C135.896 37.9395 136.484 37.3566 137.026 36.7319C137.369 36.2949 137.638 35.8038 137.82 35.2787C138.038 34.687 138.884 33.7789 139.445 33.7529C140.716 33.701 141.988 33.6854 143.275 33.6543C143.047 33.9968 142.756 34.3964 142.512 34.8168C142.434 34.9569 142.388 35.2424 142.465 35.3358C142.539 35.403 142.626 35.4524 142.722 35.4803C142.817 35.5082 142.918 35.5138 143.016 35.4967C143.284 35.4176 143.528 35.2732 143.727 35.0763C144.313 34.495 144.853 33.8722 145.429 33.2806C145.662 33.0733 145.906 32.8792 146.161 32.6994C146.237 33.0853 146.221 33.4835 146.114 33.8621C146.008 34.2407 145.814 34.5891 145.548 34.8791C145.029 35.5434 144.51 36.2181 144.054 36.9291C143.908 37.1522 143.981 37.5103 143.955 37.8061C144.246 37.7543 144.651 37.8061 144.811 37.6349C145.85 36.4879 146.888 35.2891 147.926 34.111C147.973 34.0566 148.008 33.9929 148.029 33.9241C148.548 32.3672 150.303 31.8067 151.829 32.3672C152.301 32.5122 152.789 32.5976 153.282 32.6215C155.805 32.8239 158.177 32.1752 160.517 31.3137C161.73 30.8612 162.821 30.1327 163.704 29.1858C164.484 28.4356 165.302 27.7254 166.154 27.058C166.502 26.7674 166.761 26.866 166.855 27.3175C166.948 27.769 167 28.1531 167.114 28.5579C167.353 29.4298 167.67 30.2809 167.857 31.1528C168.174 32.4557 168.403 33.7787 168.542 35.1126C168.651 36.1832 168.565 37.2646 168.287 38.3044C167.811 39.6002 167.244 40.861 166.59 42.0774C166.242 42.8143 165.848 43.5357 165.552 44.2986C165.381 44.7293 165.402 45.2535 165.926 45.4455C166.45 45.6376 166.772 45.1445 166.964 44.7397C167.659 43.4319 168.329 42.1085 169.004 40.7903C170.017 38.9346 170.354 36.7847 169.959 34.7078C169.559 32.6319 169.165 30.6027 168.858 28.5371C168.719 27.87 168.788 27.1762 169.056 26.5494C169.502 25.8861 170.077 25.3195 170.748 24.8835C171.162 24.614 171.629 24.437 172.118 24.3645C172.25 24.3373 172.387 24.3409 172.517 24.3751C172.648 24.4093 172.769 24.4732 172.871 24.5617C172.98 24.7174 172.839 25.0807 172.777 25.3298C172.554 26.2069 172.294 27.0736 172.102 27.961C172.106 28.0675 172.137 28.1713 172.192 28.2622C172.248 28.3531 172.326 28.4282 172.419 28.48C172.529 28.4818 172.638 28.4579 172.737 28.4102C172.836 28.3624 172.923 28.2922 172.99 28.205C173.227 27.8278 173.44 27.436 173.628 27.0321C174.76 24.8524 176.39 23.996 178.445 24.9562C180.002 25.6775 181.559 26.456 183.158 27.1566C184.871 27.9195 186.583 28.7136 188.348 29.3312C190.113 29.9488 192.033 30.4262 193.871 30.9763C194.052 31.0334 194.343 31.2721 194.317 31.3604C193.995 32.6578 194.872 33.2806 195.677 34.002C196.715 34.9258 197.701 35.9119 198.682 36.8927C198.865 37.123 199.016 37.376 199.134 37.6453L198.968 37.749C198.827 37.6401 198.677 37.5363 198.542 37.4169C197.597 36.5606 196.637 35.725 195.713 34.822C194.535 33.701 193.393 32.5488 192.22 31.4278C192.101 31.3085 191.872 31.2981 191.701 31.2358C191.665 31.4292 191.65 31.6257 191.654 31.8223C191.654 31.9468 191.805 32.0558 191.904 32.1544C193.533 33.7944 195.165 35.4327 196.798 37.0692L197.898 38.1694L197.769 38.294C197.125 37.775 196.456 37.3027 195.838 36.763C193.658 34.8583 191.494 32.9277 189.308 31.0231C189.067 30.886 188.804 30.7928 188.53 30.748C188.483 30.8362 188.436 30.9244 188.385 31.0127L191.831 34.713C191.56 34.6657 191.305 34.5515 191.089 34.3809C189.744 33.3896 188.442 32.3309 187.045 31.4123C185.997 30.7531 184.9 30.1737 183.765 29.6789C182.208 28.9575 180.604 28.3451 179.057 27.6029C178.447 27.2483 177.856 26.8602 177.288 26.4404C177.118 26.3314 176.926 26.2615 176.726 26.2358C176.526 26.2101 176.322 26.2292 176.131 26.2918C175.939 26.3544 175.763 26.4589 175.617 26.5977C175.47 26.7365 175.357 26.9062 175.284 27.0944C175.398 27.0944 175.538 27.2033 175.601 27.1618C176.556 26.5961 177.241 27.084 177.926 27.7067C179.395 29.0353 181.253 29.6114 183.038 30.3432C184.072 30.7206 185.067 31.1986 186.007 31.7704C187.518 32.7668 188.929 33.9138 190.383 34.9984C192.142 36.3063 193.897 37.5934 195.303 39.3268C197.177 41.6055 199.467 43.5076 202.051 44.9318C205.227 46.6911 206.867 49.4158 207.449 52.8514C207.776 54.7976 207.968 56.7749 208.113 58.7471C208.176 60.7229 208.553 62.6762 209.229 64.5337C210.039 66.4799 210.07 68.478 210.033 70.4968C210.033 71.9552 209.852 73.4135 209.727 74.8666C209.597 76.2207 210.003 77.5718 210.859 78.6293C211.803 79.8333 212.743 81.0425 213.708 82.2258C214.793 83.5544 215.909 84.8622 217.009 86.1804C217.461 86.6994 217.912 87.2703 218.359 87.8204C220.502 90.4569 223.03 92.6314 226.269 93.7576C227.271 94.1053 227.997 94.5828 228.345 95.6311C228.521 96.0452 228.779 96.4198 229.103 96.7327C229.426 97.0455 229.809 97.2904 230.229 97.4528C230.447 97.5617 230.785 97.4216 231.07 97.3905C230.988 97.1753 230.87 96.9754 230.722 96.7988C229.974 96.2901 229.424 95.5384 229.165 94.671C229.065 94.2076 228.85 93.7771 228.538 93.4195C228.227 93.062 227.83 92.789 227.385 92.6262C226.345 92.269 225.339 91.8192 224.38 91.2821C223.407 90.6229 222.473 89.909 221.582 89.1438C222.568 88.4328 222.62 88.2356 221.977 87.3066C221.618 86.7876 221.162 86.331 220.757 85.8431C220.554 85.5992 220.368 85.3241 220.17 85.075C220.902 84.665 220.938 84.4574 220.435 83.8814C220.34 83.7769 220.236 83.6814 220.124 83.5959C218.665 82.4386 217.191 81.302 215.753 80.1239C215.33 79.7226 214.934 79.2926 214.57 78.8369L214.731 78.6863C215.364 79.2053 215.992 79.7243 216.641 80.2433C217.14 80.6339 217.66 80.9977 218.198 81.3332C218.333 81.4162 218.572 81.3332 218.764 81.3332C218.722 81.1412 218.764 80.8868 218.634 80.7675C218.306 80.4595 217.959 80.1718 217.596 79.906C216.708 79.2903 215.863 78.614 215.068 77.8819C213.9 76.6519 212.914 75.287 211.772 74.0051C210.973 73.1281 211.191 72.225 211.419 71.1092C211.938 71.8514 212.348 72.4897 212.81 73.0969C213.459 73.9325 214.124 74.7629 214.824 75.5569C214.944 75.6918 215.271 75.6451 215.504 75.6866C215.473 75.4583 215.504 75.1677 215.4 75.012C214.611 73.974 213.807 72.9672 212.976 71.9759C211.938 70.7719 210.978 69.5886 211.331 67.8241C211.36 67.4514 211.343 67.0766 211.279 66.7083L211.466 66.6667C211.668 66.9781 211.886 67.2739 212.073 67.5957C212.992 69.1526 213.89 70.7096 214.84 72.2665C214.985 72.5053 215.359 72.5935 215.66 72.7492C215.701 72.4408 215.684 72.1273 215.608 71.8254C215.213 71.0158 214.736 70.2685 214.29 69.4537C214.522 69.6143 214.746 69.7876 214.959 69.9726C215.177 70.0654 215.408 70.1232 215.644 70.1439C215.662 69.9127 215.635 69.6802 215.566 69.4589C214.061 66.8224 212.54 64.1946 211.004 61.5755C210.672 61.015 210.366 60.33 209.852 60.0186C209.655 59.9025 209.5 59.7283 209.407 59.52C209.314 59.3117 209.288 59.0797 209.333 58.8561C209.333 58.3942 209.333 57.9374 209.333 57.4755C209.784 57.9945 210.059 58.6173 210.438 59.1415C211.295 60.3144 212.193 61.4562 213.117 62.5823C213.231 62.7225 213.589 62.6706 213.838 62.7069C213.821 62.4491 213.76 62.1963 213.656 61.9596C213.38 61.6126 213.08 61.2849 212.758 60.9787C213.454 60.6206 213.418 60.631 213.205 59.9407C213.127 59.6968 213.272 59.3906 213.314 59.1104C213.355 58.8301 213.506 58.472 213.386 58.3007C212.213 56.5985 211.056 54.8755 209.753 53.2666C208.666 51.9608 207.847 50.4527 207.345 48.8293C207.589 49.0629 207.713 49.1615 207.817 49.2808C209.322 51.0661 210.807 52.8618 212.333 54.6263C212.655 54.9167 213.013 55.166 213.397 55.3685C213.807 54.7665 213.257 54.4447 212.971 54.1126C211.212 52.0833 209.416 50.08 207.641 48.0612C207.491 47.8648 207.357 47.6566 207.241 47.4385C207.423 47.3866 207.501 47.4021 207.542 47.4385C208.731 48.8086 209.914 50.1839 211.103 51.5488C211.622 52.156 212.141 52.7632 212.732 53.3133C212.862 53.4431 213.22 53.3133 213.469 53.3133C213.483 53.0794 213.451 52.8451 213.376 52.6231C213.192 52.3619 212.979 52.1218 212.743 51.9069C213.329 51.1336 213.324 51.1284 212.598 50.4485C212.416 50.2773 212.125 49.9763 212.177 49.8465C212.489 49.0213 211.85 48.6425 211.466 48.1495C210.054 46.3538 208.637 44.5633 207.215 42.778C206.805 42.259 206.395 41.74 205.995 41.221C205.889 41.0651 205.794 40.9021 205.71 40.7332L205.876 40.5931C206.047 40.7592 206.229 40.9148 206.395 41.1121C206.982 41.7297 207.552 42.3576 208.149 42.9596C208.31 43.1305 208.509 43.2604 208.731 43.3385C208.818 43.3662 208.911 43.3722 209.002 43.3559C209.092 43.3397 209.177 43.3016 209.25 43.2451C209.322 43.162 209.25 42.887 209.177 42.7572C209 42.5057 208.802 42.2696 208.585 42.0514C206.79 40.0897 205.014 38.1072 203.182 36.1765C202.227 35.1801 201.174 34.2822 200.151 33.3481C200.068 33.2702 199.912 33.2754 199.793 33.2443C199.757 33.3896 199.642 33.5868 199.694 33.6802C199.88 33.9796 200.096 34.2595 200.338 34.5158C201.843 36.1713 203.364 37.8113 204.859 39.4773C205.011 39.7034 205.112 39.9603 205.155 40.2298C205.182 40.6086 205.266 40.9811 205.404 41.3352C206.037 42.3265 206.748 43.2658 207.428 44.2208L208.918 46.2967C208.831 46.3039 208.743 46.2918 208.662 46.2613C208.58 46.2308 208.506 46.1826 208.445 46.1202C207.298 44.9681 206.136 43.8263 205.02 42.643C204.848 42.4562 204.869 42.0826 204.817 41.7919C204.765 41.5013 204.817 41.1224 204.672 40.9356C203.946 40.0739 203.171 39.2543 202.352 38.4808C201.475 37.666 200.509 36.9239 199.59 36.1661C199.463 36.0279 199.349 35.8765 199.253 35.7146C199.721 35.9557 200.158 36.2519 200.556 36.5969C200.696 36.7059 200.93 36.6851 201.127 36.7215C201.127 36.5294 201.189 36.2959 201.127 36.1454C200.974 35.8286 200.759 35.546 200.494 35.315C199.383 34.4431 198.236 33.6231 197.12 32.7668C196.637 32.3983 196.201 31.978 195.739 31.5784L195.864 31.3863C196.139 31.3863 196.414 31.4227 196.689 31.4642C198.454 31.7289 200.213 32.1129 201.994 32.2426C203.895 32.4218 205.751 32.9275 207.48 33.7373C208.331 34.111 209.037 34.713 210.075 34.7182C211.581 34.7816 213.087 34.6064 214.539 34.1992C216.929 33.4752 219.188 32.3768 221.234 30.9452C223.414 29.3882 225.542 27.7327 227.774 26.2744C231.07 24.0842 234.449 22.0291 237.766 19.8805C240.361 18.1886 242.956 16.4293 245.52 14.6907C246.226 14.2236 246.958 13.7877 247.674 13.3361L247.908 13.5489C247.171 14.8152 246.501 16.1438 245.686 17.3375C244.306 19.4996 242.813 21.5871 241.212 23.5912C238.688 26.4315 235.84 28.9659 232.726 31.1424C228.617 34.219 224.315 37.0307 219.848 39.5603C218.95 40.0758 218.092 40.6606 217.284 41.3093C217.19 41.4377 217.13 41.5874 217.108 41.745C217.086 41.9027 217.104 42.0632 217.16 42.2123C217.352 42.6171 217.736 42.4822 218.058 42.2486C218.483 41.9528 218.904 41.6518 219.345 41.3871C221.971 39.8302 224.717 38.4185 227.208 36.6592C230.94 34.0331 234.548 31.2151 238.108 28.3555C240.806 26.1288 243.117 23.4723 244.949 20.4929C246.831 17.4731 248.967 14.6188 251.333 11.9608C251.459 11.8239 251.602 11.7035 251.759 11.6027C252.511 11.0837 253.285 10.5959 254.017 10.0458C254.582 9.63059 255.055 9.00782 255.652 8.72238C258.247 7.51315 260.941 6.39215 263.593 5.25039C263.842 5.16136 264.097 5.08856 264.356 5.03243C264.42 5.32242 264.456 5.61783 264.465 5.9147C264.465 6.11191 264.283 6.29355 264.236 6.49076C264.158 6.85365 264.102 7.22113 264.07 7.591C264.044 7.81936 264.148 8.07367 264.07 8.28126C263.81 9.22731 263.497 10.1578 263.131 11.0682C262.587 12.3865 261.947 13.6632 261.216 14.8879C260.458 16.0971 259.461 17.1558 258.62 18.3235C258.454 18.5623 258.553 18.993 258.527 19.3356C258.828 19.2837 259.197 19.3356 259.409 19.1591C259.886 18.7769 260.321 18.3455 260.707 17.872C262.136 16.1715 263.266 14.2413 264.05 12.1632C264.569 10.7672 265.031 9.33998 265.576 7.9543C265.98 6.91633 266.266 5.83167 267.133 5.07395C267.999 4.31624 268.897 3.58966 269.79 2.86308C269.92 2.75929 270.159 2.6555 270.278 2.7074C270.351 2.76055 270.41 2.83008 270.45 2.91035C270.491 2.99061 270.512 3.07932 270.512 3.16927C270.429 4.31622 270.299 5.45797 270.221 6.60492C270.253 6.82793 270.327 7.04284 270.439 7.2381C270.626 7.13949 270.916 7.08239 270.984 6.93189C271.43 5.89392 271.882 4.81964 272.235 3.72978C272.352 3.30443 272.609 2.93126 272.966 2.67113C273.322 2.411 273.756 2.27925 274.197 2.29738C275.375 2.37523 276.553 2.44789 277.731 2.49979C278.692 2.54131 278.925 2.76967 278.92 3.74536C278.92 5.44762 278.858 7.1447 278.92 8.84177C278.931 9.12009 278.885 9.39768 278.786 9.65803C278.687 9.91838 278.537 10.1562 278.344 10.3572C277.072 11.8311 275.842 13.3517 274.602 14.8568C274.155 15.3757 273.776 16.0037 273.288 16.5071C271.903 17.9447 270.47 19.3511 269.069 20.7732C268.788 21.0534 268.55 21.3907 268.908 21.7592C268.978 21.8324 269.063 21.8901 269.157 21.9283C269.251 21.9666 269.352 21.9845 269.453 21.9811C269.554 21.9777 269.654 21.9529 269.745 21.9084C269.836 21.8639 269.917 21.8007 269.982 21.7229C272.141 19.8961 274.103 17.9187 275.5 15.4017C276.358 14.023 277.301 12.6988 278.323 11.4367C278.551 11.1305 278.79 10.8295 279.024 10.5285C279.194 10.7775 279.283 11.0729 279.278 11.3744C279.278 12.7393 279.159 14.1198 279.278 15.4743C279.428 16.9188 279.669 18.3523 280 19.7663C280.214 20.4637 280.472 21.1466 280.773 21.8111C280.934 22.2626 281.199 22.7868 280.565 23.1034C278.19 24.2649 276.064 25.8778 274.306 27.852C272.354 30.0629 269.634 31.2877 267.2 32.7928C265.046 34.111 262.835 35.3306 261.008 37.0951C260.507 37.558 260.114 38.1248 259.856 38.7559C259.201 40.5602 258.072 42.1543 256.586 43.3696C255.288 44.4595 253.939 45.4871 252.574 46.4835C250.648 47.9107 248.717 49.3483 246.729 50.6976C244.43 52.2546 242.105 53.7804 239.722 55.2024C238.451 55.9135 237.129 56.5293 235.767 57.0448C234.485 57.5638 233.172 57.9634 231.854 58.4512C229.456 59.3508 227.065 60.2625 224.681 61.1863C223.741 61.5496 222.823 61.9699 221.909 62.3955C221.774 62.4578 221.717 62.7017 221.624 62.8626C221.831 62.8626 222.07 62.9923 222.246 62.9301C223.207 62.5771 224.146 62.1568 225.111 61.8091C226.544 61.2901 227.997 60.8126 229.43 60.2936C230.712 59.8317 231.984 59.3335 233.26 58.8664C234.74 58.3474 236.229 57.8285 237.698 57.2628C238.456 56.9721 239.172 56.5777 239.987 56.1937C239.868 56.8372 239.738 57.3562 239.686 57.8856C239.686 58.0828 239.831 58.2955 239.909 58.5031C240.102 58.4089 240.289 58.3032 240.47 58.1866C240.565 58.1147 240.633 58.012 240.662 57.8959C240.823 56.7438 241.783 56.0691 242.307 55.1349C242.433 54.838 242.623 54.5723 242.863 54.3565C245.141 52.8462 247.435 51.3619 249.724 49.8776C249.917 49.786 250.119 49.713 250.326 49.6597C250.086 50.047 249.881 50.4552 249.714 50.8793C249.652 51.0973 249.807 51.3983 249.859 51.6214C250.088 51.554 250.378 51.5488 250.523 51.4035C250.745 51.1322 250.943 50.8422 251.115 50.5368C251.769 49.6182 252.392 48.6788 253.113 47.8225C253.285 47.6149 253.793 47.6824 254.152 47.6201C254.212 47.8757 254.251 48.1362 254.266 48.3986C254.266 48.6269 254.136 48.8553 254.12 49.0836C254.127 49.3341 254.162 49.583 254.224 49.8258C254.453 49.6908 254.78 49.613 254.899 49.4106C255.177 48.9467 255.4 48.4521 255.563 47.9367C255.745 47.5353 255.808 47.0907 255.745 46.6548C255.475 45.8504 255.859 45.4144 256.373 44.9577C257.112 44.368 257.806 43.7244 258.449 43.0323C259.249 42.1424 259.931 41.1534 260.479 40.0897C260.998 38.9635 261.569 37.9411 262.607 37.2612C264.61 35.9482 266.624 34.6352 268.669 33.3844C271.223 31.8275 273.896 30.421 275.935 28.1531C277.206 26.8229 278.656 25.677 280.244 24.7485C280.409 24.6599 280.583 24.5886 280.763 24.5358L280.892 24.6655C280.493 25.4492 280.607 26.4145 279.823 27.084C278.572 28.0834 277.393 29.169 276.294 30.3328C275.166 31.6901 274.118 33.111 273.153 34.5885C271.176 37.4273 269.276 40.2972 267.257 43.1309C266.063 44.7916 264.61 46.2448 263.427 47.9367C261.452 50.6754 259.084 53.1079 256.399 55.1557C254.094 56.941 251.593 58.4772 249.221 60.1743C247.897 61.1188 246.626 62.1568 245.38 63.174C245.211 63.3608 245.07 63.5704 244.959 63.7967C245.051 63.8303 245.149 63.8439 245.247 63.8368C245.344 63.8296 245.439 63.8018 245.525 63.7552C246.6 63.0235 247.658 62.2813 248.728 61.5496C250.747 60.1639 252.719 58.7004 254.806 57.3977C257.462 55.6974 259.884 53.656 262.01 51.3256C263.141 50.132 264.086 48.7722 265.124 47.4903C266.162 46.2085 267.2 44.9837 268.197 43.7018C269.079 42.5704 269.92 41.4027 270.75 40.235C271.472 39.197 272.193 38.2006 272.858 37.1211C274.383 34.574 276.207 32.2184 278.292 30.1044C279.43 29.0669 280.513 27.9703 281.536 26.8193C281.775 26.5338 282.003 26.238 282.231 25.9422C282.465 26.2588 282.704 26.565 282.922 26.8919C283.638 27.8325 284.072 28.9576 284.173 30.1356C284.282 33.0574 284.287 35.9793 284.339 38.9012C284.313 39.091 284.33 39.284 284.388 39.4666C284.445 39.6492 284.543 39.8168 284.672 39.9575C284.802 40.0983 284.962 40.2086 285.139 40.2808C285.316 40.353 285.507 40.3852 285.699 40.3751C286.389 40.4363 287.084 40.4363 287.775 40.3751C288.042 40.3371 288.315 40.3645 288.57 40.4549C288.825 40.5453 289.054 40.6959 289.238 40.8941C289.493 41.057 289.777 41.1698 290.074 41.2262C290.027 40.9564 289.975 40.7072 289.934 40.4166C289.927 40.3719 289.927 40.3264 289.934 40.2817C290.972 40.0637 292.01 40.4581 292.067 41.2314C292.19 42.0973 292.142 42.9787 291.927 43.8263C291.408 45.6012 290.598 47.2931 290.084 49.0732C289.722 50.1345 289.776 51.2937 290.235 52.3169C291.285 54.3301 292.771 56.0837 294.584 57.4496C295.839 58.5135 296.88 59.8062 297.652 61.2589C297.793 61.7023 297.902 62.1549 297.979 62.6135C298.69 64.5285 299.463 66.4176 300.154 68.3223C300.73 69.9311 301.358 71.54 301.14 73.3201C301.072 73.8391 301.14 74.41 301.104 74.9445C301.045 75.4114 301.089 75.8854 301.233 76.3335C301.376 76.7817 301.615 77.1932 301.934 77.5394C302.943 78.7389 303.479 80.2647 303.444 81.8314C303.411 82.7057 303.508 83.58 303.73 84.4263C304.284 86.0296 304.953 87.5907 305.733 89.0971C306.193 89.9624 306.937 90.642 307.841 91.0204C308.744 91.3989 309.751 91.4528 310.69 91.173C310.934 91.1056 311.105 90.7631 311.313 90.5451C311.074 90.4673 310.825 90.2908 310.602 90.3219C308.671 90.5814 307.664 90.0313 306.72 88.3446C305.412 85.937 304.71 83.2474 304.675 80.508C304.686 79.7298 304.457 78.967 304.021 78.3231C303.4 77.6239 302.942 76.7958 302.68 75.8983C302.418 75.0009 302.358 74.0565 302.505 73.1332C302.506 72.8283 302.493 72.5234 302.463 72.2198C302.496 72.0112 302.548 71.8061 302.619 71.6074C303.574 72.7907 305.277 76.4859 305.214 77.2384C305.087 77.0216 304.943 76.8151 304.783 76.6208C304.624 76.4851 304.45 76.3668 304.264 76.2679C304.24 76.4927 304.259 76.72 304.322 76.9374C304.996 78.1258 305.723 79.2832 306.398 80.4768C306.458 80.6179 306.489 80.7697 306.489 80.9232C306.489 81.0766 306.458 81.2284 306.398 81.3695C306.269 81.5665 306.204 81.7989 306.214 82.0343C306.223 82.2697 306.305 82.4963 306.45 82.6825C307.555 84.2083 308.624 85.7549 309.735 87.2755C310.306 88.054 310.913 88.8325 311.536 89.5383C311.65 89.6784 311.931 89.6784 312.133 89.7407C312.133 89.5019 312.185 89.2217 312.066 89.0452C311.489 88.246 310.846 87.4883 310.249 86.7046C309.263 85.4106 308.289 84.108 307.327 82.7967C307.083 82.4646 306.938 82.1324 307.358 81.7587C307.524 81.6082 307.498 81.2086 307.498 80.9232C307.471 80.7417 307.413 80.5661 307.327 80.4042C308.266 81.603 309.097 82.8278 309.964 84.037C310.188 84.2639 310.441 84.461 310.716 84.6235L310.924 84.4419C310.846 84.196 310.745 83.9579 310.623 83.7309C310 82.7915 309.325 81.8781 308.718 80.9284C306.958 78.1766 305.448 75.2725 304.207 72.251C303.953 71.6282 303.232 71.213 302.723 70.694C302.567 70.5383 302.323 70.419 302.256 70.2373C301.68 68.6441 301.145 67.0404 300.585 65.4471C300.476 65.1357 300.309 64.8399 300.169 64.5389L300.372 64.3884C300.662 64.705 300.969 65.006 301.238 65.3433C301.633 65.8623 302.344 66.2619 301.716 67.0663C301.659 67.1442 301.716 67.3466 301.768 67.466C301.909 67.8371 302.082 68.1949 302.287 68.5351C303.258 69.9519 304.244 71.3531 305.235 72.7544C305.371 72.9612 305.547 73.1378 305.754 73.2734C305.919 73.3382 306.096 73.3699 306.273 73.3668C306.273 73.1748 306.33 72.936 306.237 72.7959C305.868 72.225 305.453 71.6801 305.053 71.13C304.223 69.9882 303.387 68.8516 302.572 67.6995C302.469 67.4976 302.392 67.283 302.344 67.0612L302.562 66.9366C303.117 67.6164 303.709 68.2807 304.223 69.0125C305.064 70.1802 305.848 71.3843 306.678 72.5572C306.787 72.7129 307.041 72.7648 307.228 72.8686C307.267 72.6349 307.267 72.3964 307.228 72.1627C307.104 71.7683 306.88 71.405 306.735 71.0158C306.628 70.542 306.466 70.0822 306.252 69.6457C304.763 67.5698 303.232 65.4938 301.7 63.4179C301.544 63.2462 301.37 63.0914 301.181 62.956C301.15 64.077 302.079 64.6479 302.375 65.5509C301.856 65.1305 301.42 64.6219 300.948 64.1652C300.643 63.9114 300.32 63.679 299.982 63.4698L299.816 63.6151C299.645 63.0961 299.474 62.5771 299.297 62.0893C299.176 61.4916 298.961 60.917 298.659 60.387C297.59 59.0221 296.427 57.7247 295.264 56.4324C294.226 55.301 293.121 54.2527 292.114 53.1005C291.752 52.7374 291.481 52.2936 291.324 51.8055C291.167 51.3173 291.128 50.7989 291.211 50.2929C291.449 49.1511 291.813 48.0353 292.15 46.9143C292.529 45.6583 292.996 44.4232 293.308 43.1517C293.398 42.4808 293.413 41.802 293.354 41.1276C293.624 41.5282 293.874 41.9422 294.102 42.368C294.174 42.5185 294.102 42.7416 294.102 42.9337C294.102 43.2451 293.988 43.6291 294.102 43.8575C294.844 45.1134 295.659 46.3278 296.422 47.5682C296.879 48.3 297.299 49.0577 297.73 49.7998C298.005 50.1112 298.296 50.407 298.54 50.7392C298.955 51.3049 299.328 51.9069 299.744 52.4777C299.837 52.6023 300.05 52.6386 300.211 52.7165C300.263 52.5321 300.304 52.345 300.335 52.156C300.323 52.0629 300.29 51.974 300.237 51.8965C299.77 50.8949 299.297 49.9036 298.841 48.8968C298.753 48.6533 298.683 48.4035 298.633 48.1495L298.825 48.0508C299.105 48.4401 299.344 48.8501 299.676 49.2134C299.831 49.3461 300.006 49.453 300.195 49.5299C300.245 49.298 300.254 49.0591 300.221 48.8241C300.105 48.5645 299.951 48.3232 299.764 48.1079C298.685 46.6236 297.636 45.1134 296.505 43.6706C295.373 42.2279 294.19 40.8889 293.017 39.4876C292.809 39.5707 292.602 39.7368 292.498 39.6849C291.965 39.4963 291.455 39.2491 290.977 38.9479C290.806 38.8285 290.816 38.4289 290.728 38.185C290.676 38.031 290.601 37.8858 290.505 37.7542C289.119 35.9118 287.718 34.0799 286.353 32.2271C286.001 31.7344 285.69 31.2136 285.423 30.6701C285.365 30.4503 285.349 30.2213 285.377 29.9954C285.735 30.1843 286.045 30.4545 286.28 30.7843C287.837 33.0056 289.363 35.232 290.915 37.4532C291.129 37.7629 291.38 38.0453 291.662 38.294C291.761 38.3822 292 38.294 292.181 38.294C292.213 38.1224 292.213 37.9466 292.181 37.775C292.074 37.586 291.944 37.4115 291.792 37.256C291.525 36.9481 291.338 36.5792 291.247 36.1818C291.157 35.7844 291.166 35.3709 291.273 34.9777C292.02 36.135 292.69 37.1574 293.391 38.2369C293.483 38.1664 293.559 38.0776 293.616 37.976C293.672 37.8745 293.706 37.7624 293.717 37.6469C293.728 37.5313 293.714 37.4149 293.678 37.3047C293.641 37.1946 293.582 37.0932 293.505 37.0069C292.394 35.1732 291.287 33.3394 290.183 31.5057C290.069 31.3085 289.908 31.0334 289.965 30.8622C290.193 30.1667 289.783 29.7412 289.415 29.3052C288.652 28.3451 287.858 27.4058 287.136 26.4197C285.403 24.0687 283.705 21.6917 281.982 19.3356C281.91 19.2318 281.718 19.2162 281.577 19.1591C281.526 19.2992 281.396 19.4809 281.442 19.5847C281.625 19.9636 281.833 20.3295 282.065 20.6797C282.387 21.1987 282.725 21.6606 283.103 22.2107C281.936 22.3405 280.353 18.8685 280.742 17.3064C280.847 17.3575 280.944 17.422 281.032 17.4984C282.994 19.8805 284.972 22.2471 286.898 24.6603C287.936 25.9422 288.859 27.3071 289.825 28.6409C290.863 30.0889 291.901 31.5368 292.939 33.0004C293.723 34.1214 294.496 35.2631 295.259 36.3789C295.353 36.5139 295.591 36.545 295.778 36.6229C295.838 36.4346 295.871 36.239 295.877 36.0416C295.877 35.8911 295.732 35.751 295.648 35.6108C294.091 33.1457 292.534 30.6909 291.045 28.205C289.763 26.0927 288.595 23.9182 287.287 21.8319C285.454 18.9725 283.341 16.3023 280.98 13.8603C280.705 13.5056 280.522 13.0882 280.447 12.6455C280.371 12.2027 280.407 11.7482 280.55 11.3225C280.685 11.6606 280.848 11.987 281.038 12.2982C283.114 15.1976 285.216 18.0935 287.344 20.9859C287.77 21.5724 288.283 22.0965 288.688 22.6934C289.576 24.0012 290.401 25.3506 291.283 26.6584C291.54 27.0542 291.872 27.3961 292.259 27.6652C292.488 27.8157 292.882 27.7068 293.199 27.7119C293.199 27.4109 293.313 27.0528 293.199 26.8245C292.943 26.4535 292.655 26.1061 292.337 25.7865C292.114 25.5011 291.922 25.1897 291.714 24.8887L291.88 24.7797C292.508 25.4128 293.126 26.0512 293.764 26.6636C294.128 27.0113 294.59 27.1462 294.963 26.7518C295.337 26.3574 295.02 26.02 294.761 25.7138C292.892 23.3265 291.026 20.934 289.161 18.5363C288.77 18.0633 288.422 17.5561 288.122 17.0209C287.157 15.1681 286.342 13.2323 285.273 11.4418C283.944 9.22579 282.418 7.12394 280.965 4.98054C280.872 4.8456 280.643 4.80408 280.477 4.71585C280.477 4.93383 280.404 5.1985 280.477 5.35419C281.515 7.01493 282.553 8.66011 283.591 10.3157C284.007 10.98 284.417 11.6546 284.832 12.3241L284.645 12.4383C283.934 11.5664 283.223 10.6945 282.501 9.8434C282.091 9.35037 281.531 8.97669 281.562 8.18265C281.562 8.0062 280.96 7.61177 280.69 7.66367C280.249 7.73633 280.415 8.15669 280.576 8.46808C280.708 8.76923 280.859 9.06213 281.027 9.34517C282.553 11.5249 284.095 13.6942 285.626 15.8688C286.192 16.6784 286.742 17.4984 287.297 18.3184L287.152 18.417C286.949 18.1938 286.737 17.981 286.55 17.7475C284.873 15.6716 283.171 13.5956 281.551 11.4263C280.918 10.5803 279.994 9.86934 279.958 8.6653C279.875 6.80734 279.761 4.94939 279.678 3.09144C279.678 2.96688 279.807 2.83195 279.875 2.7022C280.025 2.79043 280.228 2.83712 280.321 2.97205C280.84 3.69863 281.266 4.45635 281.759 5.18811C282.88 6.84367 284.032 8.47329 285.133 10.1392C287.043 13.0455 288.932 15.9656 290.801 18.8996C292.164 21.1883 293.757 23.3324 295.555 25.2987C295.741 25.5125 295.954 25.7009 296.188 25.8592C296.593 26.1083 296.832 25.9111 296.842 25.4855C296.835 25.2502 296.761 25.0218 296.629 24.8264C296.204 24.1777 295.737 23.5601 295.301 22.9114C293.879 20.8095 292.399 18.7595 291.06 16.5798C288.745 12.8073 286.142 9.21909 283.275 5.84723C282.615 5.07914 281.993 4.29029 281.365 3.48587C281.298 3.35331 281.251 3.21169 281.224 3.0655C281.377 3.03908 281.532 3.02519 281.686 3.02397C283.243 3.20042 284.801 3.3561 286.311 3.59484C286.798 3.66106 287.252 3.87478 287.614 4.20723C288.44 5.08185 289.207 6.01123 289.908 6.989C292.633 10.7983 295.316 14.644 298.036 18.4585C298.898 19.6677 299.811 20.8354 300.735 21.9979C300.849 22.1485 301.155 22.1484 301.379 22.2159C301.369 21.9839 301.318 21.7554 301.228 21.5412C299.536 19.102 297.823 16.6784 296.131 14.2392C295.711 13.6423 295.342 13.0092 294.953 12.3916C295.021 12.3841 295.091 12.3956 295.153 12.4249C295.215 12.4542 295.268 12.5002 295.306 12.5577C296.91 14.5609 298.508 16.5746 300.123 18.5727C300.393 18.9294 300.717 19.2426 301.083 19.5016C301.28 19.6314 301.602 19.5432 301.898 19.5587C301.892 19.2841 301.841 19.0123 301.747 18.7543C301.521 18.426 301.265 18.1186 300.984 17.8357C298.301 14.7218 295.633 11.5612 292.929 8.45253C292.477 7.93355 292.098 7.20696 291.195 7.30037C291.086 7.30037 290.946 7.09797 290.842 6.97861C290.588 6.69836 290.354 6.40253 290.105 6.12228C289.519 5.45798 288.927 4.80406 288.309 4.10862C290.199 3.80761 292.415 4.6899 292.706 5.87837L291.631 5.17772L291.47 5.33864C291.574 5.51933 291.69 5.69273 291.818 5.85762C292.68 6.85407 293.572 7.82456 294.413 8.83657C295.695 10.3935 296.931 11.9505 298.202 13.5074C299.219 14.7495 300.258 15.9726 301.316 17.1766C301.472 17.3531 301.835 17.3634 302.085 17.4517C302.027 17.1922 301.981 16.9327 301.908 16.6784C301.866 16.5952 301.809 16.5197 301.742 16.4552L295.514 8.92999C295.29 8.66011 295.078 8.36949 294.86 8.08924C295.463 8.25114 296.04 8.49935 296.572 8.82618C296.729 8.96954 296.849 9.1472 296.925 9.34517C297.082 9.68175 297.27 10.0031 297.486 10.3053C299.417 12.4642 301.361 14.6094 303.32 16.7407C303.516 16.8804 303.736 16.9841 303.969 17.0469C303.969 16.7718 304.098 16.4241 303.969 16.2321C303.491 15.3928 302.925 14.6064 302.282 13.8863C301.021 12.6199 299.645 11.4678 298.327 10.2534C298.145 10.0925 297.995 9.89528 297.699 9.56832C297.924 9.57645 298.148 9.60599 298.368 9.65654C299.112 9.95388 299.835 10.3006 300.533 10.6945C302.796 12.0785 305.045 13.5057 307.28 14.9761C307.683 15.3177 308.02 15.7312 308.271 16.1957C308.547 16.6213 308.661 17.1922 309.008 17.5243C310.047 18.5208 310.332 19.8286 310.711 21.1053C311.178 22.6934 311.619 24.2918 312.107 25.8799C312.149 26.0149 312.419 26.0875 312.579 26.1861C312.665 26.0216 312.732 25.8473 312.777 25.6672C312.837 25.2943 312.877 24.9183 312.896 24.541C312.925 24.1956 312.925 23.8484 312.896 23.503C312.834 23.2532 312.758 23.0071 312.668 22.766C312.372 21.5568 312.071 20.3528 311.816 19.1332C311.759 18.8737 311.785 18.4377 311.951 18.3184C312.102 18.1873 312.278 18.0873 312.467 18.024C312.657 17.9608 312.858 17.9356 313.057 17.9499C314.941 18.5986 316.799 19.3304 318.652 20.0673C319.016 20.2126 319.472 20.3268 319.41 20.9288C319.329 21.4621 319.329 22.0044 319.41 22.5377C319.614 23.752 319.455 24.9994 318.953 26.1239C318.432 27.2993 317.848 28.4462 317.204 29.5595C316.597 30.7065 315.958 31.8275 315.387 32.99C315.201 33.3636 314.759 33.9345 315.387 34.2096C315.906 34.4483 316.099 33.81 316.291 33.4311C317.796 30.4579 319.531 27.6069 321.481 24.9042C321.699 24.598 321.891 24.3022 322.446 24.4527C323.168 24.6447 324.123 24.0894 324.522 23.3317L322.965 23.6328C323.516 23.1138 323.874 22.9633 324.481 23.1138C326.038 23.4615 327.673 23.6898 329.272 23.9545C330.351 24.1362 331.431 24.2919 332.536 24.4735C331.882 25.1446 331.164 25.7512 330.393 26.2847C329.23 26.9387 328.675 27.987 328.161 29.0924C328.042 29.3467 328.161 29.7048 328.161 30.0162C328.453 29.9538 328.732 29.8415 328.986 29.6841C329.931 28.8018 330.829 27.8728 331.753 26.975C332.791 25.9681 334.042 25.9733 335.152 26.2017C336.118 27.2397 335.334 27.8469 334.763 28.4904C334.732 28.5216 334.69 28.5631 334.69 28.6046C334.69 28.9263 334.69 29.2429 334.659 29.5647C334.929 29.4402 335.318 29.3883 335.453 29.1755C336.211 27.9766 337.348 27.577 338.677 27.4369C339.258 27.4044 339.822 27.2259 340.317 26.9179C340.518 26.7608 340.765 26.6717 341.02 26.6633C341.276 26.6549 341.527 26.7277 341.739 26.8712C341.931 26.9542 342.139 27.0113 342.331 27.0944C343.825 27.7327 345.445 28.0752 346.55 29.5024C347.069 30.146 346.976 30.4989 346.55 31.1424C346.073 30.5663 345.647 30.0422 345.201 29.5387C345.025 29.3429 344.826 29.1687 344.609 29.0198C344.568 29.0198 344.334 29.1443 344.339 29.1651C344.394 29.4033 344.487 29.6311 344.614 29.8398C345.133 30.5767 345.736 31.2981 346.301 32.0247C346.084 31.9788 345.889 31.8619 345.746 31.6925C344.863 30.7428 343.992 29.7827 343.104 28.8381C342.969 28.7393 342.818 28.6639 342.658 28.615C342.616 28.807 342.502 29.0301 342.559 29.1806C342.681 29.4359 342.842 29.6705 343.036 29.8761C343.639 30.6027 344.246 31.3189 344.848 32.0506C347.625 35.4344 350.448 38.7974 352.831 42.477C353.215 43.0738 353.573 43.6862 354.004 44.2467C354.139 44.4232 354.466 44.4595 354.704 44.5633C354.771 44.318 354.819 44.0682 354.85 43.8159C354.829 43.6755 354.772 43.543 354.684 43.4319C354.357 42.9129 354.03 42.3939 353.692 41.875C353.101 40.9667 352.499 40.0637 351.902 39.1555C352.938 40.1855 353.916 41.2736 354.829 42.4147C355.022 42.7079 355.296 42.9387 355.617 43.0787C355.939 43.2188 356.294 43.2622 356.64 43.2035C357.211 43.1101 357.383 42.9077 357.102 42.3732C356.921 42.0203 356.723 41.6777 356.531 41.3352L356.656 41.2574L358.416 42.8143C358.493 42.5133 358.566 42.3888 358.535 42.3472C355.587 38.7559 352.633 35.1697 349.675 31.5887C350.56 32.2301 351.405 32.9233 352.208 33.6647C354.667 36.0364 356.924 38.609 358.955 41.356C359.306 41.8005 359.692 42.2169 360.108 42.6015C360.211 42.7053 360.435 42.7001 360.601 42.7416C360.652 42.5538 360.678 42.3602 360.679 42.1656C360.679 42.041 360.533 41.9269 360.45 41.8127C359.796 40.9512 359.147 40.0845 358.483 39.2178C356.371 36.4879 354.139 33.8723 351.216 31.952C351.091 31.8418 350.978 31.7183 350.879 31.5835C351.333 31.725 351.765 31.9257 352.166 32.1804C353.853 33.2183 355.675 34.0331 356.983 35.5953C358.463 37.4088 360.352 38.8458 362.495 39.7886C364.379 40.6034 366.243 41.4234 368.371 41.3456C369.101 41.3442 369.83 41.405 370.551 41.5272C371.353 41.5768 372.115 41.8949 372.715 42.4303C373.377 42.9581 374.07 43.4451 374.791 43.8886C375.027 44.064 375.235 44.274 375.409 44.5114C375.508 44.6958 375.594 44.8865 375.668 45.0823C376.083 45.8088 376.54 46.5146 376.93 47.2516C377.122 47.6201 377.288 47.9678 377.76 47.7706C378.232 47.5734 378.154 47.1686 377.994 46.8001C377.734 46.1981 377.443 45.6064 377.163 45.0096C376.644 43.8626 376.976 43.406 378.227 43.3125C380.303 43.1568 382.379 42.9908 384.456 42.6327C386.392 42.2953 388.281 41.6933 390.201 41.2366C390.311 41.2318 390.42 41.2491 390.522 41.2874C390.625 41.3258 390.719 41.3844 390.798 41.4598C392.039 42.5289 392.62 43.9976 393.123 45.4923C393.158 45.6548 393.158 45.8228 393.123 45.9853C392.667 46.1046 392.117 46.1098 392.049 46.2915C392.001 46.4732 391.992 46.663 392.024 46.8483C392.055 47.0336 392.126 47.21 392.231 47.3658C393.054 48.4819 393.961 49.5334 394.945 50.5108C395.576 51.1346 396.111 51.8481 396.534 52.6283C396.809 53.0954 397.053 53.578 397.354 54.0295C397.498 54.1753 397.665 54.2978 397.847 54.3928L398.044 54.2631C397.976 53.99 397.891 53.7213 397.79 53.4586C397.582 53.0071 397.348 52.5712 397.11 52.1404C396.471 50.9623 396.025 49.5974 395.127 48.6736C394.229 47.7498 394.302 46.5977 393.861 45.5909C393.75 45.3048 393.699 44.9994 393.71 44.693C393.712 44.5953 393.734 44.499 393.774 44.4099C393.814 44.3208 393.872 44.2406 393.944 44.174C394.753 43.6551 394.925 43.1984 394.426 42.3732C394.089 41.8231 393.668 41.3352 393.196 40.6761C393.653 40.5671 394.042 40.4529 394.442 40.3855C395.008 40.2921 395.309 40.4893 395.355 41.1328C395.381 41.5727 395.537 41.9952 395.802 42.3472C397.231 44.1066 398.96 45.5999 400.909 46.7586C403.071 47.8868 405.288 48.9053 407.553 49.8102C409.535 50.6613 411.596 51.336 413.542 52.265C416.272 53.5728 418.977 54.9637 421.603 56.4687C423.43 57.5067 425.501 58.171 427.048 59.6812C427.396 60.0198 427.679 60.4191 427.883 60.8593C428.574 62.4578 429.368 63.9732 430.857 64.9852C432.381 65.9917 433.56 67.4406 434.236 69.1371C434.314 69.3187 434.568 69.4277 434.755 69.5678L434.958 69.3706C434.508 67.5905 433.52 65.9922 432.129 64.7932C430.959 63.8354 430.045 62.6011 429.472 61.2018C429.32 60.735 429.211 60.2557 429.145 59.7694C430.702 60.0082 432.139 60.2158 433.572 60.4493C435.004 60.6828 436.593 60.9683 438.098 61.207L444.98 62.3903C446.283 62.6135 447.576 62.8159 448.884 63.0442C449.922 63.2241 450.96 63.4213 451.998 63.6359C453.835 64.0199 455.662 64.5181 457.52 64.788C460.266 65.1928 463.038 65.4419 465.825 65.7481C467.943 65.9618 469.957 66.7676 471.638 68.0732C473.398 69.4433 475.458 70.1491 477.498 70.9587C479.226 71.5543 480.915 72.2598 482.553 73.071C484.899 74.358 487.074 75.9565 489.41 77.2747C491.539 78.476 493.729 79.5673 495.97 80.5443C497.701 81.274 499.478 81.8877 501.291 82.3815C503.076 82.9005 504.924 83.2119 506.72 83.6167C507.727 83.845 508.744 84.0319 509.735 84.3121C510.862 84.6287 511.967 85.0283 513.083 85.3968C514.552 85.8898 516 86.4347 517.49 86.8603C519.711 87.4554 521.95 87.9865 524.206 88.4536C525.587 88.739 526.998 88.8688 528.4 89.0504C530.294 89.2995 532.178 89.6057 534.078 89.7407C536.123 89.8912 538.178 89.8756 540.229 89.9379C541.594 89.9794 541.858 90.2597 541.874 91.5779C541.874 91.7751 542.045 91.9723 542.139 92.1643C542.341 92.0657 542.658 92.0138 542.73 91.8529C543.13 91.007 543.234 89.5642 542.165 88.983ZM214.653 80.1603C215.971 81.1982 216.729 82.6306 217.84 83.7931C218.951 84.9557 219.947 86.1701 220.996 87.3637L220.741 87.6284C219.936 87.0856 219.179 86.4744 218.478 85.8016C216.703 83.7931 215.016 81.7068 213.288 79.6309C212.665 78.868 212.11 78.0739 211.528 77.254C211.479 77.1779 211.447 77.0919 211.436 77.0021C211.424 76.9123 211.433 76.821 211.461 76.735C212.514 77.8508 213.423 79.2053 214.637 80.1447L214.653 80.1603ZM211.409 74.4099L211.809 75.4479L211.565 75.5465C211.077 75.3597 211.004 74.986 211.134 74.5085L211.409 74.4099ZM213.537 68.151C212.125 65.8779 209.79 64.1185 209.696 61.0721C210.189 61.342 213.35 67.0664 213.521 68.1355L213.537 68.151ZM208.777 52.9397C209.655 54.1385 210.527 55.3425 211.373 56.5414L211.108 56.749C210.335 55.4723 208.954 54.6212 208.544 53.1161L208.777 52.9397ZM204.552 44.117C205.217 44.8124 205.855 45.539 206.478 46.2759C206.572 46.3901 206.509 46.634 206.52 46.7949C206.354 46.7949 206.125 46.8675 206.001 46.7949C204.843 45.8192 203.701 44.8228 202.57 43.8367C202.888 43.6695 203.25 43.6067 203.606 43.657C203.962 43.7073 204.293 43.8682 204.552 44.117ZM201.698 43.2399L201.537 43.4423C199.504 42.1604 197.672 40.5867 196.097 38.7715L196.284 38.5535L201.698 43.2399ZM294.636 43.1465L296.069 45.2951L295.773 45.4871L294.361 43.3281L294.636 43.1465ZM287.23 39.3475C286.711 39.2904 285.901 39.3838 285.782 39.1399C285.564 38.4814 285.449 37.7936 285.439 37.1003L285.756 37.0069L287.313 39.0828L287.23 39.3475ZM285.527 32.1804L289.975 38.8337L289.783 39.0828C289.529 38.9323 289.197 38.8441 289.036 38.6261C288.237 37.5518 287.479 36.4464 286.705 35.3565C286.56 35.1521 286.363 34.9893 286.135 34.8843C286.093 36.0831 287.001 36.8564 287.463 37.8632C286.207 37.3702 285.081 34.2978 285.527 32.1804ZM289.337 32.1804L286.145 28.5475C287.614 29.4557 288.839 30.3743 289.337 32.1804ZM283.436 22.9892L284.199 24.0272L284.007 24.188L283.176 23.2123L283.436 22.9892ZM282.917 24.3489C283.062 24.5098 283.212 24.6655 283.342 24.8368C284.012 25.719 284.619 26.6532 285.356 27.4628C285.875 28.0181 285.875 28.3866 285.247 28.8745L282.714 24.4891L282.917 24.3489ZM280.373 14.2392L280.508 14.1613L286.425 21.8786L286.212 22.0602C285.693 21.4997 285.221 20.9237 284.707 20.3735C283.555 19.1643 282.403 17.9551 281.224 16.7718C280.956 16.6013 280.661 16.4752 280.353 16.3981C280.363 15.7754 280.373 15.0125 280.378 14.2496L280.373 14.2392ZM353.246 38.5846L354.497 40.2142L354.341 40.3439L353.075 38.7299L353.246 38.5846ZM347.391 29.2014C347.869 29.4972 348.357 29.7775 348.819 30.0992C348.891 30.1511 348.886 30.421 348.819 30.5144C348.763 30.5559 348.697 30.5821 348.628 30.5903C348.558 30.5985 348.488 30.5884 348.424 30.5611C348.024 30.1823 347.656 29.7775 347.277 29.3779L347.391 29.2014ZM349.701 32.9588C348.738 32.5083 347.954 31.7482 347.474 30.7999L349.701 32.9588Z" fill="#361C09" fill-opacity="0.5"/>
<path d="M435.71 94.2919C435.424 94.0947 435.051 94.0427 434.75 93.8663C433.118 92.9766 431.388 92.2799 429.596 91.7904C428.439 91.5135 427.405 90.8644 426.653 89.9428C426.434 89.6324 426.124 89.3983 425.765 89.2733C424.584 88.8724 423.367 88.5839 422.132 88.4118C419.018 88.1419 415.872 88.0485 412.748 87.8098C411.885 87.7332 411.04 87.5176 410.246 87.1714C408.865 86.5798 407.547 85.8377 406.192 85.1889C404.562 84.4053 402.896 83.715 401.521 82.4954C399.222 80.4662 396.943 78.4162 394.571 76.4804C393.46 75.5774 393.014 74.3734 392.391 73.0967C392.484 73.1279 392.573 73.1697 392.656 73.2212C394.576 74.7782 396.507 76.3351 398.407 77.892C399.367 78.6913 400.254 79.5735 401.209 80.3832C401.376 80.5233 401.687 80.4921 401.931 80.544C401.858 80.3157 401.848 80.0251 401.697 79.8746C400.223 78.3484 398.663 76.9068 397.026 75.5566C394.747 73.8336 392.292 72.3441 389.91 70.756C389.786 70.6871 389.656 70.6314 389.521 70.59C388.187 70.071 386.874 69.4845 385.514 69.033C383.277 68.3272 381.014 67.7044 378.766 67.0816C377.728 66.791 376.659 66.6042 375.616 66.3343C374.339 66.0125 373.083 65.6181 371.801 65.2963C370 64.8656 368.168 64.4764 366.372 64.1027C365.186 63.8209 363.985 63.6077 362.775 63.4644C362.344 63.4166 361.927 63.2821 361.55 63.0689C361.173 62.8558 360.842 62.5683 360.579 62.224C360.447 62.0577 360.307 61.8983 360.159 61.7465L352.861 54.761C352.727 54.5989 352.607 54.4253 352.503 54.242C352.654 54.1746 352.721 54.1175 352.778 54.1227C353.01 54.1595 353.244 54.1786 353.479 54.1798C353.687 54.1316 353.887 54.0566 354.076 53.9566C353.993 53.775 353.951 53.5258 353.811 53.4376C352.161 52.3426 351.091 50.7078 349.887 49.2079C348.413 47.3707 346.97 45.5128 345.512 43.6652C344.442 42.3158 343.436 40.9405 342.294 39.6379C341.775 39.0203 341.702 37.946 340.596 37.8526C340.451 37.8526 340.321 37.6087 340.192 37.4737C339.885 37.1468 339.61 36.7887 339.273 36.4928C339.014 36.2678 338.821 35.9765 338.715 35.65C338.608 35.3236 338.593 34.9745 338.671 34.6401C338.832 33.6436 339.081 32.6524 339.143 31.6507C339.216 30.4778 339.932 29.6942 340.503 28.8015C342.273 32.1801 345.174 34.7127 346.939 37.9927C346.135 37.1623 345.382 36.3164 344.609 35.4445C343.835 34.5726 343.083 33.6488 342.325 32.7406C341.567 31.8324 340.913 31.028 340.207 30.1457L339.906 30.3585C340.259 30.9864 340.612 31.6092 340.944 32.2528L340.306 32.4863C340.716 32.9638 341.069 33.3686 341.411 33.7838C343.763 36.6693 346.083 39.5808 348.475 42.4248C350.282 44.563 352.181 46.6286 353.323 49.2338C353.425 49.4211 353.588 49.5677 353.785 49.649C353.977 49.7269 354.304 49.784 354.413 49.6802C354.494 49.5876 354.553 49.4777 354.584 49.3589C354.616 49.2401 354.619 49.1156 354.595 48.9951C354.46 48.6928 354.286 48.41 354.076 48.1544C353.977 47.9935 353.77 47.7651 353.816 47.6769C354.159 47.0593 353.728 46.6908 353.489 46.286C353.629 45.9539 353.806 45.5698 353.697 45.3103C353.456 44.7985 353.155 44.3176 352.799 43.8779C351.605 42.2743 350.411 40.6655 349.192 39.0826C347.038 36.2852 345.138 33.2803 342.584 30.7788C342.066 30.2331 341.641 29.6053 341.328 28.9209C340.965 28.1943 340.347 27.966 339.885 28.6147C339.318 29.4077 338.843 30.2626 338.468 31.1629C338.208 31.8675 338.033 32.6012 337.949 33.3478C337.573 35.3317 337.305 37.3344 337.145 39.3472C337.077 40.9042 337.145 42.5597 337.664 43.9402C338.422 45.7774 339.74 47.3915 340.809 49.0937C341.359 49.9656 342.003 50.7804 342.501 51.6887C343.342 53.3845 344.562 54.8638 346.067 56.0117C347.411 56.9615 348.818 57.823 350.188 58.7364C351.325 59.4889 352.394 60.3556 353.588 61.0044C355.664 62.1513 357.854 63.1737 359.998 64.2376C360.197 64.3647 360.426 64.438 360.662 64.4504C361.576 64.3674 362.219 64.8915 362.884 65.3742C363.107 65.5474 363.345 65.7002 363.595 65.8309C363.725 65.8932 363.995 65.9036 364.036 65.8309C364.104 65.6665 364.118 65.485 364.078 65.3119C364.027 65.1652 363.961 65.0242 363.88 64.8916C364.115 64.8937 364.349 64.9128 364.581 64.9486C365.541 65.1718 366.496 65.4157 367.456 65.6389C368.417 65.862 369.242 66.0385 370.135 66.2513C371.553 66.5973 372.969 66.9433 374.38 67.2892C375.938 67.6785 377.495 68.0885 379.088 68.4777C380.453 68.815 381.855 69.0538 383.183 69.5157C385.005 70.1281 386.759 70.9481 388.576 71.5916C390.756 72.3337 392.666 75.676 391.628 77.7052C391.592 77.8394 391.592 77.981 391.628 78.1152C391.73 78.59 391.806 79.0699 391.856 79.5528C391.913 80.5908 392.199 81.5301 393.097 82.1217C393.761 82.5204 394.455 82.8674 395.173 83.1597C396.294 83.5871 397.335 84.2013 398.251 84.9761C399.076 85.7494 399.989 86.4234 400.971 86.9846C402.475 87.823 404.147 88.3175 405.865 88.4326C408.658 88.6765 411.44 89.0086 414.227 89.2785C417.44 89.5899 420.653 89.8961 423.865 90.1711C424.659 90.2386 425.158 90.6901 425.734 91.1728C426.515 91.8468 427.389 92.4044 428.329 92.8283C429.886 93.4874 431.552 93.9805 433.182 94.5047C433.902 94.7241 434.635 94.8974 435.378 95.0237C435.59 95.06 435.84 94.9043 436.073 94.8368C435.98 94.638 435.857 94.4544 435.71 94.2919ZM355.062 58.3264C353.941 57.522 352.389 57.1276 352.27 55.5395L355.062 58.3264ZM338.307 36.6485C338.484 36.716 338.608 36.7264 338.66 36.7887C339.885 38.2781 341.115 39.7676 342.32 41.2727C343.41 42.6324 344.474 44.0077 345.538 45.3882C346.82 47.0438 348.086 48.7045 349.363 50.3652C349.648 50.7337 349.986 51.071 350.245 51.4655C350.347 51.6958 350.41 51.9413 350.432 52.192C350.447 52.3901 350.487 52.5855 350.552 52.7733C350.721 53.0771 350.906 53.3717 351.107 53.6556L350.936 53.832C350.494 53.3961 350.022 52.9913 349.617 52.5242C347.095 49.6023 344.619 46.6441 342.06 43.7534C341.022 42.5961 339.844 41.5996 338.749 40.5098C338.519 40.3178 338.36 40.0548 338.297 39.7624C338.24 38.7556 338.307 37.7436 338.307 36.6485ZM358.617 62.2395C358.337 62.1254 358.036 62.0371 357.771 61.897C356.131 61.0251 354.449 60.2207 352.877 59.2398C350.764 57.9268 348.724 56.4996 346.679 55.088C345.081 53.9825 344.157 52.3374 343.259 50.6662C342.896 49.9916 342.351 49.4207 341.92 48.7771C340.882 47.2202 339.74 45.7099 338.837 44.07C338.39 43.2552 338.38 42.2068 338.172 41.2623L338.458 41.1533L344.609 48.6318L344.479 48.7564L341.276 45.3415L341.11 45.3882C341.115 45.6026 341.16 45.814 341.245 46.011C341.753 46.8021 342.32 47.5534 342.942 48.2582C345.766 51.2008 348.569 54.1642 351.512 56.9822C352.716 58.1344 354.242 58.9492 355.628 59.9145C355.715 59.9972 355.829 60.0467 355.949 60.0546C357.507 59.8159 357.73 61.4507 358.752 61.9593C358.7 62.0475 358.654 62.1409 358.607 62.2395H358.617ZM393.632 79.7811C394.462 80.3883 395.329 80.788 395.941 81.691C394.612 81.7688 393.408 80.7672 393.621 79.7811H393.632ZM393.632 78.2916L396.227 80.3676C395.028 80.1963 393.522 78.9819 393.606 78.2916H393.632ZM396.689 79.667C396.242 79.3608 395.791 79.0649 395.344 78.7535C394.898 78.4422 394.462 78.1308 394.026 77.809C393.913 77.7473 393.814 77.6637 393.734 77.5633C393.653 77.4629 393.594 77.3475 393.559 77.2239C393.523 77.1003 393.513 76.9709 393.528 76.8433C393.543 76.7156 393.584 76.5923 393.647 76.4804L396.761 79.5424L396.689 79.667ZM403.254 85.4951L405.85 86.8497C404.599 87.0988 403.062 86.2736 403.228 85.4951H403.254Z" fill="#361C09" fill-opacity="0.5"/>
<path d="M114.219 59.7279C116.539 58.2488 118.891 56.7956 121.169 55.2646C122.596 54.3045 123.889 53.1523 125.321 52.2234C127.553 50.7806 129.858 49.4624 132.136 48.0715C133.283 47.3761 134.394 46.6184 135.578 45.9956C137.498 44.9836 139.465 44.0702 141.474 43.2035C144.63 41.8385 147.557 39.9494 150.599 38.3095C152.052 37.5258 153.505 36.7525 154.564 35.4447C154.84 35.1203 155.17 34.8464 155.54 34.6351C155.781 34.5463 156.035 34.499 156.292 34.495C156.483 34.4743 156.672 34.4396 156.858 34.3912C156.888 33.9678 156.813 33.5437 156.64 33.156C156.495 33.0437 156.325 32.9681 156.144 32.9355C155.963 32.903 155.777 32.9145 155.602 32.9691C155.144 33.2057 154.712 33.4911 154.315 33.8203C153.163 34.5883 152.42 35.7976 151.133 36.4671C147.931 38.1486 144.822 40.0117 141.64 41.7399C140.825 42.1811 139.844 42.2901 139.003 42.6949C137.353 43.4837 135.713 44.3245 134.124 45.2327C132.536 46.1409 131.01 47.1893 129.453 48.1494C127.548 49.3223 125.591 50.4069 123.744 51.6473C121.2 53.3444 118.782 55.2335 116.218 56.8942C112.859 59.0687 109.403 61.0772 106.013 63.205C104.518 64.1392 103.122 65.2291 101.627 66.1736C99.9406 67.2427 98.1758 68.1924 96.489 69.2875C95.0564 70.1905 93.7277 71.27 92.2692 72.1212C90.5201 73.1332 88.6931 74.0102 86.8764 74.8925C85.5892 75.5205 84.2813 76.055 82.9473 76.6415C81.2138 77.4147 79.4542 78.1465 77.757 79.008C76.4386 79.6775 75.25 80.565 73.9421 81.276C71.0043 82.8018 68.0354 84.2653 65.0665 85.7392C63.7222 86.4035 62.3675 87.0523 60.9921 87.6543C59.8969 88.1369 58.7447 88.4846 57.6547 88.9777C55.7135 89.8651 53.819 90.8616 51.8623 91.7231C49.9055 92.5846 47.9228 93.2489 45.992 94.1052C44.6009 94.7228 43.2982 95.5428 41.9175 96.1811C40.3293 96.9389 38.6684 97.5409 37.1061 98.3453C35.9512 98.988 34.6589 99.344 33.3379 99.3833C32.2998 99.3833 31.2617 99.4213 30.2236 99.4974C30.0316 99.4974 29.8499 99.6946 29.6631 99.8036C29.8447 99.9074 30.0264 100.089 30.2185 100.099C30.9451 100.141 31.6769 100.099 32.6112 100.136C33.4417 100.058 34.5213 100.136 35.4763 99.8296C37.1211 99.2705 38.7297 98.6101 40.2929 97.8523C42.5715 96.8143 44.8086 95.6362 47.0767 94.5567C48.1615 94.0378 49.2826 93.607 50.3882 93.1503C52.0128 92.4808 53.6529 91.8477 55.2723 91.1626C56.6737 90.5658 58.0388 89.8807 59.4246 89.2942C60.3537 88.9102 61.3502 88.6922 62.2741 88.2978C63.7378 87.6595 65.1755 86.964 66.6029 86.2219C68.4299 85.2981 70.2361 84.312 72.0424 83.3779C73.3971 82.6876 74.8037 82.0856 76.148 81.3642C77.2846 80.7518 78.3123 79.9318 79.4698 79.3661C80.8556 78.6863 82.3349 78.1984 83.757 77.586C85.5425 76.8127 87.3384 76.0291 89.0875 75.1831C90.7121 74.3891 92.3211 73.5535 93.8678 72.5882C96.3592 71.0728 98.7831 69.4743 101.243 67.9174C103.704 66.3604 106.138 64.8398 108.577 63.2933C110.477 62.1134 112.358 60.925 114.219 59.7279Z" fill="#361C09" fill-opacity="0.5"/>
<path d="M127.35 67.3618L131.56 65.426C132.406 65.0368 133.262 64.658 134.098 64.2376C134.306 64.139 134.44 63.9054 134.581 63.7653C134.394 63.0335 133.895 63.075 133.48 63.21C132.105 63.6563 130.74 64.1234 129.395 64.6476C127.21 65.4987 125.072 66.4796 122.861 67.2425C120.956 67.912 118.999 68.4257 117.219 69.4014C116.108 70.0035 114.857 70.4394 114.182 71.6175C113.562 72.6114 113.02 73.6526 112.563 74.7314C111.548 77.2977 110.02 79.6303 108.073 81.5872C106.755 82.9676 105.323 84.234 103.921 85.5159C103.454 85.9362 102.883 86.2424 102.364 86.6213C102.233 86.751 102.118 86.8956 102.021 87.052C102.234 87.0935 102.489 87.2337 102.644 87.161C103.071 86.9647 103.472 86.7173 103.838 86.4241C104.907 85.5729 105.945 84.6907 107.004 83.8292C109.147 82.124 110.974 80.0566 112.402 77.7207C112.784 76.9392 113.241 76.1969 113.767 75.5047C117.217 71.5954 121.77 68.8218 126.826 67.5487C127.007 67.504 127.182 67.4414 127.35 67.3618ZM114.686 73.4028C114.997 71.8977 116.368 70.9324 117.997 70.5432L114.686 73.4028Z" fill="#361C09" fill-opacity="0.5"/>
<path d="M156.126 39.1242C154.558 40.3367 153.301 41.906 152.462 43.7016C152.153 44.3004 151.967 44.9552 151.917 45.627C151.839 46.966 151.917 48.3154 151.917 49.6595C151.917 50.2615 151.917 50.8272 152.503 51.2165C152.659 51.3151 152.669 51.6317 152.752 51.8496C152.835 52.0676 152.851 52.3686 153.001 52.4828C153.233 52.7014 153.412 52.9694 153.525 53.2668C153.638 53.5643 153.683 53.8835 153.655 54.2006C153.655 54.6729 153.785 55.1452 153.754 55.6123C153.655 57.0862 153.723 58.6224 153.328 60.0184C152.742 62.0943 151.802 64.0561 151.05 66.0749C150.919 66.4772 150.853 66.8975 150.853 67.3205C150.862 67.4194 150.895 67.5145 150.949 67.5977C151.004 67.6808 151.077 67.7496 151.164 67.798C151.263 67.808 151.364 67.797 151.458 67.7657C151.553 67.7344 151.64 67.6835 151.714 67.6163C151.832 67.4718 151.917 67.3036 151.963 67.1233C152.628 65.5663 153.25 64.0094 153.972 62.4524C154.69 61.0841 155.107 59.5784 155.197 58.0359C155.135 56.7073 155.161 55.6123 155.02 54.5432C154.88 53.4741 154.548 52.2959 154.309 51.1749C154.169 50.521 153.868 49.8516 153.941 49.2184C154.112 47.6615 154.46 46.1771 154.725 44.6565C155.057 42.8221 155.909 41.1217 157.18 39.7573C157.338 39.5219 157.465 39.2673 157.558 38.9996C157.252 38.9217 156.94 38.8714 156.624 38.8491C156.443 38.8595 156.271 39.0152 156.126 39.1242Z" fill="#361C09" fill-opacity="0.5"/>
<path d="M293.572 52.7943C293.416 52.7943 293.261 52.7943 292.887 52.7943C293.194 53.3382 293.541 53.8586 293.925 54.3513C296.287 56.9099 298.84 59.3024 300.808 62.2035C300.885 62.3177 301 62.4838 301.103 62.4889C302.141 62.5408 302.437 63.4491 302.956 64.0459C304.083 65.3745 305.147 66.7498 306.263 68.0887C306.468 68.2601 306.702 68.3953 306.953 68.4884C306.953 68.2341 307.083 67.9123 306.953 67.7255C306.491 66.9625 305.972 66.2412 305.458 65.5094C305.11 64.9904 304.55 64.5752 304.42 64.0303C304.229 63.3099 303.874 62.6437 303.382 62.0841C302.541 61.0462 301.41 60.1431 301.477 58.5914C301.477 58.4564 301.337 58.2956 301.238 58.171C300.372 57.0552 299.546 55.9082 298.643 54.8443C297.439 53.4638 296.126 52.1768 294.911 50.8015C294.263 50.0645 293.723 49.2445 293.136 48.4453C292.918 48.1443 292.716 47.8329 292.508 47.5215L292.238 47.6824C292.669 48.936 293.291 50.1158 294.081 51.1803L293.858 51.2945C293.839 51.5877 293.876 51.8818 293.967 52.1612C294.19 52.649 293.972 52.7528 293.572 52.7943Z" fill="#361C09" fill-opacity="0.5"/>
<path d="M385.628 52.4207C386.884 53.8047 388.131 55.1886 389.37 56.5726C389.747 56.9639 390.074 57.3996 390.346 57.87C391.685 60.4027 392.972 62.9665 394.322 65.4991C394.462 65.7638 394.882 65.8831 395.173 66.0752C395.318 65.7378 395.64 65.3693 395.588 65.0735C395.191 62.9861 394.424 60.9862 393.325 59.1675C392.868 58.3786 392.448 57.569 392.017 56.7594C391.871 56.3775 391.681 56.0136 391.451 55.6748C390.512 54.6368 389.552 53.5988 388.555 52.5868C387.777 51.8067 387.152 50.8878 386.713 49.8777C386.033 48.3882 385.197 46.9714 384.465 45.5079C384.212 44.9331 383.989 44.3459 383.796 43.7485C383.601 43.8737 383.461 44.0683 383.404 44.2928C383.347 44.5173 383.378 44.7549 383.489 44.9578C384.091 46.4836 384.751 47.9886 385.358 49.5144C385.446 49.7415 385.446 49.9932 385.358 50.2203C385.17 50.5699 385.095 50.9693 385.143 51.3634C385.192 51.7575 385.361 52.1269 385.628 52.4207Z" fill="#361C09" fill-opacity="0.5"/>
<path d="M297.823 21.1726C297.231 20.2644 296.582 19.3925 296.032 18.4635C293.77 14.6871 291.132 11.1488 288.158 7.9022C287.177 6.82272 286.202 5.74324 285.216 4.66895C285.062 4.52293 284.899 4.38769 284.728 4.26416C284.641 4.50702 284.585 4.75983 284.562 5.01666C284.604 5.20028 284.695 5.36893 284.826 5.5045C285.802 6.82791 286.83 8.09943 287.759 9.47992C289.363 11.8257 291.055 14.1508 292.43 16.6055C293.894 19.4212 295.664 22.0667 297.709 24.4941C297.922 24.7328 298.321 24.8003 298.633 24.9508C298.674 24.6366 298.652 24.3174 298.57 24.0114C298.181 23.2433 297.704 22.5219 297.221 21.7227L298.056 21.785C297.996 21.5747 297.917 21.3699 297.823 21.1726Z" fill="#361C09" fill-opacity="0.5"/>
<path d="M151.777 41.2625C151.943 41.1639 151.985 40.8577 152.088 40.6449C151.859 40.6001 151.623 40.6001 151.393 40.6449C148.886 41.8282 146.363 42.9907 143.903 44.2778C141.987 45.2318 140.127 46.2957 138.334 47.4644C135.889 49.1043 133.616 50.9882 131.176 52.6282C128.213 54.6263 125.171 56.5154 122.124 58.3837C118.87 60.3714 115.569 62.2761 112.299 64.2327C111.901 64.483 111.524 64.766 111.173 65.0786C111.099 65.1883 111.068 65.3211 111.085 65.4523C111.085 65.499 111.225 65.5457 111.313 65.5976L111.681 65.3588C112.2 65.0475 112.673 64.7257 113.187 64.4351C115.533 63.0909 117.889 61.7675 120.23 60.413C121.958 59.4113 123.697 58.4149 125.384 57.3458C127.689 55.8822 129.972 54.3824 132.215 52.8358C134.057 51.5695 135.822 50.1838 137.638 48.8916C140.955 46.5302 144.619 44.8123 148.305 43.1308C149.498 42.5859 150.635 41.9112 151.777 41.2625Z" fill="#361C09" fill-opacity="0.5"/>
<path d="M286.492 79.2105C286.055 76.8446 285.928 74.4318 286.114 72.0329C286.152 71.6827 286.216 71.3358 286.306 70.995C286.612 69.438 286.913 67.8811 287.193 66.4591C287.006 65.1928 286.908 64.1185 286.674 63.065C286.441 62.0114 286.114 60.9008 285.802 59.8265C285.712 59.6131 285.591 59.4138 285.444 59.2349C285.328 59.4425 285.229 59.6595 285.148 59.8836C285.113 60.0215 285.113 60.1661 285.148 60.304C285.325 61.1499 285.574 61.9855 285.667 62.8418C285.971 64.9441 285.865 67.0853 285.356 69.1474C284.918 70.6554 284.655 72.2087 284.572 73.7768C284.53 75.7065 284.661 77.636 284.961 79.5426C285.224 80.8077 285.621 82.0411 286.145 83.2222C286.233 83.4609 286.762 83.7412 286.923 83.6841C287.211 83.4811 287.421 83.1865 287.52 82.8485C287.582 82.6929 287.448 82.4489 287.385 82.2465C287.115 81.2293 286.721 80.2381 286.492 79.2105Z" fill="#361C09" fill-opacity="0.5"/>
<path d="M347.385 71.2854C345.667 69.7285 343.923 68.1715 342.268 66.5212C339.153 63.4073 336.07 60.2934 332.961 57.1432C332.678 56.8347 332.34 56.5813 331.965 56.3958C330.034 55.5447 328.087 54.7299 326.141 53.9203C326.001 53.8632 325.804 53.9514 325.622 53.9722C325.69 54.1227 325.721 54.3459 325.835 54.4133C326.676 54.87 327.527 55.3216 328.394 55.7315C330.59 56.6853 332.555 58.1014 334.155 59.8834C336.164 62.2136 338.39 64.3674 340.581 66.5368C342.506 68.4414 344.505 70.2734 346.503 72.1002C347.03 72.5021 347.587 72.863 348.169 73.1797C348.423 73.0344 348.688 72.9721 348.74 72.8268C348.754 72.7342 348.748 72.6395 348.721 72.5497C348.694 72.4598 348.647 72.3772 348.584 72.3078C348.205 71.9186 347.764 71.6228 347.385 71.2854Z" fill="#361C09" fill-opacity="0.5"/>
<path d="M404.371 58.2333C404.293 58.0257 404.007 57.896 403.815 57.7144C403.621 57.92 403.46 58.1546 403.338 58.4098C403.321 58.6428 403.362 58.8763 403.457 59.0896C403.717 60.1276 403.976 61.1241 404.251 62.1413L403.981 62.2399C404.184 62.6914 404.37 63.1533 404.599 63.584C404.775 63.9162 405.04 64.1964 405.227 64.5234C406.524 66.864 407.76 69.2461 409.135 71.54C409.993 72.8639 410.916 74.1439 411.902 75.3753C411.947 75.4659 412.012 75.5459 412.09 75.6101C412.169 75.6742 412.26 75.721 412.358 75.7475C412.456 75.7739 412.559 75.7794 412.659 75.7636C412.759 75.7477 412.855 75.7109 412.94 75.6556C413.371 75.3805 413.293 75.0068 413.096 74.6176C411.83 72.0652 410.303 69.651 408.538 67.4141C407.429 65.951 406.553 64.3245 405.943 62.5928C405.419 61.1448 404.921 59.6865 404.371 58.2333Z" fill="#361C09" fill-opacity="0.5"/>
<path d="M143.02 60.9732C142.685 61.1955 142.392 61.4748 142.153 61.7984C141.224 63.0128 140.28 64.2221 139.413 65.4832C137.551 68.3684 134.931 70.6862 131.84 72.1833C130.802 72.6607 129.707 72.9721 128.726 73.5378C126.048 75.0947 123.297 76.5842 121.101 78.8522C120.931 79.0592 120.779 79.2796 120.645 79.5113L120.863 79.6774C120.986 79.6312 121.104 79.572 121.215 79.5009C122.916 78.075 124.758 76.8265 126.712 75.7746C128.113 75.0532 129.468 74.2177 130.916 73.6364C133.511 72.5984 135.925 71.3165 137.851 69.2769C139.184 67.8601 140.446 66.3447 141.645 64.8137C142.407 63.8018 143.116 62.7502 143.768 61.6635C143.887 61.4766 143.768 61.1445 143.768 60.9006C143.524 60.9213 143.212 60.8539 143.02 60.9732Z" fill="#361C09" fill-opacity="0.5"/>
<path d="M266.302 56.7283C265.461 57.7247 264.684 58.7734 263.976 59.8681C263.577 60.5272 263.483 61.3732 263.229 62.1257C262.762 63.5269 262.238 64.9126 261.807 66.3242C261.606 67.0713 261.466 67.8332 261.386 68.6026C261.319 69.1216 261.386 69.6405 261.309 70.1595C261.106 71.7424 260.873 73.3201 260.649 74.8978H260.79C260.79 75.4635 260.738 76.0344 260.79 76.5949C260.836 77.2003 260.94 77.7999 261.101 78.3854C261.156 78.4915 261.237 78.5816 261.337 78.6471C261.437 78.7125 261.553 78.7511 261.672 78.7591C261.904 78.658 262.09 78.4725 262.191 78.2401C262.25 77.9886 262.269 77.7294 262.248 77.472C262.305 76.652 262.357 75.832 262.419 75.012C262.608 73.6131 262.712 72.2041 262.731 70.7927C262.718 68.9985 263.11 67.2246 263.878 65.6029C264.059 65.1514 264.174 64.7777 263.743 64.3936C263.68 64.3133 263.636 64.2197 263.614 64.1199C263.593 64.0201 263.594 63.9168 263.618 63.8176C263.961 62.4862 264.396 61.1803 264.921 59.9096C265.362 58.9755 266.167 58.2126 266.779 57.3511C266.87 57.1375 266.92 56.9085 266.925 56.6764C266.717 56.6816 266.395 56.6089 266.302 56.7283Z" fill="#361C09" fill-opacity="0.5"/>
<path d="M201.09 55.9495C198.69 53.4847 196.538 50.7904 194.665 47.9052C193.424 46.0213 191.929 44.5889 189.76 43.9195C189.09 43.7119 188.41 43.5458 187.627 43.333L187.056 43.6496C187.227 43.7978 187.413 43.9282 187.611 44.0388C188.016 44.2153 188.452 44.3295 188.857 44.5007C190.512 45.1858 191.971 46.0577 192.947 47.6873C193.818 49.1945 194.778 50.6485 195.822 52.0415C197.379 54.0811 199.123 56.0221 200.8 57.9891C201.156 58.4594 201.575 58.8785 202.045 59.2346C202.207 59.3278 202.388 59.3828 202.574 59.3953C202.76 59.4079 202.947 59.3778 203.12 59.3073C203.54 59.0686 203.312 58.6482 203.058 58.3368C202.409 57.5376 201.801 56.6812 201.09 55.9495Z" fill="#361C09" fill-opacity="0.5"/>
<path d="M202.549 76.844C201.743 75.3587 201.019 73.8306 200.379 72.2666C199.657 70.1279 198.531 68.1476 197.063 66.4332C195.765 64.9489 194.348 63.5684 192.978 62.1568C192.879 62.0582 192.697 62.0426 192.557 61.9907L192.365 62.162C192.506 62.4868 192.68 62.7964 192.884 63.0858C193.673 63.9888 194.582 64.8036 195.282 65.7689C196.309 67.1694 197.241 68.6362 198.075 70.1595C198.609 71.3067 199.068 72.4872 199.45 73.6938C200.063 75.2922 200.691 76.8855 201.293 78.484C201.318 78.5999 201.366 78.7096 201.434 78.8065C201.502 78.9034 201.589 78.9856 201.69 79.0481C201.791 79.1106 201.903 79.1521 202.02 79.1702C202.138 79.1883 202.257 79.1826 202.372 79.1535C202.497 79.1331 202.615 79.0858 202.72 79.0149C202.824 78.9441 202.911 78.8513 202.976 78.743C203.041 78.6348 203.081 78.5138 203.094 78.3884C203.107 78.2629 203.093 78.1362 203.052 78.0169C202.924 77.6099 202.756 77.2169 202.549 76.844Z" fill="#361C09" fill-opacity="0.5"/>
<path d="M348.44 44.4022C347.318 42.8919 346.218 41.3661 345.071 39.8715C343.924 38.3768 342.798 37.0534 341.692 35.6158C341.261 35.0605 340.924 34.4274 340.509 33.7734C340.35 33.9018 340.248 34.0864 340.223 34.2886C340.198 34.4908 340.252 34.6949 340.374 34.8581C340.965 35.7663 341.552 36.6797 342.18 37.5568C344.287 40.5046 346.408 43.4455 348.543 46.3795C349.799 48.1094 351.083 49.8204 352.395 51.5122C352.664 51.86 353.012 52.5502 353.552 52.0624C354.092 51.5745 353.485 51.1749 353.209 50.8064C351.632 48.6578 350.028 46.5352 348.44 44.4022Z" fill="#361C09" fill-opacity="0.5"/>
<path d="M295.129 46.6079C294.945 46.2727 294.664 46.0008 294.324 45.8277C293.983 45.6545 293.598 45.5882 293.219 45.6374C293.302 46.0681 293.364 46.4989 293.473 46.9244C293.531 47.2617 293.654 47.5843 293.836 47.8742C296.331 51.0538 298.847 54.2231 301.383 57.3819C301.544 57.5791 301.871 57.6414 302.12 57.766C302.131 57.4894 302.09 57.2132 302.001 56.9512C301.212 55.6485 300.361 54.3563 299.572 53.0848C298.913 52.0001 298.31 50.8843 297.682 49.784C296.826 48.7305 295.918 47.7081 295.129 46.6079Z" fill="#361C09" fill-opacity="0.5"/>
<path d="M71.4869 73.5222C72.7585 71.9289 73.9367 70.3097 76.1115 69.7129C77.6115 69.2977 78.987 68.4518 80.4351 67.8394C81.8832 67.227 83.0303 66.0125 84.0995 64.8189C84.2301 64.6064 84.3281 64.3754 84.3901 64.1338C84.2967 63.9833 84.2344 63.7498 84.1046 63.6979C84.0109 63.6645 83.9109 63.6528 83.812 63.6636C83.7132 63.6743 83.618 63.7074 83.5337 63.7601C83.0614 64.2168 82.641 64.7306 82.1738 65.1925C81.7686 65.6698 81.3028 66.0921 80.788 66.4485C79.6825 67.0713 78.5146 67.5747 77.3676 68.1196C76.6928 68.4362 76.0025 68.7268 75.3226 69.0382C74.816 69.2169 74.3359 69.463 73.8952 69.77C73.1095 70.4475 72.374 71.1812 71.6945 71.9652C70.1633 73.7402 68.9125 75.7694 66.8934 77.0928C66.6563 77.248 66.4415 77.4348 66.255 77.6481C66.1472 77.8285 66.0635 78.0221 66.0059 78.2242C66.2182 78.2054 66.4264 78.1547 66.6235 78.0737C68.5073 76.864 70.1552 75.3217 71.4869 73.5222Z" fill="#361C09" fill-opacity="0.5"/>
<path d="M167.659 64.9593C167.458 65.155 167.283 65.3767 167.14 65.6184C165.879 67.248 164.654 68.914 163.33 70.4969C162.246 71.7891 160.984 72.9412 159.91 74.2387C159.317 75.0643 158.785 75.9315 158.316 76.8336C158.482 77.0775 158.592 77.2384 158.695 77.3993C158.843 77.2806 158.972 77.1407 159.079 76.9841C160.019 74.9082 161.675 73.4447 163.33 71.9656C163.823 71.5296 164.493 71.2649 164.924 70.7823C166.107 69.4589 167.374 68.1874 168.074 66.5059C168.26 66.1818 168.423 65.8454 168.562 65.4991C168.582 65.3821 168.572 65.2623 168.534 65.15C168.496 65.0378 168.431 64.9366 168.344 64.8555C168.229 64.8207 168.108 64.8119 167.99 64.8299C167.871 64.8478 167.758 64.892 167.659 64.9593Z" fill="#361C09" fill-opacity="0.5"/>
<path d="M232.331 53.5883C232.985 53.2094 233.654 52.8617 234.277 52.4465C237.391 50.3706 240.044 47.8847 241.512 44.3504C241.601 44.1428 241.642 43.7484 241.512 43.6706C241.4 43.5808 241.269 43.5174 241.129 43.485C240.989 43.4527 240.843 43.4523 240.703 43.4837C240.355 43.6678 240.067 43.9468 239.872 44.2882C239.177 45.4611 238.689 46.7896 237.843 47.8276C236.458 49.5945 234.801 51.1292 232.933 52.3739C232.563 52.6316 232.216 52.9198 231.895 53.2354C231.814 53.3402 231.767 53.4668 231.76 53.5987C231.76 53.6402 231.89 53.7025 231.967 53.7596C232.128 53.6921 232.232 53.6454 232.331 53.5883Z" fill="#361C09" fill-opacity="0.5"/>
<path d="M242.644 41.2209C242.961 40.65 243.215 40.0428 243.527 39.472C244.612 37.4998 245.655 35.4966 246.833 33.5815C247.496 32.6722 248.215 31.8055 248.987 30.9866C249.135 30.7873 249.221 30.5493 249.236 30.3015C249.236 30.2133 248.971 30.1043 248.836 30.0161C248.656 30.0431 248.48 30.0992 248.317 30.1822C247.665 30.6456 247.055 31.1667 246.496 31.7391C244.419 34.0901 243.345 36.929 242.483 39.8768C242.374 40.2556 242.177 40.6085 242.079 40.9874C242.042 41.1327 242.172 41.3195 242.224 41.5064C242.369 41.3818 242.582 41.3455 242.644 41.2209Z" fill="#361C09" fill-opacity="0.5"/>
<path d="M202.518 33.6279L202.352 33.794C202.496 34.046 202.654 34.2902 202.824 34.5258C204.547 36.7211 206.81 38.4233 208.352 40.8003C209.39 42.4091 210.765 43.8052 211.938 45.3362C212.4 45.9486 212.701 46.6855 213.127 47.3291C213.251 47.5107 213.568 47.5626 213.791 47.6768C213.857 47.4601 213.883 47.2333 213.869 47.0073C213.769 46.6951 213.637 46.3943 213.475 46.1095C212.478 44.0803 210.838 42.5804 209.276 41.0183C209.058 40.8003 208.756 40.4577 208.793 40.2294C208.838 39.9249 208.8 39.6139 208.682 39.3296C208.564 39.0453 208.371 38.7984 208.123 38.6154C206.438 37.0446 204.744 35.4876 203.042 33.9445C202.88 33.8187 202.704 33.7124 202.518 33.6279Z" fill="#361C09" fill-opacity="0.5"/>
<path d="M279.47 36.2748C279.034 37.2557 278.65 38.2677 278.121 39.1967C277.648 40.0167 277.083 40.7536 277.249 41.7916C277.26 41.9571 277.237 42.1231 277.181 42.2795C276.958 43.0631 276.704 43.8364 276.501 44.6356C276.418 44.9536 276.388 45.2834 276.413 45.6113C276.413 45.7826 276.605 45.9383 276.714 46.0992C276.833 45.9694 277.02 45.8656 277.062 45.7151C277.236 45.1079 277.375 44.491 277.477 43.8675C277.555 42.9778 277.905 42.1336 278.479 41.4491C279.465 40.3488 280.176 39.1085 280.124 37.5308C280.156 37.087 280.291 36.6569 280.519 36.2748C280.794 35.7558 280.633 35.3459 280.119 34.749C279.865 35.3562 279.657 35.8129 279.47 36.2748Z" fill="#361C09" fill-opacity="0.5"/>
<path d="M409.815 56.448C410.802 55.9809 411.289 56.1314 411.809 57.076C411.888 57.2039 411.997 57.311 412.126 57.3886C412.255 57.4663 412.4 57.5121 412.551 57.5223C412.815 57.4808 413.028 57.1279 413.231 56.9411C413.127 56.6037 413.08 56.4221 413.013 56.2508C412.84 55.8079 412.537 55.4274 412.144 55.159C411.752 54.8905 411.288 54.7465 410.812 54.7458C409.982 54.6756 409.206 54.3068 408.627 53.7078C408.497 53.578 408.315 53.3912 408.175 53.4016C407.407 53.4691 406.971 53.0227 406.545 52.4934C406.442 52.3636 406.203 52.348 406.026 52.2754C406.026 52.4882 405.959 52.7632 406.063 52.8982C406.981 54.0555 407.911 55.2128 408.897 56.3183C409.029 56.4097 409.181 56.469 409.341 56.4915C409.5 56.514 409.663 56.4991 409.815 56.448Z" fill="#361C09" fill-opacity="0.5"/>
<path d="M257.421 14.462C258.143 13.5748 258.776 12.6188 259.31 11.6076C259.829 10.606 260.727 9.80159 261.386 8.87262C261.573 8.61831 261.734 8.1045 261.604 7.90729C261.329 7.47653 260.914 7.76198 260.665 8.04742C260 8.77214 259.385 9.54019 258.822 10.3465C257.815 11.9035 256.938 13.5435 255.609 14.872C255.43 15.0933 255.275 15.3335 255.147 15.5882L255.308 15.7232C256.128 15.537 256.868 15.0954 257.421 14.462Z" fill="#361C09" fill-opacity="0.5"/>
<path d="M184.466 40.8371C182.976 40.3181 182.016 39.166 181.165 37.9671C180.459 36.9707 179.966 35.8341 179.332 34.7857C179.187 34.5418 178.865 34.4017 178.621 34.2148C178.511 34.5066 178.433 34.8094 178.388 35.1179C178.403 35.3518 178.48 35.5775 178.611 35.7718C179.057 36.5779 179.514 37.3737 179.981 38.1591C180.531 39.0666 181.266 39.848 182.138 40.4524C183.01 41.0569 183.999 41.4709 185.042 41.6674L185.223 41.465C184.974 41.2523 184.756 40.9409 184.466 40.8371Z" fill="#361C09" fill-opacity="0.5"/>
<path d="M424.146 76.0703C424.266 76.1205 424.396 76.1414 424.526 76.1315C424.656 76.1216 424.782 76.0811 424.893 76.0132C424.975 75.9143 425.032 75.7969 425.058 75.6712C425.084 75.5455 425.079 75.4152 425.044 75.2918C424.878 74.8776 424.651 74.4909 424.369 74.1449C423.862 73.5822 423.565 72.8617 423.528 72.1053C423.528 71.6486 423.409 71.1503 422.812 71.0258C422.454 70.9531 422.101 70.8701 421.675 70.7715C421.648 71.0242 421.587 71.272 421.494 71.5085C421.337 71.7744 421.269 72.0832 421.3 72.3902C421.331 72.6971 421.459 72.9863 421.665 73.2159C422.184 73.9217 422.755 74.6275 423.321 75.2918C423.547 75.5988 423.826 75.8625 424.146 76.0703Z" fill="#361C09" fill-opacity="0.5"/>
<path d="M205.762 34.6348C205.753 34.8289 205.774 35.0232 205.824 35.2109C205.957 35.4029 206.114 35.5772 206.291 35.7298C207.018 36.5031 207.75 37.2868 208.461 38.0497C209.743 39.4561 211.004 40.8833 212.286 42.2898C212.423 42.4448 212.604 42.5537 212.805 42.6012C212.945 42.6012 213.111 42.4558 213.298 42.3572C213.209 42.2006 213.11 42.0498 213.002 41.9057C212.598 41.4179 212.214 40.9093 211.772 40.4526C209.97 38.5531 208.141 36.6605 206.286 34.7749C206.177 34.6711 205.954 34.6815 205.762 34.6348Z" fill="#361C09" fill-opacity="0.5"/>
<path d="M88.21 60.6929C89.2485 59.4793 90.5078 58.4737 91.9211 57.7295C92.4335 57.3936 92.8862 56.9744 93.2602 56.4892C93.3588 56.3802 93.2914 56.1155 93.3017 55.9183C93.1299 55.8892 92.9545 55.8892 92.7827 55.9183C92.5232 56.0169 92.3 56.2348 92.0353 56.3075C89.7411 56.9251 88.511 58.8401 87.0266 60.4594C86.7048 60.8123 86.9643 61.2534 87.5768 61.243C87.8034 61.0784 88.0153 60.8943 88.21 60.6929Z" fill="#361C09" fill-opacity="0.5"/>
<path d="M148.798 45.7673C148.808 45.3512 148.878 44.9388 149.005 44.5425C147.723 44.6774 147.51 44.8746 147.542 46.0372C147.518 46.8128 147.589 47.5884 147.754 48.3466C148.028 49.2128 148.384 50.0505 148.818 50.8481C148.897 50.9373 148.998 51.0043 149.111 51.0425C149.224 51.0807 149.345 51.0889 149.462 51.0661C149.554 50.9881 149.626 50.8887 149.672 50.7765C149.717 50.6643 149.734 50.5428 149.721 50.4226C149.633 49.8517 149.415 49.2964 149.301 48.7255C149.109 47.7498 148.912 46.7585 148.798 45.7673Z" fill="#361C09" fill-opacity="0.5"/>
<path d="M369.896 47.6822C370.415 47.6822 370.809 47.2566 370.898 46.6442C370.965 46.1252 371.11 45.6634 371.209 45.1703C371.238 45.0439 371.227 44.9114 371.178 44.7914C371.152 44.7395 370.944 44.7188 370.872 44.7603C370.192 45.1495 369.693 44.916 369.19 44.4022C369.077 44.3008 368.941 44.2281 368.793 44.1902C368.646 44.1523 368.492 44.1502 368.344 44.1842C368.121 44.2932 367.986 44.7032 367.903 44.9783C367.877 45.2105 367.9 45.4456 367.97 45.6685C368.141 46.5664 369.195 47.677 369.896 47.6822ZM369.491 46.0474L370.28 45.8087L370.036 46.6131L369.372 46.2861C369.408 46.1927 369.449 46.1252 369.491 46.0474Z" fill="#361C09" fill-opacity="0.5"/>
<path d="M266.79 23.9285C266.437 24.1983 266.126 24.5305 265.752 24.8108C264.714 25.6671 263.551 26.4352 262.84 27.6444C262.71 27.8572 262.596 28.0804 262.44 28.3606C262.607 28.5838 262.736 28.9211 262.902 28.9419C263.044 28.9582 263.188 28.944 263.324 28.9001C263.46 28.8563 263.586 28.7838 263.691 28.6876C264.21 28.1686 264.584 27.5458 265.041 26.9801C265.757 26.1082 266.494 25.2571 267.195 24.3852C267.293 24.2606 267.241 24.0115 267.257 23.8247C267.117 23.8766 266.909 23.8351 266.79 23.9285Z" fill="#361C09" fill-opacity="0.5"/>
<path d="M212.182 39.9649C212.354 40.0739 212.67 40.1725 212.79 40.0842C212.863 40.002 212.917 39.9041 212.946 39.7979C212.976 39.6918 212.981 39.5802 212.961 39.4718C212.915 39.2177 212.792 38.9839 212.608 38.8024C211.051 37.4167 209.53 36.0518 207.978 34.692C207.844 34.618 207.698 34.5671 207.547 34.5415L207.376 34.7283C207.563 34.9723 207.734 35.2473 207.942 35.4601C209.167 36.7835 210.402 38.1017 211.632 39.4251C211.792 39.6279 211.976 39.8093 212.182 39.9649Z" fill="#361C09" fill-opacity="0.5"/>
<path d="M332.77 35.8131C332.866 35.7841 332.952 35.732 333.023 35.6614C333.094 35.5908 333.146 35.5039 333.175 35.4083C333.414 34.1679 333.663 32.9432 334.436 31.8896C334.545 31.7443 334.405 31.4226 334.384 31.1786C334.167 31.1631 333.948 31.1895 333.741 31.2565C332.516 31.9778 332.116 33.1923 331.856 34.6298C331.934 34.9493 332.047 35.2592 332.194 35.5536C332.263 35.6384 332.352 35.7059 332.451 35.7509C332.551 35.7959 332.66 35.8172 332.77 35.8131Z" fill="#361C09" fill-opacity="0.5"/>
<path d="M95.5492 58.7468C96.1201 57.8386 96.8364 56.9926 96.7741 55.8042C96.7801 55.5204 96.8724 55.2452 97.0388 55.0153C97.5007 54.3354 98.0198 53.6971 98.4921 53.0224C98.6087 52.8006 98.6976 52.5653 98.7568 52.3218C98.4973 52.41 98.1444 52.4152 97.999 52.5917C97.3658 53.3442 96.7741 54.1486 96.2031 54.9426C95.9871 55.1905 95.8513 55.4982 95.8139 55.8249C95.7971 56.558 95.5441 57.2661 95.0924 57.8438C94.9411 58.0814 94.842 58.3486 94.8018 58.6274C94.8018 58.7727 94.9367 58.944 95.0613 59.2087C95.2401 59.0728 95.4037 58.9179 95.5492 58.7468Z" fill="#361C09" fill-opacity="0.5"/>
<path d="M274.866 10.845C274.866 10.7723 274.866 10.7049 274.866 10.6322C274.866 10.1495 274.835 9.59423 274.238 9.53196C273.641 9.46968 273.584 10.0509 273.46 10.5024C273.278 11.1771 273.019 11.8259 272.842 12.4954C272.795 12.8045 272.785 13.118 272.811 13.4295C273.174 13.3517 273.647 13.3932 273.849 13.1752C274.166 12.8746 274.419 12.5135 274.594 12.1132C274.769 11.713 274.861 11.2817 274.866 10.845Z" fill="#361C09" fill-opacity="0.5"/>
<path d="M127.428 45.8971C127.947 45.0926 128.466 44.2726 128.985 43.4578C129.094 43.2814 129.214 43.1153 129.343 42.9389C129.284 42.8076 129.209 42.6839 129.12 42.5704C129.081 42.5486 129.038 42.5371 128.993 42.5371C128.948 42.5371 128.905 42.5486 128.866 42.5704C128.365 42.8876 127.91 43.2737 127.516 43.7173C126.927 44.61 126.391 45.5372 125.913 46.4939C125.835 46.6392 125.913 46.8727 125.913 47.0648C126.131 47.0648 126.432 47.0959 126.546 46.9766C126.879 46.6503 127.175 46.2883 127.428 45.8971Z" fill="#361C09" fill-opacity="0.5"/>
<path d="M131.939 55.4148C132.028 55.9934 132.179 56.5607 132.39 57.1067C132.479 57.3247 132.847 57.4285 133.086 57.5842C133.216 57.3662 133.439 57.1482 133.449 56.9251C133.496 55.7003 133.491 54.4755 133.506 53.2144C133.039 53.3337 131.845 54.9218 131.939 55.4148Z" fill="#361C09" fill-opacity="0.5"/>
<path d="M280.612 29.3205C280.533 29.275 280.443 29.251 280.352 29.251C280.261 29.251 280.172 29.275 280.093 29.3205C279.574 30.0315 279.117 30.7737 278.577 31.5988C278.878 31.931 279.148 32.4033 279.304 32.3669C279.767 32.2638 280.194 32.0379 280.539 31.713C280.756 31.409 280.881 31.0484 280.897 30.675C280.925 30.3927 280.9 30.1078 280.825 29.8343C280.809 29.645 280.735 29.4653 280.612 29.3205Z" fill="#361C09" fill-opacity="0.5"/>
<path d="M143.41 46.7117C143.177 46.9709 142.989 47.2674 142.854 47.5887C143.052 48.0299 143.192 48.4139 143.374 48.772C143.511 49.0147 143.686 49.2338 143.893 49.4207C144.075 49.5559 144.272 49.6708 144.479 49.7633C144.573 49.5453 144.765 49.317 144.744 49.1145C144.682 48.4606 144.531 47.8223 144.427 47.1736C144.313 46.4418 144.012 46.2757 143.41 46.7117Z" fill="#361C09" fill-opacity="0.5"/>
<path d="M326.333 36.301C326.409 36.3054 326.484 36.2905 326.552 36.2578C326.62 36.2251 326.679 36.1757 326.723 36.1142C327.013 35.4084 327.293 34.6922 327.517 33.9656C327.513 33.8604 327.483 33.7577 327.43 33.667C327.376 33.5763 327.301 33.5005 327.21 33.4466C327.045 33.4012 326.873 33.3902 326.703 33.4143C326.534 33.4383 326.371 33.4969 326.225 33.5864C326.079 33.6759 325.953 33.7945 325.854 33.9347C325.756 34.0749 325.688 34.2338 325.653 34.4016C325.762 35.0088 325.819 35.4966 325.944 35.9585C325.98 36.0408 326.033 36.1142 326.1 36.1734C326.168 36.2326 326.247 36.2762 326.333 36.301Z" fill="#361C09" fill-opacity="0.5"/>
<path d="M126.676 57.714C126.511 58.0561 126.421 58.4294 126.411 58.809C126.411 58.8661 126.728 59.0581 126.78 59.0218C127.059 58.7985 127.325 58.5575 127.574 58.3004C128.01 58.7519 128.342 58.5184 128.612 58.0357C128.83 57.6777 129.079 57.3351 129.281 56.9666C129.344 56.8577 129.281 56.6916 129.281 56.375L128.243 57.2313C127.48 56.7694 127.283 56.8006 126.676 57.714Z" fill="#361C09" fill-opacity="0.5"/>
<path d="M162.645 33.9188C162.797 33.9253 162.948 33.8958 163.086 33.8326C163.224 33.7695 163.345 33.6745 163.439 33.5555C163.706 32.9438 163.906 32.3052 164.036 31.6508C164.062 31.5263 163.746 31.3239 163.574 31.1318C163.334 31.2406 163.101 31.3618 162.874 31.4951C162.62 31.689 162.429 31.9534 162.324 32.2553C162.22 32.5571 162.207 32.883 162.287 33.1922C162.318 33.4621 162.5 33.9032 162.645 33.9188Z" fill="#361C09" fill-opacity="0.5"/>
<path d="M166.118 48.1234C166.076 48.0474 166.017 47.9829 165.944 47.9357C165.872 47.8886 165.789 47.8603 165.703 47.8535C165.492 47.9058 165.307 48.0331 165.183 48.2116C164.836 48.8396 165.147 50.4277 165.703 50.8999C165.785 50.9742 165.882 51.0294 165.988 51.0617C166.094 51.094 166.205 51.1026 166.315 51.0868C166.471 51.0297 166.538 50.7287 166.642 50.5366H166.497C166.362 49.7115 166.263 48.9122 166.118 48.1234Z" fill="#361C09" fill-opacity="0.5"/>
<path d="M172.558 30.5818C172.44 30.6734 172.344 30.7915 172.279 30.9266C172.214 31.0618 172.182 31.2103 172.185 31.3603C172.223 31.8397 172.315 32.3133 172.46 32.7719C172.501 32.938 172.595 33.1663 172.719 33.2078C172.806 33.2216 172.895 33.2131 172.978 33.1832C173.06 33.1532 173.134 33.1028 173.192 33.0366C173.371 32.6855 173.527 32.3232 173.659 31.9519C173.629 31.5729 173.533 31.2021 173.373 30.8569C173.27 30.748 173.142 30.666 173 30.6181C172.858 30.5701 172.706 30.5577 172.558 30.5818Z" fill="#361C09" fill-opacity="0.5"/>
<path d="M122.804 49.7685C122.903 49.6539 122.992 49.5305 123.068 49.4C122.985 49.3014 122.908 49.1509 122.84 49.1509C122.638 49.1421 122.438 49.1926 122.264 49.2962C121.652 49.8463 121.049 50.4172 120.489 51.0192C120.344 51.1697 120.344 51.4551 120.281 51.6783C120.53 51.6524 120.863 51.7146 121.018 51.5745C121.646 51.0088 122.217 50.3809 122.804 49.7685Z" fill="#361C09" fill-opacity="0.5"/>
<path d="M214.497 38.4082L212.182 35.9067C212.068 36.2441 211.928 36.462 211.98 36.5191C212.613 37.2665 213.262 37.993 213.942 38.6937C213.994 38.7352 214.31 38.5068 214.497 38.4082Z" fill="#361C09" fill-opacity="0.5"/>
<path d="M131.409 38.4754C131.391 38.3525 131.343 38.2359 131.27 38.1356C131.197 38.0352 131.1 37.9542 130.989 37.8993C130.47 37.8111 129.868 38.6051 129.842 39.5341C129.904 39.6015 130.044 39.8558 130.226 39.8922C130.693 39.9648 131.466 39.0981 131.409 38.4754Z" fill="#361C09" fill-opacity="0.5"/>
<path d="M103.573 60.2051C103.882 59.8727 104.165 59.517 104.419 59.1412C104.485 59.0282 104.537 58.908 104.575 58.7831C103.828 58.5236 102.67 59.1204 102.582 59.8211C102.576 59.9473 102.601 60.0732 102.655 60.1873C102.71 60.3015 102.791 60.4003 102.893 60.475C103.065 60.5165 103.407 60.3504 103.573 60.2051Z" fill="#361C09" fill-opacity="0.5"/>
<path d="M140.991 38.5431C141.059 38.3874 140.664 38.0241 140.337 37.583C139.912 38.102 139.486 38.4186 139.398 38.813C139.346 39.0154 139.917 39.3579 140.166 39.6382C140.49 39.313 140.768 38.9445 140.991 38.5431Z" fill="#361C09" fill-opacity="0.5"/>
<path d="M312.164 28.6615C312.024 28.703 311.951 28.9677 311.899 29.0559C311.933 29.5119 312.009 29.9637 312.128 30.4053C312.185 30.5714 312.605 30.7789 312.714 30.7167C313.233 30.4312 313.264 29.1286 312.797 28.7757C312.705 28.7144 312.601 28.6726 312.493 28.653C312.384 28.6334 312.272 28.6362 312.164 28.6615Z" fill="#361C09" fill-opacity="0.5"/>
<path d="M166.04 53.8685C166.136 54.3684 166.302 54.8524 166.533 55.3061C166.597 55.3787 166.678 55.4343 166.768 55.4678C166.859 55.5013 166.956 55.5117 167.052 55.4981C167.197 55.4566 167.281 55.2074 167.462 54.9791C167.201 54.5157 166.904 54.0733 166.575 53.6557C166.362 53.3806 165.988 53.4585 166.04 53.8685Z" fill="#361C09" fill-opacity="0.5"/>
<path d="M144.188 38.8283C143.97 38.7712 143.669 38.5999 143.56 38.683C143.069 39.1038 142.606 39.5563 142.174 40.0375C142.138 40.079 142.309 40.3074 142.382 40.4475L144.224 39.067C144.188 38.9892 144.188 38.9269 144.188 38.8283Z" fill="#361C09" fill-opacity="0.5"/>
<path d="M262.233 30.9502C262.321 30.8619 262.233 30.5765 262.186 30.3793C262.186 30.3793 262.108 30.3326 262.067 30.317C261.91 30.2939 261.751 30.3048 261.599 30.3489C261.447 30.3931 261.306 30.4695 261.187 30.573C261.067 30.6764 260.971 30.8045 260.905 30.9484C260.839 31.0923 260.805 31.2487 260.806 31.4069L261.091 31.8843C261.488 31.5929 261.869 31.2811 262.233 30.9502Z" fill="#361C09" fill-opacity="0.5"/>
<path d="M379.612 51.4606C379.796 51.3742 379.948 51.2303 380.043 51.0506C379.737 50.6354 379.389 50.2462 379.052 49.8569L378.642 50.2721C378.652 50.9831 379.155 51.5384 379.612 51.4606Z" fill="#361C09" fill-opacity="0.5"/>
<path d="M137.903 50.9676C137.867 51.0818 138.111 51.3724 138.282 51.4346C138.378 51.4363 138.472 51.4115 138.554 51.363C138.637 51.3144 138.704 51.244 138.749 51.1596C138.79 50.7336 138.802 50.3053 138.785 49.8777L138.479 49.7739C138.256 50.156 138.063 50.5551 137.903 50.9676Z" fill="#361C09" fill-opacity="0.5"/>
</g>
<defs>
<clipPath id="clip0_1064_136">
<rect width="543" height="99.1827" fill="white" transform="translate(0 0.9375)"/>
</clipPath>
</defs>
</svg>
