<svg width="36" height="36" viewBox="0 0 36 36" fill="none" xmlns="http://www.w3.org/2000/svg">
<circle cx="18" cy="18" r="18" fill="#FAEDDD"/>
<path d="M25.1577 9.43538C22.7169 8.40813 20.1714 9.23668 18.4996 11.5437C16.8279 9.23576 14.2806 8.40722 11.8425 9.43538C9.46683 10.438 7.31377 13.3548 8.20597 17.4045C8.33705 17.9942 8.51904 18.5704 8.74973 19.1263C11.1008 24.8505 17.9937 27.8265 18.314 27.9614C18.4332 28.0124 18.567 28.0124 18.6862 27.9614C19.0144 27.8229 26.2425 24.7037 28.415 18.7016C28.5696 18.2787 28.6963 17.8453 28.7942 17.4045C29.6855 13.3566 27.5342 10.4362 25.1585 9.43538H25.1577ZM18.4996 26.9342C17.4438 26.4465 12.227 23.8515 9.98684 19.439H12.5825C12.6761 19.439 12.7677 19.4114 12.8467 19.3594C12.9257 19.3074 12.9888 19.2332 13.0286 19.1455L15.0945 14.5826L18.6932 22.4505C18.7333 22.5378 18.7963 22.6114 18.8751 22.663C18.9539 22.7147 19.0452 22.7421 19.1384 22.7422H19.1428C19.2371 22.741 19.329 22.712 19.4079 22.6585C19.4867 22.6051 19.5492 22.5295 19.588 22.4405L22.3157 16.1686L23.947 18.7809C23.9917 18.8525 24.0531 18.9114 24.1255 18.9522C24.1979 18.9929 24.279 19.0142 24.3614 19.0142H27.2174C25.1075 23.6893 19.5863 26.431 18.4996 26.9342ZM27.8334 17.1812C27.7718 17.4592 27.6943 17.7281 27.609 17.997H24.6271L22.65 14.8305C22.602 14.7532 22.5347 14.6907 22.4552 14.6497C22.3758 14.6087 22.2871 14.5908 22.1986 14.5977C22.1101 14.6046 22.025 14.6361 21.9524 14.689C21.8798 14.7418 21.8223 14.814 21.786 14.8979L19.127 21.0177L15.5371 13.1698C15.497 13.0825 15.434 13.0089 15.3552 12.9572C15.2764 12.9056 15.1851 12.8782 15.0919 12.8781C14.9984 12.8781 14.9069 12.9058 14.8281 12.9577C14.7492 13.0097 14.6863 13.0839 14.6467 13.1716L12.271 18.4208H9.53722C9.38484 18.0174 9.26075 17.6031 9.16591 17.1812C8.40306 13.7176 10.2103 11.2274 12.2129 10.3842C12.7627 10.1518 13.3507 10.0314 13.9445 10.0297C15.3638 10.0297 16.9106 10.7406 18.0799 12.7222C18.1239 12.7969 18.1857 12.8586 18.2594 12.9014C18.333 12.9442 18.4161 12.9667 18.5005 12.9667C18.585 12.9667 18.668 12.9442 18.7417 12.9014C18.8153 12.8586 18.8771 12.7969 18.9211 12.7222C20.5929 9.8811 23.0468 9.65049 24.7872 10.3842C26.7898 11.2274 28.5971 13.7139 27.8342 17.1803L27.8334 17.1812Z" fill="#113D23" stroke="#113D23" stroke-width="0.5"/>
</svg>
