<svg width="1920" height="35" viewBox="0 0 1920 35" fill="none" xmlns="http://www.w3.org/2000/svg">
<mask id="mask0_219_1615" style="mask-type:alpha" maskUnits="userSpaceOnUse" x="0" y="0" width="1920" height="35">
<rect width="1920" height="35" fill="#D9D9D9"/>
</mask>
<g mask="url(#mask0_219_1615)">
<path d="M1920 20.5665V844C1813.08 841.6 1735.55 841.2 1735.55 841.2C1716.82 841.6 1714.21 843.5 1667.63 842C1634.67 840.9 1584.41 843.2 1552.05 841.6C1537.71 840.9 1424.74 842.1 1376.85 841.2C1342.71 840.5 1356.58 841 1331.8 842.3C1283.56 844.7 1268.03 840.7 1243.61 841.6C1206.03 843 1178.17 843 1147.83 842C1032.84 838.3 1030.47 845.2 899.011 842.4C878.266 842 785.212 841 730.446 842.5C694.647 843.5 664.656 843.5 643.675 842.6C609.891 841.2 544.812 839.1 500.241 842.5C480.326 844 408.135 842.6 400.548 842.6C337.011 843.3 313.777 838 267.546 838.6C195.236 839.5 180.893 844.9 139.996 842.6C117.261 841 76.3973 843 38.4948 843C20.7279 844.5 13.6212 845 8.29118 844.5C5.33004 844.5 1.18445 845 0 845V20C3.55336 20 18.5 14.5 31 14.5C43.5 14.5 63.5 21.5 75.5 21.5C85 21.5 139.5 13.5 149.5 13.5C160.5 13.5 268.5 26 290 26C305.001 26 380.5 12 396 12C400 12 485.967 20.4664 506 20.3664C541.5 20.3665 576 12 632 12C688 12 713.701 22.6 749.5 23.5C804.384 24.9001 843.5 12 900 12C942 12 1086.5 22.9666 1114 22.9666C1144.46 21.9665 1217.5 8.00002 1241.5 8.00002C1258 8.00002 1312.5 20.7665 1340.23 20.7665C1360 20.7665 1397.36 12.7 1431.5 12C1479.39 11 1521.16 21.3665 1535.5 20.5665C1565 21.0999 1640.16 13.2001 1673 12C1719.59 10.3 1766.5 0.500021 1777.5 0.5C1788.5 0.499979 1879.5 17 1920 20.5665Z" fill="#FAF5E9"/>
</g>
</svg>
