<svg width="100" height="50" viewBox="0 0 100 50" fill="none" xmlns="http://www.w3.org/2000/svg">
<path d="M37.3536 25.3536C37.5488 25.1583 37.5488 24.8417 37.3536 24.6464L34.1716 21.4645C33.9763 21.2692 33.6597 21.2692 33.4645 21.4645C33.2692 21.6597 33.2692 21.9763 33.4645 22.1716L36.2929 25L33.4645 27.8284C33.2692 28.0237 33.2692 28.3403 33.4645 28.5355C33.6597 28.7308 33.9763 28.7308 34.1716 28.5355L37.3536 25.3536ZM12 25.5H37V24.5H12V25.5Z" fill="#E31F25"/>
<path d="M87.3536 25.3536C87.5488 25.1583 87.5488 24.8417 87.3536 24.6464L84.1716 21.4645C83.9763 21.2692 83.6597 21.2692 83.4645 21.4645C83.2692 21.6597 83.2692 21.9763 83.4645 22.1716L86.2929 25L83.4645 27.8284C83.2692 28.0237 83.2692 28.3403 83.4645 28.5355C83.6597 28.7308 83.9763 28.7308 84.1716 28.5355L87.3536 25.3536ZM62 25.5H87V24.5H62V25.5Z" fill="white"/>
</svg>
