<svg width="36" height="36" viewBox="0 0 36 36" fill="none" xmlns="http://www.w3.org/2000/svg">
<circle cx="18" cy="18" r="18" fill="#FAEDDD"/>
<g clip-path="url(#clip0_824_8539)">
<path fill-rule="evenodd" clip-rule="evenodd" d="M29.4203 10.9158C29.4203 9.31641 28.0709 7.99976 26.3924 7.99976C25.9902 7.99902 25.5918 8.07393 25.22 8.22021C24.8483 8.36649 24.5106 8.58126 24.2262 8.85218C23.9418 9.12311 23.7163 9.44487 23.5628 9.79899C23.4092 10.1531 23.3306 10.5326 23.3314 10.9158C23.3314 12.5148 24.6808 13.8 26.3924 13.8C26.7903 13.801 27.1845 13.7271 27.5523 13.5825C27.9201 13.4379 28.2543 13.2255 28.5357 12.9575C28.8171 12.6895 29.0401 12.3711 29.1919 12.0208C29.3437 11.6704 29.4213 11.2948 29.4203 10.9158ZM28.6971 15.2422H25.9318L22.3456 11.1663C22.2137 11.0099 21.9834 10.9158 21.7513 10.9158H13.4252C12.823 10.9168 12.2457 11.1453 11.82 11.5512C11.3943 11.9571 11.1549 12.5072 11.1543 13.081V14.5211C11.1505 14.8061 11.2069 15.0889 11.3199 15.3529C11.433 15.6168 11.6005 15.8564 11.8125 16.0575L12.4706 16.716H8.06062C8.06062 16.3084 7.69884 15.9949 7.27095 15.9949C7.07087 15.997 6.87962 16.0736 6.73813 16.2084C6.59665 16.3432 6.51619 16.5254 6.51396 16.716H5.75698C5.55622 16.716 5.36368 16.792 5.22171 16.9272C5.07975 17.0625 5 17.2459 5 17.4371C5 17.6284 5.07975 17.8118 5.22171 17.947C5.36368 18.0823 5.55622 18.1583 5.75698 18.1583H6.51396C6.51619 18.3489 6.59665 18.5311 6.73813 18.6658C6.87962 18.8006 7.07087 18.8773 7.27095 18.8794C7.69884 18.8794 8.06062 18.5659 8.06062 18.1583H14.0177L17.2432 21.231V24.8367C17.2432 25.0876 17.2759 25.3381 17.3747 25.5575H9.90256C9.70255 25.5599 9.51147 25.6368 9.3702 25.7717C9.22894 25.9066 9.14871 26.0888 9.14669 26.2793C9.14513 26.3743 9.16362 26.4686 9.20105 26.5567C9.23848 26.6447 9.2941 26.7247 9.36459 26.7919C9.43509 26.8591 9.51903 26.9121 9.61144 26.9478C9.70385 26.9835 9.80285 27.0012 9.90256 26.9998H28.4661C28.6637 26.9998 28.8609 26.9371 28.9928 26.8119L30.5394 25.3381C30.6098 25.2729 30.6657 25.1949 30.7039 25.1088C30.742 25.0226 30.7617 24.93 30.7617 24.8365C30.7617 24.743 30.742 24.6505 30.7039 24.5643C30.6657 24.4782 30.6098 24.4002 30.5394 24.335C30.3946 24.1993 30.1995 24.1232 29.9964 24.1232C29.7932 24.1232 29.5982 24.1993 29.4533 24.335L28.137 25.5575H21.6863C21.752 25.3381 21.8178 25.0872 21.8178 24.8367V20.322C21.8178 19.7576 21.5544 19.1933 21.1265 18.7856L20.4684 18.1583H22.509L23.1033 18.8168C23.3158 19.0619 23.5824 19.2592 23.8842 19.3948C24.1859 19.5303 24.5154 19.6007 24.8491 19.6009H28.6971C29.9808 19.6009 31 18.6289 31 17.4371C30.998 16.8559 30.7548 16.2989 30.3233 15.8879C29.8919 15.4769 29.3073 15.2452 28.6971 15.2433V15.2422ZM20.0735 19.8199C20.205 19.9455 20.2708 20.1334 20.2708 20.3217V24.8364C20.273 24.9324 20.2551 25.0279 20.218 25.1172C20.181 25.2065 20.1256 25.2879 20.0551 25.3566C19.9846 25.4252 19.9004 25.4798 19.8075 25.517C19.7146 25.5543 19.6148 25.5735 19.514 25.5735C19.4131 25.5735 19.3133 25.5543 19.2204 25.517C19.1275 25.4798 19.0433 25.4252 18.9728 25.3566C18.9023 25.2879 18.8469 25.2065 18.8099 25.1172C18.7729 25.0279 18.7549 24.9324 18.7572 24.8364V20.9483C18.7615 20.8489 18.7431 20.7498 18.7033 20.6578C18.6634 20.5658 18.6031 20.4831 18.5265 20.4154L16.1571 18.1579H18.3293L20.075 19.821L20.0735 19.8199ZM18.9544 16.716L17.4077 15.2426H19.9747L21.2584 16.716H18.9544ZM24.8457 18.1583C24.6154 18.1583 24.4178 18.0641 24.2533 17.9074L20.9293 14.0505C20.7648 13.8937 20.5675 13.7996 20.3369 13.7996H15.5978C15.446 13.8008 15.2976 13.8425 15.1696 13.9202C15.0416 13.9978 14.9391 14.1082 14.8738 14.2387C14.826 14.3765 14.816 14.5236 14.8448 14.6661C14.8736 14.8085 14.9403 14.9416 15.0384 15.0526L16.7841 16.7156H14.6435L12.8978 15.0526C12.8236 14.9831 12.7649 14.9 12.7253 14.8084C12.6856 14.7168 12.6659 14.6184 12.6671 14.5193V13.081C12.6655 12.9858 12.6839 12.8913 12.7214 12.8031C12.7588 12.7149 12.8145 12.6348 12.8852 12.5675C12.9558 12.5002 13.0399 12.4472 13.1325 12.4115C13.2251 12.3758 13.3243 12.3582 13.4241 12.3598H21.3903L24.9776 16.4358C25.142 16.6245 25.3395 16.7188 25.57 16.7188H28.6971C29.125 16.7188 29.4872 17.0323 29.4872 17.44C29.4872 17.8476 29.125 18.1611 28.6971 18.1611H24.8457V18.1583ZM24.8457 10.9158C24.8455 10.7221 24.8854 10.5302 24.9631 10.3512C25.0409 10.1722 25.1549 10.0096 25.2988 9.87266C25.4427 9.73575 25.6135 9.62723 25.8015 9.55333C25.9894 9.47943 26.1909 9.44161 26.3942 9.44203C27.2169 9.44203 27.9082 10.1005 27.9082 10.9158C27.9082 11.6996 27.2169 12.3581 26.3942 12.3581C25.5369 12.3581 24.8457 11.701 24.8457 10.9158Z" fill="#113D23" stroke="#FAEDDD" stroke-width="0.3"/>
</g>
<defs>
<clipPath id="clip0_824_8539">
<rect width="26" height="19" fill="white" transform="translate(5 8)"/>
</clipPath>
</defs>
</svg>
