<svg width="36" height="36" viewBox="0 0 36 36" fill="none" xmlns="http://www.w3.org/2000/svg">
<circle cx="18" cy="18" r="18" fill="#FAEDDD"/>
<path d="M6.03254 19.7798C6.04048 19.8068 6.05118 19.833 6.06446 19.8578C6.07828 19.8796 6.09478 19.8996 6.11358 19.9173C6.13435 19.9437 6.15902 19.9669 6.18676 19.986L6.20051 19.9998C6.23244 20.0216 6.26829 20.0372 6.30611 20.0454C6.31102 20.0454 6.31544 20.0503 6.31986 20.0548C6.36199 20.0726 6.40722 20.0819 6.45297 20.0822C6.46181 20.0822 6.47556 20.0778 6.48489 20.0778H6.50306C7.03499 20.0228 7.52565 19.9079 8.04333 19.7891C9.061 19.5554 10.1155 19.3123 11.5959 19.5004C13.3149 19.7204 14.6538 20.2978 15.8365 20.8065C16.1941 20.9622 16.533 21.1046 16.8679 21.2372L18.6921 22.9926C18.7776 23.074 18.8908 23.1199 19.0089 23.1208H19.0226C19.0839 23.1189 19.1441 23.1048 19.1999 23.0796C19.2557 23.0543 19.3059 23.0182 19.3478 22.9735L19.5909 22.7123L25.9759 28.8718C26.0626 28.9541 26.1776 29 26.2971 29H26.3109C26.4345 28.9959 26.5515 28.9429 26.636 28.8527L27.8787 27.5004C27.9598 27.4121 28.0033 27.2956 27.9998 27.1757C27.9963 27.0558 27.9462 26.942 27.86 26.8586L21.4578 20.6823L21.7127 20.4029C21.7939 20.3147 21.8375 20.1983 21.834 20.0784C21.8305 19.9586 21.7803 19.8449 21.694 19.7616L19.865 18.0061C19.7176 17.6717 19.5536 17.3324 19.3836 16.9799C18.8154 15.8014 18.169 14.4682 17.8434 12.7221C17.5639 11.219 17.7383 10.1235 17.9077 9.06924C17.9902 8.54677 18.0683 8.0518 18.0914 7.52001C18.0914 7.50626 18.0958 7.493 18.0958 7.47876C18.0958 7.45617 18.0865 7.43752 18.0865 7.41935C18.0844 7.38631 18.0798 7.35348 18.0727 7.32114C18.0608 7.29134 18.047 7.26231 18.0315 7.23423C18.025 7.21451 18.0157 7.19582 18.004 7.17874L17.9902 7.16499C17.9676 7.1424 17.9445 7.12374 17.917 7.10066C17.8765 7.06099 17.8253 7.03402 17.7697 7.02308C17.7375 7.01304 17.7047 7.00533 17.6715 7C17.6616 7.00491 17.6572 7 17.6528 7C17.6346 7 17.616 7.00933 17.5978 7.00933C17.5619 7.01076 17.5264 7.01703 17.4922 7.02799C17.4647 7.03683 17.4465 7.05058 17.4234 7.05991C17.4003 7.06924 17.3777 7.07808 17.3547 7.09182C15.1958 8.7565 13.1823 10.6016 11.336 12.6072C11.3316 12.6116 11.3223 12.6165 11.3179 12.6209C11.3134 12.6253 11.3085 12.6347 11.3041 12.6396C9.96477 14.0967 8.7126 15.6316 7.55414 17.2362C7.5375 17.2549 7.52224 17.2747 7.50846 17.2956C7.0173 17.9742 6.53646 18.6617 6.0733 19.3673C6.06397 19.386 6.05955 19.4041 6.05071 19.4223C6.03558 19.4501 6.02325 19.4794 6.01387 19.5097C6.00616 19.5395 6.00301 19.5703 6.00454 19.601C6.00103 19.6208 5.99955 19.6409 6.00012 19.6609C6.00012 19.6703 6.00454 19.6747 6.00945 19.6835C6.01088 19.7174 6.01872 19.7507 6.03254 19.7817V19.7798ZM26.8998 27.2087L26.2765 27.8868L20.2255 22.0435L20.8487 21.3653L26.8998 27.2087ZM19.5054 18.9317L20.7333 20.1142L18.9917 22.0071L17.7638 20.8247L18.0801 20.481L19.5054 18.9317ZM8.22358 17.8686C8.67299 17.6167 10.9647 16.5031 13.9352 18.0336C14.0002 18.0674 14.0727 18.0843 14.1459 18.0827C14.2488 18.0829 14.3488 18.0485 14.4298 17.985C14.5108 17.9215 14.5681 17.8327 14.5925 17.7327C14.6168 17.6328 14.6069 17.5275 14.5642 17.4339C14.5215 17.3403 14.4486 17.2637 14.3571 17.2165C12.2624 16.1363 10.4421 16.2178 9.2275 16.5153C10.0134 15.5028 10.8272 14.5355 11.6754 13.6005L13.6784 15.521C13.7216 15.5628 13.7727 15.5957 13.8287 15.6176C13.8847 15.6396 13.9445 15.6502 14.0047 15.649C14.0648 15.6477 14.1241 15.6345 14.1791 15.6102C14.2341 15.5859 14.2838 15.5509 14.3252 15.5072C14.3668 15.4639 14.3994 15.4128 14.4211 15.3568C14.4429 15.3009 14.4534 15.2412 14.4521 15.1812C14.4508 15.1212 14.4376 15.062 14.4134 15.0071C14.3892 14.9521 14.3544 14.9025 14.311 14.861L12.2943 12.9313C13.1292 12.0425 13.9858 11.19 14.8748 10.3744C14.7054 11.5932 14.756 13.4542 15.865 15.6585C15.9033 15.7339 15.9617 15.7973 16.0337 15.8417C16.1057 15.8862 16.1885 15.9099 16.2731 15.9104C16.3449 15.9116 16.4159 15.8947 16.4794 15.8613C16.5876 15.8065 16.6696 15.711 16.7074 15.5959C16.7453 15.4807 16.7359 15.3552 16.6813 15.247C15.086 12.0759 15.8954 9.75669 16.0806 9.31672C16.4018 9.04174 16.7319 8.77658 17.0629 8.51043C17.0403 8.64793 17.0217 8.78542 16.9991 8.92733C16.8291 10.0076 16.6322 11.2352 16.9391 12.8915C17.2874 14.7574 17.9612 16.15 18.5526 17.3786C18.6901 17.658 18.8139 17.9286 18.9377 18.1898L16.9942 20.3013C16.7329 20.1957 16.4667 20.0857 16.1921 19.9664C14.9544 19.4351 13.5511 18.8301 11.7039 18.5915C10.063 18.3808 8.87584 18.6514 7.82378 18.8939C7.69068 18.9263 7.56249 18.9489 7.43429 18.9813C7.70492 18.6052 7.9618 18.2345 8.22309 17.8677L8.22358 17.8686Z" fill="#113D23" stroke="#113D23" stroke-width="0.3"/>
</svg>
