<svg width="16" height="16" viewBox="0 0 16 16" fill="none" xmlns="http://www.w3.org/2000/svg">
<path d="M0 7.68C0 4.05867 0 2.25067 1.12 1.12C2.256 0 4.064 0 7.68 0H8.32C11.9413 0 13.7493 0 14.88 1.12C16 2.256 16 4.064 16 7.68V8.32C16 11.9413 16 13.7493 14.88 14.88C13.744 16 11.936 16 8.32 16H7.68C4.05867 16 2.25067 16 1.12 14.88C0 13.744 0 11.936 0 8.32V7.68Z" fill="#E31F25"/>
<path d="M8.51158 11.5256C4.86358 11.5256 2.78358 9.02959 2.69824 4.86959H4.53291C4.59158 7.92026 5.93558 9.21092 7.00224 9.47759V4.86959H8.72491V7.49892C9.77558 7.38692 10.8849 6.18692 11.2582 4.86426H12.9756C12.8355 5.54893 12.5558 6.19738 12.1539 6.76907C11.752 7.34077 11.2365 7.82344 10.6396 8.18692C11.3057 8.51846 11.8939 8.98743 12.3655 9.56292C12.8371 10.1384 13.1814 10.8073 13.3756 11.5256H11.4822C11.0769 10.2616 10.0636 9.28026 8.72491 9.14692V11.5256H8.51691H8.51158Z" fill="#FAEDDD"/>
</svg>
