<svg width="36" height="36" viewBox="0 0 36 36" fill="none" xmlns="http://www.w3.org/2000/svg">
<circle cx="18" cy="18" r="18" fill="#FAEDDD"/>
<path d="M28.5325 17.5376C27.8308 17.0228 26.908 16.7554 25.7885 16.746C25.1321 16.7255 24.4762 16.7998 23.8411 16.9664C22.4489 17.3242 21.0124 17.4811 19.5755 17.4324C17.7537 17.3735 15.8534 17.1099 13.928 16.8687C9.07444 16.2356 6.12564 19.7209 6 19.8706L6.98817 20.7092C7.01392 20.6779 9.60025 17.6178 13.7728 18.1639C15.7403 18.4063 17.6809 18.6744 19.5397 18.7339C21.0998 18.7888 22.6597 18.6183 24.1709 18.2278C24.696 18.0962 25.2365 18.0358 25.7778 18.0481C26.6221 18.0562 27.2949 18.241 27.7755 18.5936C28.6085 19.2073 28.7178 20.1856 28.7103 20.7136C28.6933 21.8152 28.1751 22.8756 27.3911 23.4129C26.9469 23.7179 26.369 23.8789 25.7207 23.8789C25.4273 23.8789 22.8604 23.7925 22.8183 21.4213L21.5293 21.4432C21.5814 24.4031 24.2934 25.1847 25.7181 25.1847C26.6272 25.1847 27.4551 24.9455 28.1148 24.4958C29.2348 23.7273 29.9742 22.2511 29.9994 20.738C30.022 19.4078 29.4868 18.2422 28.5344 17.5401" fill="#113D23"/>
<path d="M28.5325 17.5376C27.8308 17.0228 26.908 16.7554 25.7885 16.746C25.1321 16.7255 24.4762 16.7998 23.8411 16.9664C22.4489 17.3242 21.0124 17.4811 19.5755 17.4324C17.7537 17.3735 15.8534 17.1099 13.928 16.8687C9.07444 16.2356 6.12564 19.7209 6 19.8706L6.98817 20.7092C7.01392 20.6779 9.60025 17.6178 13.7728 18.1639C15.7403 18.4063 17.6809 18.6744 19.5397 18.7339C21.0998 18.7888 22.6597 18.6183 24.1709 18.2278C24.696 18.0962 25.2365 18.0358 25.7778 18.0481C26.6221 18.0562 27.2949 18.241 27.7755 18.5936C28.6085 19.2073 28.7178 20.1856 28.7103 20.7136C28.6933 21.8152 28.1751 22.8756 27.3911 23.4129C26.9469 23.7179 26.369 23.8789 25.7207 23.8789C25.4273 23.8789 22.8604 23.7925 22.8183 21.4213L21.5293 21.4432C21.5814 24.4031 24.2934 25.1847 25.7181 25.1847C26.6272 25.1847 27.4551 24.9455 28.1148 24.4958C29.2348 23.7273 29.9742 22.2511 29.9994 20.738C30.022 19.4078 29.4868 18.2422 28.5344 17.5401" stroke="#113D23" stroke-width="0.5"/>
<path d="M13.2295 14.6423C15.0356 14.8045 16.9202 15.246 18.7263 15.397L18.9399 15.4158C20.0707 15.5135 21.346 15.6256 22.5207 15.1082C23.8695 14.5151 24.5517 13.2688 24.3023 11.8515C24.068 10.5263 22.9202 9.12272 21.2241 9.01249C21.1613 9.00435 19.7553 8.83149 18.6773 9.90684L19.6052 10.8325C20.2164 10.225 21.0243 10.307 21.0941 10.3139C22.1589 10.3847 22.8643 11.2534 23.0095 12.0795C23.0779 12.4653 23.115 13.4135 21.9911 13.9083C21.1261 14.2884 20.0745 14.197 19.0562 14.1093L18.8394 14.0905C17.0358 13.9396 15.1531 13.4987 13.3539 13.339C8.5494 12.868 6.10505 15.7283 6.00391 15.8373L6.9525 16.741C6.97386 16.7197 9.06327 14.2358 13.2346 14.6417" fill="#113D23"/>
<path d="M13.2295 14.6423C15.0356 14.8045 16.9202 15.246 18.7263 15.397L18.9399 15.4158C20.0707 15.5135 21.346 15.6256 22.5207 15.1082C23.8695 14.5151 24.5517 13.2688 24.3023 11.8515C24.068 10.5263 22.9202 9.12272 21.2241 9.01249C21.1613 9.00435 19.7553 8.83149 18.6773 9.90684L19.6052 10.8325C20.2164 10.225 21.0243 10.307 21.0941 10.3139C22.1589 10.3847 22.8643 11.2534 23.0095 12.0795C23.0779 12.4653 23.115 13.4135 21.9911 13.9083C21.1261 14.2884 20.0745 14.197 19.0562 14.1093L18.8394 14.0905C17.0358 13.9396 15.1531 13.4987 13.3539 13.339C8.5494 12.868 6.10505 15.7283 6.00391 15.8373L6.9525 16.741C6.97386 16.7197 9.06327 14.2358 13.2346 14.6417" stroke="#113D23" stroke-width="0.5"/>
<path d="M14.3361 20.259C10.0342 20.259 7.51569 22.6489 7.41016 22.7523L8.3399 23.651C8.36189 23.6297 10.5725 21.5322 14.3368 21.5322C15.0353 21.5322 17.3924 21.6368 18.39 22.9984C18.983 23.8094 18.9195 25.1096 18.2467 25.8988C17.6185 26.6297 16.5235 26.9115 15.5128 26.5958C14.97 26.4249 14.6157 26.0034 14.4291 25.3038C14.3261 24.9174 14.3606 24.4382 14.6842 23.9084C14.2947 23.6942 13.9048 23.4806 13.5144 23.2677C13.0244 23.9103 12.9729 24.9349 13.1564 25.6207C13.4566 26.748 14.132 27.4996 15.1088 27.8065C15.5171 27.9342 15.9424 27.9994 16.3703 28C17.4872 28 18.5457 27.5453 19.26 26.7079C20.3204 25.4654 20.4071 23.5533 19.4617 22.2612C18.1368 20.4525 15.4361 20.2571 14.3368 20.2571" fill="#113D23"/>
<path d="M14.3361 20.259C10.0342 20.259 7.51569 22.6489 7.41016 22.7523L8.3399 23.651C8.36189 23.6297 10.5725 21.5322 14.3368 21.5322C15.0353 21.5322 17.3924 21.6368 18.39 22.9984C18.983 23.8094 18.9195 25.1096 18.2467 25.8988C17.6185 26.6297 16.5235 26.9115 15.5128 26.5958C14.97 26.4249 14.6157 26.0034 14.4291 25.3038C14.3261 24.9174 14.3606 24.4382 14.6842 23.9084C14.2947 23.6942 13.9048 23.4806 13.5144 23.2677C13.0244 23.9103 12.9729 24.9349 13.1564 25.6207C13.4566 26.748 14.132 27.4996 15.1088 27.8065C15.5171 27.9342 15.9424 27.9994 16.3703 28C17.4872 28 18.5457 27.5453 19.26 26.7079C20.3204 25.4654 20.4071 23.5533 19.4617 22.2612C18.1368 20.4525 15.4361 20.2571 14.3368 20.2571" stroke="#113D23" stroke-width="0.5"/>
</svg>
