<svg width="170" height="40" viewBox="0 0 170 40" fill="none" xmlns="http://www.w3.org/2000/svg">
<path d="M62.023 20.3536C62.2183 20.1583 62.2183 19.8417 62.023 19.6464L58.8411 16.4645C58.6458 16.2692 58.3292 16.2692 58.134 16.4645C57.9387 16.6597 57.9387 16.9763 58.134 17.1716L60.9624 20L58.134 22.8284C57.9387 23.0237 57.9387 23.3403 58.134 23.5355C58.3292 23.7308 58.6458 23.7308 58.8411 23.5355L62.023 20.3536ZM24 20.5H61.6695V19.5H24V20.5Z" fill="white"/>
<path d="M147.023 20.3536C147.218 20.1583 147.218 19.8417 147.023 19.6464L143.841 16.4645C143.646 16.2692 143.329 16.2692 143.134 16.4645C142.939 16.6597 142.939 16.9763 143.134 17.1716L145.962 20L143.134 22.8284C142.939 23.0237 142.939 23.3403 143.134 23.5355C143.329 23.7308 143.646 23.7308 143.841 23.5355L147.023 20.3536ZM109 20.5H146.669V19.5H109V20.5Z" fill="#E31F25"/>
</svg>
