<svg width="1920" height="1244" viewBox="0 0 1920 1244" fill="none" xmlns="http://www.w3.org/2000/svg">
<g clip-path="url(#clip0_1_2)">
<path d="M1920 29H0V1215H1920V29Z" fill="#2B7834"/>
<mask id="mask0_1_2" style="mask-type:alpha" maskUnits="userSpaceOnUse" x="0" y="0" width="1920" height="30">
<path d="M1920 0H0V30H1920V0Z" fill="#D9D9D9"/>
</mask>
<g mask="url(#mask0_1_2)">
<path d="M1920 5.56669V829C1813.08 826.6 1735.55 826.2 1735.55 826.2C1716.82 826.6 1714.21 828.5 1667.63 827C1634.67 825.9 1584.41 828.2 1552.05 826.6C1537.71 825.9 1424.74 827.1 1376.85 826.2C1342.71 825.5 1356.58 826 1331.8 827.3C1283.56 829.7 1268.03 825.7 1243.61 826.6C1206.03 828 1178.17 828 1147.83 827C1032.84 823.3 1030.47 830.2 899.011 827.4C878.266 827 785.212 826 730.446 827.5C694.647 828.5 664.656 828.5 643.675 827.6C609.89 826.2 544.812 824.1 500.241 827.5C480.326 829 408.135 827.6 400.548 827.6C337.011 828.3 313.777 823 267.546 823.6C195.236 824.5 180.893 829.9 139.996 827.6C117.261 826 76.3972 828 38.4947 828C20.7279 829.5 13.6211 830 8.29111 829.5C5.32998 829.5 1.18439 830 -6.10352e-05 830L1.10886e-05 5.0001C3.55337 5.00008 24.7622 5.15438 29.5 4.50008C36.0145 3.60043 55.9408 5.30004 75.5 6.50009C112.218 7.50009 111.434 9.20016 140.358 7.50009C174.115 5.0001 183.414 10.3001 255.842 11.0001C301.954 11.5001 345.19 5.56655 408.728 6.16658C416.314 6.26659 486.371 8.56668 506.405 8.46668C540.782 8.16667 613.684 7.36665 647.468 5.96659C668.45 5.06656 700.93 7.06664 736.729 7.96668C791.613 9.36674 884.661 7.66668 905.294 7.66668C1007 7.66669 999.5 2.00017 1154.11 7.5667C1184.57 6.56666 1213.26 4.06657 1250.84 5.36662C1275.38 6.26666 1289.96 4.6666 1338.2 6.9667C1362.98 8.16675 1349.11 8.66676 1383.25 7.96674C1431.14 6.9667 1563.9 9.26681 1578.25 8.46678C1610.61 6.76671 1641.19 7.76676 1674.03 6.56671C1720.61 4.86664 1723.22 6.76672 1741.95 7.16674C1741.48 7.16674 1813.08 8.16679 1920 5.56669Z" fill="#2B7834"/>
</g>
<mask id="mask1_1_2" style="mask-type:alpha" maskUnits="userSpaceOnUse" x="0" y="1213" width="1920" height="31">
<path d="M1920 1244L0 1244L-2.62268e-06 1214L1920 1214L1920 1244Z" fill="#D9D9D9"/>
</mask>
<g mask="url(#mask1_1_2)">
<path d="M1920 1238.43V415C1813.08 417.4 1735.55 417.8 1735.55 417.8C1716.82 417.4 1714.21 415.5 1667.63 417C1634.67 418.1 1584.41 415.8 1552.05 417.4C1537.71 418.1 1424.74 416.9 1376.85 417.8C1342.71 418.5 1356.58 418 1331.8 416.7C1283.56 414.3 1268.03 418.3 1243.61 417.4C1206.03 416 1178.17 416 1147.83 417C1032.84 420.7 1030.47 413.8 899.011 416.6C878.266 417 785.212 418 730.446 416.5C694.647 415.5 664.656 415.5 643.675 416.4C609.89 417.8 544.812 419.9 500.241 416.5C480.326 415 408.135 416.4 400.548 416.4C337.011 415.7 313.777 421 267.546 420.4C195.236 419.5 180.893 414.1 139.996 416.4C117.261 418 76.3972 416 38.4947 416C20.7279 414.5 13.6211 414 8.29111 414.5C5.32998 414.5 1.18439 414 -6.10352e-05 414L1.10886e-05 1239C3.55337 1239 24.7622 1238.85 29.5 1239.5C36.0145 1240.4 55.9408 1238.7 75.5 1237.5C112.218 1236.5 111.434 1234.8 140.358 1236.5C174.115 1239 183.414 1233.7 255.842 1233C301.954 1232.5 345.19 1238.43 408.728 1237.83C416.314 1237.73 486.371 1235.43 506.405 1235.53C540.782 1235.83 613.684 1236.63 647.468 1238.03C668.45 1238.93 700.93 1236.93 736.729 1236.03C791.613 1234.63 884.661 1236.33 905.294 1236.33C1007 1236.33 999.5 1242 1154.11 1236.43C1184.57 1237.43 1213.26 1239.93 1250.84 1238.63C1275.38 1237.73 1289.96 1239.33 1338.2 1237.03C1362.98 1235.83 1349.11 1235.33 1383.25 1236.03C1431.14 1237.03 1563.9 1234.73 1578.25 1235.53C1610.61 1237.23 1641.19 1236.23 1674.03 1237.43C1720.61 1239.13 1723.22 1237.23 1741.95 1236.83C1741.48 1236.83 1813.08 1235.83 1920 1238.43Z" fill="#2B7834"/>
</g>
</g>
<defs>
<clipPath id="clip0_1_2">
<rect width="1920" height="1244" fill="white"/>
</clipPath>
</defs>
</svg>
